<svg width="360" height="174" viewBox="0 0 360 174" fill="none" xmlns="http://www.w3.org/2000/svg">
<g opacity="0.7">
<g opacity="0.3">
<path d="M193.034 60.7912L184.524 73.7799L182.648 72.5506L191.157 59.5619C190.024 58.0397 190.082 55.5571 191.468 53.4411C193.131 50.8882 196.066 49.863 198.009 51.136C199.965 52.4177 200.198 55.518 198.521 58.0621C197.135 60.1781 194.882 61.2221 193.034 60.7912Z" fill="white"/>
</g>
<g opacity="0.3" clip-path="url(#clip0_637_2540)">
<path d="M302.684 29.5493L309.018 41.2058L307.334 42.1208L301 30.4643C299.396 30.7014 297.551 29.6543 296.519 27.7554C295.271 25.4715 295.686 22.8481 297.43 21.9006C299.185 20.9467 301.612 22.0256 302.849 24.316C303.881 26.2149 303.756 28.3328 302.684 29.5493Z" fill="white"/>
</g>
<g opacity="0.3" clip-path="url(#clip1_637_2540)">
<path d="M116.503 69.4667C117.268 68.75 118.462 68.7916 119.176 69.5537L121.332 71.8542L113.97 78.752L111.815 76.4515C111.101 75.6894 111.137 74.4945 111.902 73.7778L116.503 69.4667ZM115.015 87.2449C114.175 86.3477 113.929 85.0438 114.388 83.9017L115.172 81.9249C115.527 81.0381 116.074 80.2368 116.77 79.5848L121.981 74.7024C122.677 74.0504 123.511 73.5573 124.42 73.2595L126.443 72.6061C127.564 72.2689 128.898 72.5521 129.739 73.4493C130.515 74.2775 130.763 75.4064 130.49 76.4291C131.625 76.3155 132.795 76.7104 133.587 77.5558C134.535 78.5681 134.838 79.8716 134.506 81.015C135.765 80.8608 137.046 81.2482 137.898 82.157C138.846 83.1692 139.15 84.4727 138.865 85.6679C140.076 85.462 141.357 85.8494 142.257 86.8099C143.157 87.7703 143.461 89.0739 143.176 90.269C144.388 90.0631 145.669 90.4505 146.569 91.411C147.997 92.9351 147.919 95.3303 146.395 96.7583L137.192 105.381C135.668 106.809 133.273 106.731 131.845 105.207C130.945 104.246 130.643 102.941 130.924 101.75C129.716 101.952 128.434 101.566 127.534 100.605C126.634 99.6449 126.332 98.3403 126.612 97.1484C125.405 97.3511 124.123 96.9648 123.174 95.9525C122.323 95.0438 122.021 93.7392 122.253 92.4955C121.094 92.75 119.812 92.3637 118.863 91.3514C118.071 90.506 117.753 89.3135 117.938 88.1893C116.903 88.392 115.791 88.0731 115.015 87.2449ZM125.237 88.9325L130.758 83.7592C131.265 83.2849 131.291 82.4828 130.817 81.9767C130.342 81.4706 129.54 81.4445 129.034 81.9187L123.513 87.0921C123.007 87.5663 122.98 88.3684 123.455 88.8745C123.929 89.3806 124.731 89.4067 125.237 88.9325ZM130.41 94.4539C129.904 94.9281 129.878 95.7302 130.352 96.2363C130.827 96.7424 131.629 96.7685 132.135 96.2943L137.656 91.121C138.162 90.6468 138.189 89.8446 137.714 89.3385C137.24 88.8324 136.438 88.8063 135.932 89.2805L130.41 94.4539Z" fill="white"/>
</g>
<g opacity="0.3" clip-path="url(#clip2_637_2540)">
<path d="M332.403 98.7972C333.904 99.1827 334.799 100.706 334.415 102.2L333.256 106.713L318.816 103.003L319.975 98.4901C320.359 96.9953 321.878 96.0928 323.378 96.4783L332.403 98.7972ZM309.054 111.041C309.506 109.281 310.937 107.941 312.725 107.607L315.812 107.017C317.199 106.757 318.633 106.804 319.998 107.155L330.219 109.781C331.584 110.132 332.86 110.781 333.952 111.678L336.372 113.683C337.681 114.813 338.386 116.702 337.934 118.462C337.516 120.086 336.305 121.29 334.813 121.761C335.855 123.087 336.29 124.858 335.864 126.516C335.354 128.502 333.969 129.914 332.279 130.406C333.47 131.854 334.003 133.759 333.545 135.541C333.035 137.527 331.65 138.939 329.934 139.532C331.151 140.879 331.684 142.784 331.2 144.668C330.716 146.552 329.331 147.964 327.615 148.557C328.832 149.904 329.365 151.809 328.881 153.693C328.113 156.682 325.064 158.485 322.075 157.716L304.025 153.079C301.034 152.31 299.233 149.262 300.001 146.272C300.485 144.388 301.873 142.977 303.582 142.382C302.371 141.037 301.836 139.131 302.32 137.247C302.804 135.363 304.192 133.952 305.901 133.357C304.69 132.012 304.155 130.106 304.665 128.121C305.123 126.338 306.511 124.927 308.246 124.23C307.009 122.987 306.474 121.081 306.984 119.096C307.41 117.437 308.645 116.095 310.194 115.435C309.121 114.305 308.636 112.666 309.054 111.041ZM315.055 125.126L325.885 127.909C326.878 128.164 327.899 127.56 328.154 126.568C328.409 125.575 327.806 124.554 326.813 124.299L315.983 121.516C314.99 121.261 313.969 121.865 313.714 122.857C313.459 123.85 314.063 124.871 315.055 125.126ZM312.273 135.956C311.28 135.701 310.259 136.305 310.004 137.297C309.749 138.29 310.352 139.311 311.345 139.566L322.175 142.349C323.168 142.604 324.189 142 324.444 141.008C324.699 140.015 324.095 138.994 323.103 138.739L312.273 135.956Z" fill="white"/>
</g>
<g opacity="0.3" clip-path="url(#clip3_637_2540)">
<path d="M70.8318 22.5748C71.8214 23.145 72.1566 24.4036 71.5885 25.3894L69.8736 28.3656L60.35 22.8778L62.0649 19.9016C62.633 18.9158 63.89 18.5747 64.8795 19.1449L70.8318 22.5748ZM51.8281 26.6591C52.497 25.4984 53.7784 24.8294 55.1141 24.945L57.4234 25.1359C58.4603 25.225 59.4691 25.5417 60.3693 26.0604L67.1103 29.9448C68.0106 30.4635 68.7889 31.1767 69.3874 32.03L70.7098 33.9317C71.4164 34.993 71.5442 36.474 70.8754 37.6347C70.258 38.7061 69.1598 39.322 68.0072 39.3615C68.4856 40.5093 68.4445 41.8533 67.8142 42.9471C67.0597 44.2566 65.797 44.9859 64.4996 45.0014C65.0596 46.2656 65.0618 47.7238 64.3844 48.8993C63.6298 50.2088 62.3671 50.9381 61.0312 51.0207C61.6297 52.2179 61.6319 53.676 60.9159 54.9186C60.1999 56.1611 58.9373 56.8904 57.6013 56.9729C58.1998 58.1702 58.202 59.6283 57.486 60.8708C56.3499 62.8425 53.8284 63.5204 51.8568 62.3843L39.9522 55.5245C37.9798 54.388 37.3026 51.8669 38.4388 49.8953C39.1548 48.6527 40.4189 47.9243 41.7504 47.8392C41.1563 46.6445 41.1527 45.1855 41.8686 43.943C42.5846 42.7004 43.8488 41.972 45.1803 41.8869C44.5862 40.6923 44.5825 39.2332 45.3371 37.9237C46.0145 36.7482 47.2787 36.0197 48.6487 35.8677C48.0161 34.74 48.0124 33.281 48.767 31.9715C49.3972 30.8777 50.5395 30.1682 51.7701 30.0052C51.2308 28.9908 51.2108 27.7305 51.8281 26.6591ZM53.3087 37.8492L60.4514 41.9651C61.1062 42.3423 61.9506 42.1153 62.3279 41.4606C62.7052 40.8058 62.4781 39.9614 61.8234 39.5842L54.6807 35.4683C54.0259 35.091 53.1815 35.318 52.8042 35.9728C52.4269 36.6275 52.654 37.4719 53.3087 37.8492ZM49.1929 44.9919C48.5381 44.6147 47.6937 44.8417 47.3164 45.4964C46.9392 46.1512 47.1662 46.9956 47.8209 47.3729L54.9636 51.4887C55.6184 51.866 56.4628 51.639 56.8401 50.9842C57.2174 50.3295 56.9903 49.4851 56.3356 49.1078L49.1929 44.9919Z" fill="white"/>
</g>
<g opacity="0.3" clip-path="url(#clip4_637_2540)">
<path d="M23.3979 27.188L17.2197 16.487C17.0832 16.2505 17.0462 15.9695 17.1169 15.7057C17.1875 15.4419 17.3601 15.217 17.5966 15.0804L31.8646 6.84284C32.1011 6.7063 32.3821 6.6693 32.6459 6.73998C32.9097 6.81066 33.1346 6.98324 33.2712 7.21974L41.5088 21.4877C41.9184 22.1972 42.0294 23.0404 41.8174 23.8318C41.6053 24.6231 41.0876 25.2978 40.3781 25.7075L27.8936 32.9154C27.1841 33.325 26.3409 33.436 25.5496 33.224C24.7582 33.0119 24.0835 32.4942 23.6738 31.7847L22.6441 30.0012L36.9121 21.7636L37.9418 23.5471C38.0783 23.7836 38.3032 23.9562 38.567 24.0269C38.8308 24.0975 39.1119 24.0605 39.3484 23.924C39.5849 23.7874 39.7575 23.5625 39.8282 23.2987C39.8988 23.035 39.8618 22.7539 39.7253 22.5174L37.6659 18.9504L23.3979 27.188Z" fill="white"/>
</g>
<g opacity="0.3" clip-path="url(#clip5_637_2540)">
<path d="M141.216 56.4086L151.98 39.8346C152.218 39.4682 152.592 39.2114 153.019 39.1206C153.446 39.0298 153.892 39.1125 154.258 39.3504L176.357 53.702C176.723 53.9399 176.98 54.3136 177.071 54.7408C177.162 55.1681 177.079 55.6139 176.841 55.9802L162.489 78.0789C161.776 79.1778 160.655 79.9482 159.373 80.2206C158.091 80.493 156.754 80.2451 155.655 79.5314L136.319 66.9737C135.22 66.26 134.449 65.139 134.177 63.8573C133.905 62.5756 134.152 61.2382 134.866 60.1393L136.66 57.3769L158.759 71.7286L156.965 74.4909C156.727 74.8572 156.644 75.3031 156.735 75.7303C156.826 76.1575 157.083 76.5312 157.449 76.7691C157.815 77.007 158.261 77.0896 158.688 76.9988C159.116 76.908 159.489 76.6512 159.727 76.2849L163.315 70.7602L141.216 56.4086Z" fill="white"/>
</g>
<g opacity="0.3" clip-path="url(#clip6_637_2540)">
<path d="M318.004 73.9401L307.663 59.1743C307.435 58.848 307.345 58.4442 307.415 58.0518C307.484 57.6595 307.706 57.3107 308.032 57.0821L327.72 43.2948C328.046 43.0662 328.45 42.9767 328.842 43.0459C329.235 43.115 329.584 43.3372 329.812 43.6636L343.6 63.3513C344.285 64.3303 344.554 65.5416 344.346 66.7187C344.139 67.8958 343.472 68.9422 342.493 69.6278L325.266 81.6918C324.287 82.3774 323.076 82.646 321.899 82.4385C320.722 82.231 319.675 81.5645 318.99 80.5854L317.266 78.1245L336.954 64.3371L338.678 66.7981C338.906 67.1244 339.255 67.3466 339.647 67.4158C340.04 67.485 340.443 67.3954 340.77 67.1669C341.096 66.9383 341.318 66.5895 341.387 66.1972C341.457 65.8048 341.367 65.401 341.139 65.0747L337.692 60.1528L318.004 73.9401Z" fill="white"/>
</g>
<g opacity="0.3">
<path d="M32.3906 47.6093L27.3906 42.6093C27.1478 42.41 26.8394 42.3081 26.5256 42.3235C26.2118 42.339 25.9149 42.4705 25.6928 42.6927C25.4706 42.9149 25.339 43.2117 25.3236 43.5256C25.3082 43.8394 25.4101 44.1477 25.6094 44.3906L25.8438 44.6093L17.2344 51.0781L11.25 52.2812C11.0103 52.3295 10.7887 52.4431 10.6094 52.6093L-2.60936 65.8437C-2.96084 66.191 -3.23989 66.6047 -3.43035 67.0606C-3.6208 67.5166 -3.71887 68.0058 -3.71887 68.5C-3.71887 68.9941 -3.6208 69.4833 -3.43035 69.9393C-3.23989 70.3952 -2.96084 70.8089 -2.60936 71.1562L3.84377 77.6093C4.19109 77.9608 4.60472 78.2399 5.06069 78.4303C5.51665 78.6208 6.00588 78.7188 6.50002 78.7188C6.99416 78.7188 7.48339 78.6208 7.93935 78.4303C8.39531 78.2399 8.80894 77.9608 9.15627 77.6093L22.3906 64.3906C22.5569 64.2113 22.6704 63.9896 22.7188 63.75L23.9219 57.7656L30.3906 49.1562L30.6094 49.3906C30.8483 49.6216 31.1677 49.7507 31.5 49.7507C31.8324 49.7507 32.1517 49.6216 32.3906 49.3906C32.6254 49.1536 32.757 48.8335 32.757 48.5C32.757 48.1664 32.6254 47.8463 32.3906 47.6093ZM5.60939 75.8437L-0.843732 69.3906C-0.961838 69.2743 -1.05563 69.1356 -1.11965 68.9827C-1.18367 68.8298 -1.21664 68.6657 -1.21664 68.5C-1.21664 68.3342 -1.18367 68.1701 -1.11965 68.0172C-1.05563 67.8643 -0.961838 67.7256 -0.843732 67.6093L0.250018 66.5156L8.48439 74.75L7.39064 75.8437C7.15365 76.0784 6.83358 76.2101 6.50002 76.2101C6.16646 76.2101 5.84639 76.0784 5.60939 75.8437ZM21.75 56.5C21.6425 56.6492 21.5679 56.8197 21.5313 57L20.3438 62.8906L19 64.2343L10.7656 56L12.1094 54.6562L18 53.4687C18.1803 53.4321 18.3508 53.3575 18.5 53.25L27.625 46.4062L28.5938 47.375L21.75 56.5Z" fill="white"/>
</g>
<g opacity="0.3" clip-path="url(#clip7_637_2540)">
<path d="M37.802 65.7693L28.806 71.0176C28.4311 71.2889 28.1704 71.6899 28.0748 72.1427C27.9791 72.5955 28.0553 73.0677 28.2885 73.4674C28.5217 73.8671 28.8952 74.1658 29.3365 74.3054C29.7777 74.4449 30.2551 74.4154 30.6757 74.2225L31.0752 73.9706L37.0629 88.6582L36.5339 97.6334C36.513 97.9929 36.5916 98.3513 36.7613 98.6689L50.6587 122.458C51.0217 123.089 51.5063 123.641 52.0844 124.083C52.6626 124.525 53.3227 124.849 54.0265 125.034C54.7304 125.219 55.464 125.263 56.1849 125.162C56.9057 125.062 57.5995 124.819 58.226 124.449L69.8364 117.675C70.4672 117.312 71.0197 116.828 71.4619 116.249C71.904 115.671 72.2271 115.011 72.4123 114.307C72.5974 113.603 72.6411 112.87 72.5407 112.149C72.4403 111.428 72.1978 110.734 71.8273 110.108L57.958 86.3026C57.7649 85.9986 57.4917 85.7538 57.1684 85.5951L49.095 81.6386L39.2558 69.1979L39.6717 68.9741C40.0903 68.7204 40.3939 68.3139 40.5185 67.8405C40.643 67.3671 40.5788 66.8638 40.3392 66.4369C40.0896 66.0137 39.683 65.7062 39.2079 65.5812C38.7328 65.4562 38.2275 65.5238 37.802 65.7693ZM67.9831 114.498L56.3727 121.272C56.1627 121.397 55.9301 121.478 55.6883 121.512C55.4465 121.546 55.2004 121.532 54.9643 121.469C54.7282 121.407 54.5068 121.299 54.313 121.15C54.1192 121.002 53.9568 120.816 53.8354 120.605L52.6873 118.637L67.5025 109.993L68.6506 111.961C68.8961 112.387 68.9638 112.892 68.8388 113.367C68.7137 113.842 68.4062 114.249 67.9831 114.498ZM46.4783 84.258C46.6506 84.4672 46.8654 84.6372 47.1085 84.757L55.0542 88.6561L56.4647 91.0737L41.6495 99.717L40.239 97.2994L40.7551 88.4636C40.7705 88.193 40.7282 87.9223 40.6309 87.6694L34.3022 72.1067L36.0452 71.0899L46.4783 84.258Z" fill="white"/>
</g>
<g opacity="0.3" clip-path="url(#clip8_637_2540)">
<path d="M329.637 6.47654L322.791 14.3254C322.522 14.7023 322.403 15.1656 322.457 15.6252C322.512 16.0848 322.735 16.5079 323.083 16.812C323.432 17.1162 323.882 17.2798 324.344 17.271C324.807 17.2622 325.25 17.0816 325.587 16.7643L325.885 16.3979L336.254 28.4005L338.622 37.0737C338.717 37.4211 338.906 37.7354 339.169 37.9822L359.942 56.0795C360.488 56.5612 361.123 56.9298 361.813 57.1639C362.502 57.3981 363.23 57.4931 363.957 57.4435C364.683 57.394 365.392 57.2008 366.043 56.8752C366.694 56.5496 367.274 56.098 367.749 55.5467L376.584 45.4167C377.066 44.8711 377.434 44.2353 377.669 43.5462C377.903 42.857 377.998 42.1283 377.948 41.4022C377.899 40.676 377.705 39.967 377.38 39.316C377.054 38.6651 376.603 38.0853 376.051 37.6101L355.299 19.4883C355.019 19.2619 354.682 19.1173 354.325 19.0703L345.41 17.9026L332.11 9.26036L332.433 8.9154C332.748 8.54113 332.906 8.0589 332.873 7.57052C332.839 7.08213 332.618 6.62581 332.254 6.29789C331.882 5.97673 331.399 5.81533 330.909 5.84878C330.418 5.88224 329.961 6.10784 329.637 6.47654ZM373.813 42.9993L364.977 53.1293C364.818 53.3145 364.624 53.4662 364.405 53.5756C364.187 53.685 363.949 53.7499 363.706 53.7666C363.462 53.7832 363.218 53.7512 362.987 53.6725C362.755 53.5937 362.542 53.4698 362.36 53.3079L360.643 51.8104L371.917 38.8842L373.634 40.3818C374.003 40.7065 374.228 41.1636 374.262 41.6538C374.295 42.1439 374.134 42.6275 373.813 42.9993ZM343.768 21.221C343.999 21.3641 344.256 21.4566 344.525 21.4923L353.3 22.6465L355.41 24.4864L344.135 37.4125L342.026 35.5727L339.69 27.0356C339.618 26.7743 339.492 26.5314 339.319 26.3228L328.347 13.6002L329.673 12.0795L343.768 21.221Z" fill="white"/>
</g>
<g opacity="0.3" clip-path="url(#clip9_637_2540)">
<path d="M266.528 47.9522L263.395 44.9849C263.244 44.8673 263.054 44.8102 262.863 44.8248C262.672 44.8394 262.493 44.9246 262.361 45.0638C262.229 45.203 262.154 45.3863 262.15 45.578C262.145 45.7696 262.213 45.956 262.338 46.1009L262.485 46.2305L257.34 50.3189L253.709 51.1518C253.564 51.1853 253.431 51.2582 253.324 51.3626L245.479 59.6544C245.271 59.8721 245.107 60.129 244.999 60.4103C244.89 60.6916 244.838 60.9917 244.846 61.2931C244.855 61.5945 244.922 61.8913 245.046 62.1663C245.17 62.4413 245.347 62.689 245.567 62.8951L249.61 66.7248C249.828 66.9335 250.085 67.0969 250.366 67.2055C250.648 67.3142 250.948 67.3659 251.249 67.3577C251.551 67.3495 251.847 67.2816 252.122 67.1579C252.397 67.0342 252.645 66.8571 252.851 66.6369L260.706 58.3544C260.804 58.2423 260.87 58.1052 260.895 57.9582L261.53 54.2877L265.334 48.9289L265.471 49.0683C265.621 49.2052 265.817 49.2787 266.02 49.2732C266.223 49.2677 266.416 49.1837 266.558 49.0388C266.697 48.8903 266.772 48.6929 266.766 48.4894C266.761 48.286 266.675 48.0929 266.528 47.9522ZM250.658 65.6186L246.615 61.7888C246.541 61.7198 246.482 61.6368 246.44 61.5446C246.398 61.4524 246.376 61.3528 246.373 61.2517C246.37 61.1506 246.387 61.0499 246.424 60.9556C246.46 60.8613 246.515 60.7751 246.586 60.7022L247.235 60.0169L252.394 64.9038L251.745 65.5891C251.604 65.7362 251.411 65.8218 251.208 65.8273C251.004 65.8329 250.807 65.7578 250.658 65.6186ZM260.184 53.5516C260.121 53.6445 260.078 53.7497 260.059 53.8603L259.432 57.4733L258.635 58.3152L253.475 53.4283L254.273 52.5864L257.847 51.7646C257.956 51.7392 258.059 51.6909 258.148 51.6228L263.601 47.2971L264.208 47.872L260.184 53.5516Z" fill="white"/>
</g>
<g opacity="0.3" clip-path="url(#clip10_637_2540)">
<path d="M159.692 23.8255C159.157 23.682 158.73 23.2583 158.581 22.7235L157.459 18.7585L154.508 21.6322C154.108 22.0233 153.527 22.1769 152.991 22.0334C152.849 21.9952 152.711 21.9378 152.586 21.8595L148.581 19.4389L147.051 25.1476C146.925 25.6191 147.132 26.1145 147.552 26.3474L153.939 29.9185C154.241 30.0853 154.58 30.1762 154.922 30.1818L162.245 30.2845C162.726 30.2896 163.153 29.964 163.279 29.4958L164.808 23.787L160.13 23.8775C159.983 23.8827 159.835 23.8637 159.692 23.8255ZM167.395 22.0326L166.646 18.2982C166.601 18.0731 166.419 17.9007 166.193 17.871L157.992 16.7701L159.591 22.427C159.658 22.6613 159.873 22.8221 160.115 22.8182L166.873 22.6868C167.212 22.6779 167.458 22.3659 167.395 22.0326ZM149.734 13.7666L147.218 16.6263C146.993 16.8823 147.054 17.2767 147.341 17.4497L153.127 20.9424C153.335 21.0668 153.602 21.0352 153.776 20.8654L157.992 16.7701L150.336 13.6222C150.125 13.5379 149.885 13.5941 149.734 13.7666Z" fill="white"/>
</g>
<g opacity="0.3" clip-path="url(#clip11_637_2540)">
<path d="M97.5479 57.0397C96.7885 57.3975 95.8835 57.3296 95.1922 56.8646L90.0463 53.4358L89.4181 59.5849C89.3342 60.4206 88.8102 61.1616 88.0508 61.5194C87.8486 61.6146 87.6337 61.6829 87.413 61.7155L80.4271 62.8543L84.1952 70.8526C84.5064 71.5132 85.2267 71.8766 85.9389 71.7333L96.799 69.5875C97.3102 69.4839 97.791 69.2574 98.192 68.9312L106.771 61.9193C107.332 61.4569 107.511 60.67 107.202 60.014L103.434 52.0157L98.1053 56.6728C97.9396 56.8222 97.7501 56.9444 97.5479 57.0397ZM104.726 47.4975L100.235 43.9684C99.9649 43.7555 99.5876 43.7355 99.2966 43.9221L88.7338 50.6499L96.0741 55.5432C96.3782 55.7458 96.7832 55.7198 97.0599 55.4796L104.756 48.7514C105.14 48.4115 105.123 47.8156 104.726 47.4975ZM76.2584 55.2643L76.1205 60.9738C76.1085 61.4846 76.5616 61.8751 77.0612 61.7935L87.1498 60.1429C87.5112 60.0825 87.7892 59.7868 87.8265 59.4232L88.7338 50.6499L76.8159 54.513C76.4889 54.6231 76.2664 54.9201 76.2584 55.2643Z" fill="white"/>
</g>
<g opacity="0.3" clip-path="url(#clip12_637_2540)">
<path d="M243.109 33.3276C242.55 33.3955 241.987 33.1615 241.645 32.7197L239.091 29.4516L237.395 33.2353C237.165 33.7499 236.675 34.1114 236.116 34.1792C235.967 34.1973 235.816 34.1955 235.669 34.1697L230.98 33.4228L231.694 39.3107C231.753 39.7969 232.135 40.1802 232.619 40.239L239.987 41.161C240.335 41.2028 240.689 41.1598 241.013 41.0366L247.954 38.3788C248.409 38.2027 248.688 37.7392 248.63 37.2562L247.916 31.3684L243.541 33.2114C243.404 33.2717 243.257 33.3096 243.109 33.3276ZM249.691 28.7632L247.575 25.5694C247.447 25.3768 247.211 25.2846 246.987 25.342L238.842 27.4008L242.485 32.064C242.636 32.2571 242.9 32.3259 243.127 32.2312L249.446 29.5682C249.762 29.4326 249.876 29.0495 249.691 28.7632ZM229.924 27.7105L228.633 31.3176C228.518 31.6404 228.724 31.9846 229.06 32.0379L235.832 33.1127C236.075 33.1504 236.315 33.0206 236.415 32.797L238.842 27.4008L230.438 27.3495C230.206 27.3508 230.002 27.493 229.924 27.7105Z" fill="white"/>
</g>
<g opacity="0.3">
<path d="M18.0741 98.2966L24.6795 99.9189C26.0006 100.243 26.665 101.34 26.3406 102.662L25.7998 104.863L-2.82367 97.8331L-2.28288 95.6313C-1.95841 94.3102 -0.641194 93.6999 0.459708 93.9703L7.06512 95.5926C8.10034 93.2788 11.009 91.892 13.6512 92.541C16.2934 93.1899 18.2286 95.7664 18.0741 98.2966ZM9.26692 96.1334L15.8723 97.7558C15.7564 96.3265 14.4315 95.0673 13.1104 94.7428C11.7893 94.4183 10.0318 94.9205 9.26692 96.1334ZM-1.16265 100.576L23.0572 106.524L15.6136 128.276C15.3432 129.377 14.026 129.987 12.9251 129.717L-2.92788 125.823C-4.02878 125.553 -4.69318 124.456 -4.64297 123.301L-1.16265 100.576Z" fill="white"/>
</g>
<g opacity="0.3" clip-path="url(#clip13_637_2540)">
<path d="M28.873 141.28L33.8929 139.935C34.8969 139.666 35.7455 140.156 36.0145 141.16L36.4629 142.833L14.7101 148.662L14.2617 146.988C13.9927 145.984 14.65 145.091 15.4866 144.867L20.5065 143.522C20.348 141.591 21.7851 139.592 23.793 139.054C25.801 138.516 28.0451 139.529 28.873 141.28ZM22.1798 143.073L27.1997 141.728C26.596 140.814 25.2454 140.458 24.2414 140.727C23.2374 140.996 22.2455 141.98 22.1798 143.073ZM16.8317 149.887L35.238 144.955L38.2604 162.258C38.4846 163.095 37.8273 163.989 36.9906 164.213L24.9429 167.441C24.1063 167.665 23.2576 167.175 22.8661 166.383L16.8317 149.887Z" fill="white"/>
</g>
<g opacity="0.3">
<path d="M292.427 48.0953L297.362 49.7241C298.349 50.0498 298.79 50.925 298.464 51.912L297.922 53.5571L276.536 46.4991L277.079 44.8541C277.405 43.8671 278.444 43.4805 279.267 43.752L284.202 45.3807C285.128 43.6797 287.426 42.7964 289.4 43.4479C291.375 44.0994 292.695 46.1772 292.427 48.0953ZM285.847 45.9236L290.782 47.5524C290.779 46.4568 289.845 45.4187 288.858 45.093C287.871 44.7672 286.502 45.0452 285.847 45.9236ZM277.638 48.6871L295.734 54.6592L288.77 70.7856C288.498 71.6081 287.458 71.9946 286.636 71.7232L274.792 67.8142C273.969 67.5427 273.528 66.6675 273.635 65.7907L277.638 48.6871Z" fill="white"/>
</g>
<g opacity="0.3" clip-path="url(#clip14_637_2540)">
<path d="M82.7943 86.3354L81.0038 85.6158L81.1223 85.321C82.3656 82.2273 85.9138 80.7406 89.0434 81.9984L90.8339 82.718C93.9636 83.9759 95.496 87.5045 94.2526 90.5981L94.1341 90.8929L92.3436 90.1733L92.4621 89.8785C93.3129 87.7618 92.2642 85.3474 90.123 84.4869L88.3325 83.7672C86.1914 82.9067 83.7635 83.9239 82.9128 86.0406L82.7943 86.3354ZM78.2654 87.2546C78.5276 86.6023 79.2739 86.2902 79.933 86.5551L94.257 92.312C94.9173 92.5774 95.2389 93.3188 94.9768 93.971C94.7146 94.6233 93.9694 94.9359 93.3092 94.6705L93.1189 94.594L89.1287 102.107C88.639 102.959 87.6301 103.346 86.7125 102.977L77.9987 99.4748C77.083 99.1067 76.5885 98.1162 76.8555 97.1748L79.1735 88.9893L78.9851 88.9136C78.326 88.6487 78.0033 87.9069 78.2654 87.2546Z" fill="white"/>
</g>
<g opacity="0.3" clip-path="url(#clip15_637_2540)">
<path d="M112.53 22.5606L109.571 23.3536L109.44 22.8663C108.07 17.753 111.158 12.4831 116.331 11.0971L119.29 10.3041C124.463 8.91802 129.773 11.9378 131.143 17.0511L131.273 17.5384L128.314 18.3314L128.183 17.8441C127.246 14.3455 123.613 12.2794 120.074 13.2277L117.114 14.0207C113.575 14.969 111.462 18.5747 112.4 22.0733L112.53 22.5606ZM107.656 28.0447C107.367 26.9666 108.017 25.8589 109.106 25.567L132.782 19.2232C133.873 18.9308 134.988 19.5655 135.277 20.6436C135.566 21.7217 134.918 22.8289 133.826 23.1214L133.512 23.2056L135.607 36.5493C135.797 38.0977 134.885 39.55 133.368 39.9564L118.965 43.8155C117.452 44.2211 115.88 43.4346 115.322 41.9848L110.462 29.3817L110.151 29.4652C109.062 29.7571 107.945 29.1228 107.656 28.0447Z" fill="white"/>
</g>
<path opacity="0.3" d="M216.864 99.2332L214.916 98.8236L214.983 98.5029C215.691 95.1376 219.028 92.9909 222.433 93.707L224.38 94.1167C227.785 94.8328 229.974 98.1419 229.267 101.507L229.199 101.828L227.251 101.418L227.319 101.098C227.803 98.7949 226.305 96.5308 223.976 96.0408L222.028 95.6312C219.699 95.1413 217.415 96.61 216.931 98.9125L216.864 99.2332ZM212.428 100.979C212.578 100.27 213.28 99.819 213.997 99.9698L229.579 103.247C230.297 103.398 230.756 104.094 230.607 104.803C230.458 105.513 229.757 105.964 229.039 105.813L228.832 105.769L226.127 114.117C225.782 115.07 224.827 115.643 223.829 115.433L214.35 113.439C213.354 113.23 212.674 112.312 212.776 111.308L213.662 102.578L213.457 102.535C212.74 102.385 212.279 101.689 212.428 100.979Z" fill="white"/>
<g opacity="0.3">
<path d="M101.831 104.679L118.246 106.355C118.642 106.395 119.006 106.591 119.257 106.899C119.508 107.208 119.627 107.604 119.586 107.999L117.302 130.383C117.261 130.779 117.065 131.142 116.757 131.394C116.449 131.645 116.053 131.763 115.657 131.723L94.7657 129.591C94.37 129.55 94.0065 129.354 93.7552 129.046C93.5039 128.738 93.3854 128.342 93.4258 127.946L94.9487 113.024L101.831 104.679ZM109.902 99.472L117.363 100.233C117.759 100.274 118.122 100.47 118.374 100.778C118.625 101.087 118.744 101.482 118.703 101.878L118.399 104.862L107.953 103.796L108.257 100.812C108.298 100.416 108.494 100.053 108.802 99.8013C109.111 99.5501 109.506 99.4316 109.902 99.472ZM97.7809 114.821L96.7149 125.266L99.6994 125.571L100.765 115.125L97.7809 114.821Z" fill="white"/>
</g>
<g opacity="0.3" clip-path="url(#clip16_637_2540)">
<path d="M253.568 87.4346L277.587 85.0168C278.166 84.9586 278.745 85.1327 279.196 85.501C279.646 85.8693 279.932 86.4015 279.991 86.9807L283.288 119.735C283.346 120.314 283.172 120.892 282.803 121.343C282.435 121.794 281.903 122.08 281.324 122.138L250.753 125.215C250.174 125.273 249.596 125.099 249.145 124.731C248.694 124.363 248.408 123.83 248.35 123.251L246.152 101.415L253.568 87.4346ZM263.607 77.6012L274.525 76.5023C275.104 76.444 275.682 76.6181 276.133 76.9864C276.584 77.3547 276.87 77.8869 276.928 78.4661L277.368 82.8333L262.082 84.3718L261.643 80.0046C261.584 79.4255 261.759 78.8469 262.127 78.3962C262.495 77.9455 263.027 77.6595 263.607 77.6012ZM250.739 103.159L252.278 118.444L256.645 118.005L255.106 102.72L250.739 103.159Z" fill="white"/>
</g>
<g opacity="0.3" clip-path="url(#clip17_637_2540)">
<path d="M83.7196 30.6724L89.5028 25.1423C89.6423 25.009 89.829 24.9365 90.0219 24.9408C90.2147 24.9451 90.398 25.0259 90.5313 25.1653L98.0723 33.0515C98.2057 33.191 98.2781 33.3776 98.2738 33.5705C98.2695 33.7634 98.1888 33.9467 98.0493 34.08L90.6889 41.1183C90.5494 41.2516 90.3627 41.3241 90.1699 41.3198C89.977 41.3154 89.7937 41.2347 89.6604 41.0953L84.633 35.8378L83.7196 30.6724ZM84.3374 26.0557L86.9662 23.5421C87.1056 23.4087 87.2923 23.3362 87.4852 23.3406C87.678 23.3449 87.8613 23.4256 87.9946 23.5651L89.0001 24.6166L85.3199 28.1357L84.3144 27.0842C84.1811 26.9448 84.1086 26.7581 84.1129 26.5652C84.1172 26.3723 84.198 26.1891 84.3374 26.0557ZM86.1873 35.3581L89.7064 39.0383L90.7579 38.0328L87.2388 34.3526L86.1873 35.3581Z" fill="white"/>
</g>
<g opacity="0.3" clip-path="url(#clip18_637_2540)">
<path d="M170.752 109.922L171.22 112.378L161.396 114.249L160.929 111.794L163.384 111.326L163.15 110.098L155.783 111.501L156.251 113.957L153.795 114.425L151.924 104.602L154.38 104.134L154.847 106.59L164.671 104.718C165.322 104.594 165.996 104.734 166.544 105.107C167.093 105.48 167.47 106.055 167.594 106.706L168.296 110.39L170.752 109.922ZM164.788 118.693L165.49 122.377C165.614 123.028 165.991 123.604 166.54 123.977C167.088 124.349 167.762 124.489 168.413 124.365L178.237 122.494L178.704 124.95L181.16 124.482L179.289 114.659L176.833 115.126L177.301 117.582L169.933 118.986L169.699 117.758L172.155 117.29L171.688 114.834L161.864 116.705L162.332 119.161L164.788 118.693Z" fill="white"/>
</g>
<g opacity="0.3" clip-path="url(#clip19_637_2540)">
<path d="M233.319 64.7091L232.121 67.6259L220.454 62.8342L221.652 59.9174L224.568 61.1153L225.167 59.6569L216.417 56.0631L215.219 58.9799L212.302 57.782L217.094 46.1147L220.011 47.3127L218.813 50.2295L230.48 55.0212C231.254 55.3389 231.869 55.9509 232.192 56.7226C232.514 57.4943 232.517 58.3624 232.199 59.136L230.402 63.5112L233.319 64.7091ZM220.975 69.8657L219.178 74.241C218.86 75.0146 218.863 75.8827 219.185 76.6543C219.507 77.426 220.123 78.038 220.897 78.3557L232.564 83.1474L231.366 86.0642L234.283 87.2622L239.075 75.5949L236.158 74.397L234.96 77.3138L226.209 73.72L226.808 72.2616L229.725 73.4595L230.923 70.5427L219.256 65.751L218.058 68.6678L220.975 69.8657Z" fill="white"/>
</g>
<g opacity="0.3" clip-path="url(#clip20_637_2540)">
<path d="M303.224 93.3977L301.591 92.1527L306.571 85.6226L308.204 86.8677L306.959 88.5002L307.775 89.1227L311.51 84.2251L309.878 82.9801L311.123 81.3476L317.653 86.3276L316.408 87.9602L314.775 86.7151L309.795 93.2452C309.465 93.6782 308.976 93.9623 308.437 94.0349C307.897 94.1076 307.351 93.9629 306.918 93.6327L304.469 91.7652L303.224 93.3977ZM302.061 84.7651L299.613 82.8976C299.18 82.5674 298.633 82.4228 298.094 82.4954C297.554 82.5681 297.065 82.8522 296.735 83.2851L291.755 89.8152L290.123 88.5702L288.877 90.2027L295.408 95.1828L296.653 93.5503L295.02 92.3052L298.755 87.4077L299.571 88.0302L298.326 89.6627L299.959 90.9077L304.939 84.3776L303.306 83.1326L302.061 84.7651Z" fill="white"/>
</g>
<g opacity="0.3" clip-path="url(#clip21_637_2540)">
<path d="M204.326 10.5926L210.635 34.137L191.618 39.2325C190.898 39.4256 190.13 39.3245 189.484 38.9515C188.838 38.5786 188.367 37.9643 188.174 37.2438C187.981 36.5233 188.082 35.7556 188.455 35.1096C188.828 34.4636 189.442 33.9922 190.162 33.7992L207.368 29.189L201.544 7.45562L183.433 12.3085C181.441 12.8423 180.248 14.9091 180.782 16.9013L186.605 38.6346C187.139 40.6268 189.206 41.8201 191.198 41.2863L212.931 35.4628L206.137 10.1073L204.326 10.5926Z" fill="white"/>
<path d="M190.649 35.6099L190.648 35.6104C190.407 35.6747 190.203 35.8319 190.078 36.0472C189.954 36.2625 189.92 36.5184 189.985 36.7586C190.049 36.9988 190.206 37.2035 190.422 37.3278C190.637 37.4522 190.893 37.4858 191.133 37.4215L208.337 32.8118L207.851 31.0007L190.649 35.6099Z" fill="white"/>
</g>
<g opacity="0.3" clip-path="url(#clip22_637_2540)">
<path d="M176.658 84.7663C175.758 84.9114 174.952 85.4082 174.418 86.1472C173.884 86.8863 173.666 87.8071 173.811 88.7072L175.502 99.1967C175.648 100.097 176.144 100.902 176.883 101.436C177.622 101.97 178.543 102.188 179.443 102.043L197.337 99.1582C198.237 99.0131 199.043 98.5164 199.577 97.7774C200.11 97.0383 200.329 96.1175 200.184 95.2174L198.492 84.7279C198.347 83.8278 197.851 83.0223 197.112 82.4884C196.373 81.9546 195.452 81.7362 194.552 81.8813L176.658 84.7663ZM180.199 104.77C180.16 104.525 180.219 104.274 180.365 104.072C180.511 103.87 180.73 103.735 180.976 103.695L196.402 101.208C196.647 101.169 196.898 101.228 197.1 101.374C197.301 101.519 197.437 101.739 197.476 101.985C197.516 102.23 197.456 102.481 197.311 102.683C197.165 102.884 196.945 103.02 196.7 103.059L181.274 105.546C181.029 105.586 180.778 105.526 180.576 105.381C180.374 105.235 180.239 105.016 180.199 104.77Z" fill="white"/>
</g>
<g opacity="0.3" clip-path="url(#clip23_637_2540)">
<path d="M281.88 13.8021L267.76 9.85551C267.007 9.64535 266.201 9.74282 265.52 10.1265C264.839 10.5102 264.337 11.1487 264.127 11.9018L258.82 30.8877C258.382 32.456 259.298 34.0819 260.866 34.5216L274.986 38.4681C275.739 38.6787 276.545 38.5814 277.227 38.1976C277.908 37.8139 278.409 37.1751 278.62 36.4219L283.927 17.4347C284.136 16.6815 284.038 15.8763 283.654 15.1953C283.271 14.5143 282.633 14.0129 281.881 13.8008L281.88 13.8021ZM276.985 31.7605L262.626 27.7471L265.751 16.5683L280.111 20.582L276.985 31.7605ZM268.156 8.89524L282.044 12.7772C282.222 12.8258 282.412 12.8024 282.573 12.712C282.734 12.6216 282.853 12.4714 282.904 12.294L283.931 8.62059C283.979 8.44254 283.956 8.25263 283.865 8.09179C283.775 7.93095 283.625 7.81205 283.448 7.76072L269.559 3.8788C269.381 3.83083 269.191 3.85455 269.031 3.94486C268.87 4.03518 268.751 4.18491 268.699 4.36192L267.672 8.03665C267.569 8.40732 267.785 8.79164 268.156 8.89524L268.158 8.89596L268.156 8.89524Z" fill="white"/>
</g>
<g opacity="0.3" clip-path="url(#clip24_637_2540)">
<path d="M366.962 145.385L353.462 141.523C352.742 141.317 351.969 141.406 351.314 141.769C350.66 142.133 350.176 142.741 349.97 143.461L344.777 161.614C344.348 163.113 345.216 164.676 346.715 165.106L360.215 168.968C360.936 169.174 361.708 169.085 362.363 168.722C363.018 168.358 363.502 167.749 363.708 167.029L368.901 148.876C369.105 148.156 369.016 147.384 368.652 146.729C368.289 146.075 367.681 145.591 366.962 145.384L366.962 145.385ZM362.169 162.555L348.44 158.628L351.498 147.94L365.227 151.868L362.169 162.555ZM353.846 140.605L367.125 144.404C367.295 144.452 367.477 144.43 367.632 144.345C367.786 144.259 367.901 144.116 367.951 143.946L368.956 140.434C369.003 140.264 368.982 140.082 368.896 139.927C368.81 139.773 368.667 139.658 368.498 139.608L355.219 135.809C355.049 135.762 354.867 135.784 354.713 135.869C354.558 135.955 354.443 136.098 354.393 136.267L353.388 139.78C353.286 140.135 353.491 140.504 353.846 140.605L353.848 140.606L353.846 140.605Z" fill="white"/>
</g>
<path opacity="0.3" d="M348.889 99.5015L345.856 100.662L345.665 100.163C343.659 94.9213 346.338 89.0258 351.64 86.9969L354.674 85.8362C359.976 83.8074 365.906 86.4093 367.911 91.6508L368.102 92.1503L365.069 93.311L364.878 92.8115C363.505 89.2252 359.448 87.4451 355.82 88.8331L352.787 89.9938C349.159 91.3819 347.326 95.4157 348.698 99.002L348.889 99.5015ZM344.351 105.819C343.928 104.714 344.492 103.474 345.609 103.047L369.878 93.7613C370.997 93.3333 372.242 93.8804 372.665 94.9855C373.088 96.0906 372.526 97.3292 371.407 97.7572L371.085 97.8806L374.757 111.721C375.128 113.333 374.325 114.964 372.77 115.559L358.006 121.208C356.455 121.802 354.711 121.145 353.963 119.677L347.457 106.921L347.138 107.043C346.021 107.47 344.774 106.924 344.351 105.819Z" fill="white"/>
<circle opacity="0.3" cx="64" cy="73" r="2.5" stroke="white"/>
<circle opacity="0.3" cx="122" cy="55" r="2.5" stroke="white"/>
<circle opacity="0.3" cx="134.5" cy="115.5" r="2" stroke="white"/>
<circle opacity="0.3" cx="320" cy="31" r="2.5" stroke="white"/>
<circle opacity="0.3" cx="11" cy="33" r="3.5" stroke="white"/>
<circle opacity="0.3" cx="2" cy="156" r="3.5" stroke="white"/>
<circle opacity="0.3" cx="207" cy="73" r="2.5" stroke="white"/>
<circle opacity="0.3" cx="224" cy="17" r="2.5" stroke="white"/>
<circle opacity="0.3" cx="296" cy="108" r="2.5" stroke="white"/>
<circle opacity="0.3" cx="340" cy="144" r="2.5" stroke="white"/>
</g>
<defs>
<clipPath id="clip0_637_2540">
<rect width="23.067" height="23.067" fill="white" transform="translate(288 40.1191) rotate(-73.5181)"/>
</clipPath>
<clipPath id="clip1_637_2540">
<rect width="25.221" height="40.3535" fill="white" transform="translate(105 80.2444) rotate(-43.1362)"/>
</clipPath>
<clipPath id="clip2_637_2540">
<rect width="37.2724" height="59.6359" fill="white" transform="translate(309.841 93) rotate(14.4101)"/>
</clipPath>
<clipPath id="clip3_637_2540">
<rect width="27.479" height="43.9664" fill="white" transform="translate(55.9512 14) rotate(29.9518)"/>
</clipPath>
<clipPath id="clip4_637_2540">
<rect width="24.7128" height="24.7128" fill="white" transform="translate(13 15.3564) rotate(-30)"/>
</clipPath>
<clipPath id="clip5_637_2540">
<rect width="39.525" height="39.525" fill="white" transform="translate(150.528 33) rotate(33.0011)"/>
</clipPath>
<clipPath id="clip6_637_2540">
<rect width="36.053" height="36.053" fill="white" transform="translate(301.387 58.0679) rotate(-35.0036)"/>
</clipPath>
<clipPath id="clip7_637_2540">
<rect width="58.916" height="58.916" fill="white" transform="translate(14 117.977) rotate(-75.2596)"/>
</clipPath>
<clipPath id="clip8_637_2540">
<rect width="58.916" height="58.916" fill="white" transform="translate(323.775 63.5537) rotate(-93.9045)"/>
</clipPath>
<clipPath id="clip9_637_2540">
<rect width="24.4095" height="24.4095" fill="white" transform="translate(243 44.5554) rotate(-1.55337)"/>
</clipPath>
<clipPath id="clip10_637_2540">
<rect width="21" height="17" fill="white" transform="translate(148.4 12) rotate(15)"/>
</clipPath>
<clipPath id="clip11_637_2540">
<rect width="31.7896" height="25.4317" fill="white" transform="translate(73 54.5481) rotate(-25.2257)"/>
</clipPath>
<clipPath id="clip12_637_2540">
<rect width="21.3252" height="17.0601" fill="white" transform="translate(228 26.5679) rotate(-6.91651)"/>
</clipPath>
<clipPath id="clip13_637_2540">
<rect width="34.6465" height="34.6465" fill="white" transform="translate(7 139.967) rotate(-15)"/>
</clipPath>
<clipPath id="clip14_637_2540">
<rect width="18.0105" height="20.3345" fill="white" transform="translate(81.583 79) rotate(21.8956)"/>
</clipPath>
<clipPath id="clip15_637_2540">
<rect width="28.5957" height="32.2855" fill="white" transform="translate(104 14.4011) rotate(-15)"/>
</clipPath>
<clipPath id="clip16_637_2540">
<rect width="52.6711" height="52.6711" fill="white" transform="translate(235 78.2749) rotate(-5.74781)"/>
</clipPath>
<clipPath id="clip17_637_2540">
<rect width="17.4583" height="17.4583" fill="white" transform="translate(77 32.0654) rotate(-43.7182)"/>
</clipPath>
<clipPath id="clip18_637_2540">
<rect width="30" height="30" fill="white" transform="translate(149 102.614) rotate(-10.7849)"/>
</clipPath>
<clipPath id="clip19_637_2540">
<rect width="37.8387" height="37.8387" fill="white" transform="translate(215.375 42) rotate(22.3279)"/>
</clipPath>
<clipPath id="clip20_637_2540">
<rect width="24.6371" height="24.6371" fill="white" transform="translate(320.53 85.9402) rotate(127.33)"/>
</clipPath>
<clipPath id="clip21_637_2540">
<rect width="30" height="30" fill="white" transform="translate(178 13.7644) rotate(-15)"/>
</clipPath>
<clipPath id="clip22_637_2540">
<rect width="30" height="30" fill="white" transform="translate(170 80.7751) rotate(-9.15881)"/>
</clipPath>
<clipPath id="clip23_637_2540">
<rect width="19.9073" height="31.8517" fill="white" transform="translate(266.6 3.05176) rotate(15.6159)"/>
</clipPath>
<clipPath id="clip24_637_2540">
<rect width="19.066" height="30.5057" fill="white" transform="translate(352.39 135) rotate(15.9641)"/>
</clipPath>
</defs>
</svg>
