<svg width="16" height="14" viewBox="0 0 16 14" fill="none" xmlns="http://www.w3.org/2000/svg">
<path d="M7.79167 2.86875C9.74667 2.86875 11.3333 4.45542 11.3333 6.41042C11.3333 6.77167 11.2625 7.11875 11.1633 7.44458L13.3308 9.61208C14.3154 8.74083 15.0946 7.65 15.5833 6.40333C14.3579 3.30083 11.3333 1.09792 7.79167 1.09792C6.89208 1.09792 6.02792 1.23958 5.21333 1.50167L6.75042 3.03875C7.08333 2.93958 7.43042 2.86875 7.79167 2.86875ZM1.71417 0L0.715417 1.00583L2.61375 2.90417C1.44523 3.81874 0.54276 5.02937 0 6.41042C1.22542 9.52 4.25 11.7229 7.79167 11.7229C8.86833 11.7229 9.89542 11.5104 10.8446 11.1421L13.2742 13.5717L14.2729 12.5729L1.71417 0ZM7.79167 9.95208C5.83667 9.95208 4.25 8.36542 4.25 6.41042C4.25 5.865 4.3775 5.34792 4.59708 4.89458L5.70917 6.00667C5.68792 6.13417 5.66667 6.26875 5.66667 6.41042C5.66667 7.58625 6.61583 8.53542 7.79167 8.53542C7.93333 8.53542 8.06083 8.51417 8.19542 8.48583L9.3075 9.59792C8.84708 9.82458 8.33708 9.95208 7.79167 9.95208ZM9.89542 6.17667C9.84463 5.69809 9.63129 5.2514 9.29099 4.91109C8.95069 4.57079 8.50399 4.35745 8.02542 4.30667L9.89542 6.17667Z" fill="#D9D9D9"/>
</svg>
