<svg width="276" height="174" viewBox="0 0 276 174" fill="none" xmlns="http://www.w3.org/2000/svg">
<path d="M36.3386 1.36035H8.23193V30.66H36.3386V1.36035Z" fill="#E0E0E0"/>
<path d="M34.4348 1.36035H6.32812V30.66H34.4348V1.36035Z" fill="#F5F5F5"/>
<path d="M34.4431 30.6682H6.34051V1.33594H34.4636L34.4431 30.6682ZM6.33643 30.6682H34.4227V1.36862H6.34051L6.33643 30.6682Z" fill="#E0E0E0"/>
<path d="M30.6559 5.29858H10.1069V26.7177H30.6559V5.29858Z" fill="white"/>
<path d="M10.107 26.8647C9.96278 27.0784 9.79565 27.2757 9.60855 27.453C9.28173 27.8003 8.8201 28.2701 8.30535 28.7767C7.79061 29.2832 7.31263 29.7408 6.96129 30.0635C6.77275 30.2502 6.56455 30.416 6.34033 30.5578C6.48223 30.3412 6.65108 30.1436 6.84282 29.9696C7.17373 29.6223 7.63536 29.1525 8.15419 28.6418C8.67302 28.1312 9.14692 27.6777 9.49825 27.355C9.67933 27.1662 9.88391 27.0014 10.107 26.8647Z" fill="#E0E0E0"/>
<path d="M30.6558 26.8118C30.8765 26.9563 31.0794 27.1263 31.2604 27.3183C31.6076 27.6452 32.0774 28.1068 32.584 28.6215C33.0906 29.1363 33.5481 29.6143 33.8709 29.9656C34.0574 30.1438 34.2232 30.3426 34.3652 30.558C34.1486 30.4161 33.9509 30.2472 33.7769 30.0555C33.4297 29.7287 32.9599 29.267 32.4492 28.7482C31.9385 28.2294 31.4851 27.7514 31.1623 27.4C30.9685 27.2269 30.7982 27.0291 30.6558 26.8118Z" fill="#E0E0E0"/>
<path d="M30.5986 5.35593C30.7446 5.14122 30.9145 4.94385 31.1052 4.76765C31.432 4.4204 31.8937 3.9506 32.4125 3.44402C32.9313 2.93745 33.4052 2.4799 33.7525 2.15716C33.9304 1.96874 34.1307 1.80274 34.3489 1.66284C34.2033 1.87784 34.0333 2.07525 33.8423 2.25112C33.5155 2.59837 33.0539 3.06818 32.5351 3.57884C32.0162 4.0895 31.5382 4.54296 31.191 4.8657C31.015 5.0534 30.8159 5.21811 30.5986 5.35593Z" fill="#E0E0E0"/>
<path d="M10.0498 5.42123C9.8341 5.27653 9.63659 5.10646 9.46148 4.91466C9.11423 4.58783 8.64443 4.1262 8.13377 3.60737C7.62311 3.08854 7.15739 2.60239 6.85099 2.25514C6.6553 2.07963 6.4836 1.87909 6.34033 1.65869C6.55947 1.79897 6.76108 1.96492 6.94087 2.15301C7.28812 2.47983 7.75792 2.94147 8.26858 3.4603C8.77924 3.97913 9.23679 4.45711 9.55544 4.80435C9.74506 4.98878 9.9111 5.19598 10.0498 5.42123Z" fill="#E0E0E0"/>
<path d="M30.5987 26.7218C30.5987 26.7218 30.5987 26.685 30.5987 26.6156C30.5987 26.5461 30.5987 26.444 30.5987 26.3174C30.5987 26.0477 30.5987 25.6637 30.5987 25.1612C30.5987 24.1481 30.5987 22.6692 30.5742 20.7941C30.5742 17.0438 30.5742 11.7002 30.5374 5.29862L30.6151 5.38032H10.1233L10.2132 5.29045C10.2132 13.1546 10.2132 20.5081 10.2132 26.7136L10.1356 26.636L24.9733 26.6728H29.1403H30.2433H30.5293C30.5618 26.6685 30.5948 26.6685 30.6273 26.6728H30.2596H29.173H25.0223L10.1356 26.7136H10.0171V26.636C10.0171 20.5367 10.0171 13.1832 10.0171 5.29862V5.20874H10.1111H30.6028H30.6804V5.28636C30.6804 11.7084 30.6518 17.0683 30.6437 20.8349C30.6437 22.7019 30.6437 24.1726 30.6191 25.1817C30.6191 25.676 30.6191 26.0559 30.6191 26.3215C30.6191 26.4481 30.6191 26.5421 30.6191 26.6115C30.6147 26.6487 30.6078 26.6855 30.5987 26.7218Z" fill="#E0E0E0"/>
<path d="M23.8048 12.5828H16.9497V19.4379H23.8048V12.5828Z" fill="#E0E0E0"/>
<path d="M28.2663 114.543C28.2663 114.6 24.7203 114.645 20.3491 114.645C15.9778 114.645 12.4277 114.6 12.4277 114.543C12.4277 114.486 15.9738 114.441 20.3491 114.441C24.7244 114.441 28.2663 114.498 28.2663 114.543Z" fill="#FAFAFA"/>
<path d="M28.0251 116.48C28.0251 116.533 24.7038 116.578 20.6021 116.578C16.5005 116.578 13.1792 116.533 13.1792 116.48C13.1792 116.426 16.5005 116.377 20.6021 116.377C24.7038 116.377 28.0251 116.422 28.0251 116.48Z" fill="#FAFAFA"/>
<path d="M15.2911 109.404C15.4218 111.056 15.4218 112.715 15.2911 114.367C15.1549 112.716 15.1549 111.056 15.2911 109.404Z" fill="#FAFAFA"/>
<path d="M21.0474 109.404C21.1836 111.114 21.1836 112.833 21.0474 114.543C20.9113 112.833 20.9113 111.114 21.0474 109.404Z" fill="#FAFAFA"/>
<path d="M26.4769 109.363C26.5793 110.232 26.6134 111.107 26.579 111.981C26.6134 112.856 26.5793 113.731 26.4769 114.6C26.3745 113.731 26.3404 112.856 26.3748 111.981C26.3404 111.107 26.3745 110.232 26.4769 109.363Z" fill="#FAFAFA"/>
<path d="M29.6715 109.404C29.6715 109.461 25.5126 109.506 20.3815 109.506C15.2504 109.506 11.0957 109.461 11.0957 109.404C11.0957 109.347 15.2504 109.306 20.3815 109.306C25.5126 109.306 29.6715 109.351 29.6715 109.404Z" fill="#FAFAFA"/>
<path d="M271.667 56.8916H244.34V85.3741H271.667V56.8916Z" fill="#E0E0E0"/>
<path d="M269.816 56.8916H242.49V85.3741H269.816V56.8916Z" fill="#F5F5F5"/>
<path d="M269.841 85.3865H242.47V56.8958H269.841V85.3865ZM242.519 85.3865H269.825V56.8958H242.502L242.519 85.3865Z" fill="#E0E0E0"/>
<path d="M266.144 60.7236H246.167V81.5504H266.144V60.7236Z" fill="white"/>
<path d="M246.167 81.6851C246.023 81.8943 245.857 82.0875 245.672 82.2611C245.354 82.5961 244.904 83.0536 244.402 83.5479C243.899 84.0423 243.438 84.4835 243.099 84.798C242.924 84.9786 242.729 85.1389 242.519 85.276C242.66 85.0685 242.824 84.878 243.009 84.7082C243.327 84.3691 243.777 83.8911 244.283 83.4172C244.79 82.9433 245.248 82.4776 245.591 82.163C245.764 81.9822 245.957 81.8218 246.167 81.6851Z" fill="#E0E0E0"/>
<path d="M266.164 81.6362C266.373 81.7765 266.565 81.9411 266.736 82.1265C267.075 82.4492 267.529 82.8945 268.023 83.397C268.517 83.8995 268.962 84.3611 269.273 84.7043C269.456 84.8767 269.618 85.07 269.755 85.2803C269.547 85.1387 269.355 84.9743 269.183 84.7901C268.848 84.4714 268.391 84.022 267.892 83.5195C267.394 83.0171 266.957 82.5513 266.642 82.2082C266.459 82.0388 266.298 81.8466 266.164 81.6362Z" fill="#E0E0E0"/>
<path d="M266.09 60.7767C266.231 60.5674 266.395 60.3755 266.581 60.2048C266.899 59.8698 267.349 59.4123 267.851 58.9179C268.354 58.4236 268.815 57.9824 269.158 57.6679C269.331 57.4851 269.524 57.3233 269.734 57.1858C269.595 57.3961 269.431 57.5882 269.244 57.7577C268.926 58.0927 268.476 58.5503 267.97 59.0487C267.463 59.5471 267.005 59.9842 266.662 60.2988C266.492 60.4808 266.3 60.6413 266.09 60.7767Z" fill="#E0E0E0"/>
<path d="M246.11 60.8298C245.901 60.6871 245.709 60.5212 245.538 60.3355C245.199 60.0168 244.745 59.5674 244.251 59.065C243.756 58.5625 243.315 58.1008 243.001 57.7617C242.817 57.5886 242.655 57.3938 242.519 57.1816C242.728 57.3219 242.92 57.4865 243.091 57.6719C243.425 57.9946 243.883 58.444 244.381 58.9465C244.88 59.449 245.317 59.9147 245.632 60.2538C245.815 60.424 245.976 60.6177 246.11 60.8298Z" fill="#E0E0E0"/>
<path d="M266.091 81.5463C266.087 81.5137 266.087 81.4809 266.091 81.4483C266.091 81.3747 266.091 81.2808 266.091 81.1541C266.091 80.8968 266.091 80.5209 266.091 80.0307C266.091 79.0461 266.091 77.6081 266.091 75.7861C266.091 72.1379 266.07 66.9455 266.054 60.7237L266.132 60.8013H246.208L246.293 60.7155C246.293 68.359 246.293 75.5083 246.293 81.5504L246.22 81.4769L260.645 81.5136L264.698 81.5341H265.768H264.71H260.678L246.204 81.5749H246.126V81.4973C246.126 75.4674 246.126 68.3182 246.126 60.6624V60.5725H246.216H266.14H266.164V60.6501C266.164 66.8924 266.136 72.0889 266.127 75.7657C266.127 77.5836 266.127 79.0134 266.127 79.9939C266.127 80.476 266.127 80.8477 266.127 81.1051C266.127 81.2236 266.127 81.3175 266.127 81.387C266.127 81.4564 266.091 81.5504 266.091 81.5463Z" fill="#E0E0E0"/>
<path d="M259.488 67.8035H252.821V74.4706H259.488V67.8035Z" fill="#E0E0E0"/>
<path d="M174.458 156.221V169.143H193.352H214.195V156.221H174.458Z" fill="#F5F5F5"/>
<path d="M172.791 152.61V156.221H215.588V152.61H193.352H172.791Z" fill="#E0E0E0"/>
<path d="M194.19 169.143H214.195V156.221H215.588V152.61H193.352V155.886L194.19 169.143Z" fill="#E0E0E0"/>
<path d="M188.074 158.304H180.014V160.249H188.074V158.304Z" fill="#E0E0E0"/>
<path d="M189.324 162.684H178.976V166.79H189.324V162.684Z" fill="white"/>
<path d="M180.569 139.704V152.626H199.468H220.311V139.704H180.569Z" fill="#F5F5F5"/>
<path d="M178.902 136.089V139.704H221.7V136.089H199.468H178.902Z" fill="#EBEBEB"/>
<path d="M200.301 152.626H220.311V139.704H221.7V136.089H199.468V139.369L200.301 152.626Z" fill="#EBEBEB"/>
<path d="M194.19 141.788H186.129V143.732H194.19V141.788Z" fill="#E0E0E0"/>
<path d="M195.44 146.163H185.092V150.269H195.44V146.163Z" fill="white"/>
<path d="M270.793 122.669C270.793 122.726 210.167 122.775 135.402 122.775C60.6378 122.775 0 122.722 0 122.669C0 122.616 60.6092 122.562 135.402 122.562C210.196 122.562 270.793 122.607 270.793 122.669Z" fill="#263238"/>
<path d="M225.646 0.106201H56.3727C53.0853 0.106201 50.4204 2.77111 50.4204 6.05845V113.967C50.4204 117.254 53.0853 119.919 56.3727 119.919H225.646C228.933 119.919 231.598 117.254 231.598 113.967V6.05845C231.598 2.77111 228.933 0.106201 225.646 0.106201Z" fill="#E0E0E0"/>
<path d="M225.646 119.919L226.034 119.895C226.192 119.89 226.349 119.872 226.504 119.842C226.724 119.815 226.941 119.77 227.153 119.707C227.763 119.554 228.342 119.298 228.865 118.951C229.594 118.481 230.21 117.854 230.667 117.117C230.941 116.681 231.159 116.213 231.316 115.724C231.476 115.168 231.561 114.594 231.57 114.016C231.57 112.79 231.57 111.471 231.57 110.029C231.57 107.149 231.57 103.823 231.57 100.081C231.57 85.1086 231.57 63.4403 231.537 36.6694C231.537 29.9778 231.537 22.9742 231.537 15.6589V7.2963C231.594 6.36068 231.522 5.42161 231.32 4.50606C231.069 3.59171 230.599 2.75205 229.951 2.05905C229.304 1.36604 228.498 0.840342 227.603 0.527001C227.378 0.447411 227.149 0.381919 226.916 0.330908C226.684 0.281885 226.447 0.249202 226.21 0.220605C225.732 0.187923 225.246 0.192008 224.755 0.196093H221.798H171.549H56.393C55.1327 0.19791 53.9064 0.605254 52.8956 1.35789C51.8847 2.11052 51.1429 3.16848 50.7798 4.37533C50.6081 4.97552 50.5255 5.59768 50.5347 6.22188V26.9383C50.5347 36.8873 50.5347 46.6811 50.5347 56.3196C50.5347 75.5858 50.5347 94.1656 50.5347 111.879V113.513C50.5192 114.061 50.5603 114.609 50.6572 115.148C50.8833 116.208 51.3963 117.186 52.1402 117.975C52.5091 118.366 52.9313 118.702 53.3944 118.975C53.6235 119.113 53.8609 119.235 54.1052 119.343C54.3527 119.444 54.6065 119.529 54.8651 119.596C55.8945 119.899 56.9853 119.784 58.0638 119.805H95.2194H139.009L202.413 119.842L219.653 119.862H224.147H225.67H224.147H219.653L202.413 119.882L139.009 119.915H95.2194H70.8221H56.4297C55.8779 119.918 55.3283 119.847 54.7956 119.703C54.5291 119.632 54.2671 119.544 54.0112 119.441C53.7591 119.327 53.5136 119.199 53.2759 119.057C52.7985 118.776 52.3638 118.428 51.9849 118.024C51.6007 117.622 51.2748 117.168 51.0167 116.675C50.7608 116.179 50.5699 115.652 50.4489 115.107C50.3498 114.557 50.3074 113.998 50.3222 113.44V111.806C50.3222 94.1043 50.3222 75.5245 50.3222 56.2461V6.23822C50.3105 5.59317 50.3959 4.95004 50.5755 4.33039C50.9518 3.0797 51.7207 1.98334 52.7683 1.20346C53.816 0.423593 55.0869 0.0016328 56.393 0H171.549H221.798H224.735C225.225 0 225.707 -1.24794e-07 226.202 0.0285968C226.447 0.0530761 226.691 0.0898903 226.933 0.138899C228.006 0.38004 228.994 0.907303 229.792 1.66471C230.589 2.42211 231.167 3.38139 231.463 4.44069L231.553 4.78794C231.578 4.90642 231.59 5.02489 231.61 5.14336C231.648 5.37991 231.67 5.61877 231.676 5.85829C231.676 6.33626 231.676 6.80607 231.676 7.27588V10.0825C231.676 11.9453 231.676 13.7905 231.676 15.618C231.676 22.9252 231.676 29.9287 231.676 36.6286C231.676 63.3994 231.647 85.0677 231.639 100.04C231.639 103.782 231.639 107.108 231.639 109.988C231.639 111.43 231.639 112.762 231.639 113.975C231.63 114.559 231.542 115.139 231.378 115.699C231.221 116.198 231 116.675 230.72 117.117C230.258 117.859 229.635 118.489 228.898 118.959C228.371 119.304 227.789 119.557 227.178 119.707C226.964 119.768 226.745 119.812 226.524 119.837C226.368 119.866 226.209 119.881 226.05 119.882L225.646 119.919Z" fill="#263238"/>
<path d="M232.362 122.669H50.6085C48.6806 122.668 46.8321 121.901 45.4692 120.537C44.1064 119.174 43.3408 117.325 43.3408 115.397V112.186H239.634V115.397C239.634 117.325 238.868 119.175 237.504 120.539C236.141 121.902 234.291 122.669 232.362 122.669Z" fill="#E0E0E0"/>
<path d="M232.362 122.669H232.599C232.833 122.66 233.066 122.64 233.298 122.607L233.817 122.526L234.434 122.366C234.658 122.301 234.887 122.203 235.14 122.113C235.394 122.023 235.651 121.88 235.917 121.729C236.516 121.387 237.065 120.965 237.551 120.475C238.826 119.157 239.556 117.406 239.593 115.573C239.593 114.523 239.593 113.395 239.593 112.198L239.634 112.235L50.6208 112.304H43.3408L43.447 112.198V114.751C43.4047 115.592 43.4873 116.435 43.6921 117.252C44.1236 118.877 45.1146 120.297 46.4905 121.263C47.864 122.214 49.5171 122.676 51.1845 122.575H112.737L175.128 122.599L217.035 122.632L228.404 122.652H231.357H232.362H231.357H228.404H217.035L175.128 122.685L112.737 122.709H51.1845C49.4855 122.833 47.7937 122.388 46.3762 121.443C44.9668 120.444 43.9544 118.98 43.5165 117.309C43.3081 116.475 43.2228 115.614 43.2632 114.755V112.096H50.6494L239.663 112.161H239.7V112.202C239.7 113.399 239.7 114.523 239.7 115.581C239.638 117.428 238.875 119.182 237.567 120.487C237.081 120.978 236.532 121.401 235.933 121.745C235.663 121.897 235.398 122.011 235.153 122.125C234.908 122.24 234.662 122.313 234.438 122.375L233.817 122.53L233.298 122.607C233.065 122.639 232.83 122.655 232.595 122.656L232.362 122.669Z" fill="#263238"/>
<path d="M123.15 112.182L125.585 116.054H159.861L162.12 112.182H123.15Z" fill="#263238"/>
<path d="M219.596 8.29321H62.268C60.3547 8.29321 58.8037 9.84424 58.8037 11.7575V102.259C58.8037 104.172 60.3547 105.723 62.268 105.723H219.596C221.509 105.723 223.06 104.172 223.06 102.259V11.7575C223.06 9.84424 221.509 8.29321 219.596 8.29321Z" fill="#455A64"/>
<path d="M219.522 105.723C219.968 105.714 220.408 105.625 220.822 105.461C221.331 105.258 221.786 104.938 222.149 104.526C222.652 103.956 222.959 103.24 223.023 102.483C223.048 99.0433 223.023 93.9572 223.023 87.4125C223.023 74.3397 223.023 55.384 222.987 31.9835C222.987 26.1334 222.987 20.0055 222.987 13.5998V12.415C223.005 12.0178 222.986 11.6198 222.93 11.2262C222.791 10.4394 222.382 9.72571 221.773 9.20809C221.159 8.69032 220.383 8.40159 219.58 8.39104H206.952H163.019H62.3536C61.8114 8.3913 61.2769 8.51944 60.7935 8.76504C60.3101 9.01064 59.8915 9.36678 59.5716 9.80454C59.2502 10.2404 59.0399 10.748 58.9588 11.2834C58.9099 11.8267 58.8935 12.3723 58.9097 12.9175V58.3948C58.9097 66.8159 58.9097 75.0804 58.9097 83.1884V95.2072C58.9097 97.1845 58.9097 99.1577 58.9097 101.115C58.9097 101.601 58.9098 102.103 58.9343 102.569C59.0134 103.278 59.3116 103.946 59.7875 104.478C60.2634 105.01 60.8933 105.381 61.5897 105.539C62.0588 105.621 62.5358 105.65 63.0114 105.625H105.498H143.777L199.206 105.657L214.277 105.678H218.195H219.531H218.195H214.277L199.206 105.698L143.777 105.731H105.498H63.0114C62.5219 105.756 62.0311 105.725 61.5488 105.637C60.8129 105.47 60.1471 105.078 59.6436 104.516C59.14 103.954 58.8236 103.249 58.7382 102.499C58.6932 101.993 58.7382 101.515 58.7137 101.025V95.2072C58.7137 91.2445 58.7137 87.2382 58.7137 83.1884V58.3948C58.7137 49.9764 58.7137 41.4151 58.7137 32.7107V12.938C58.6956 12.3778 58.712 11.8171 58.7627 11.2589C58.8495 10.6893 59.0739 10.1495 59.4163 9.68607C59.7554 9.22083 60.1998 8.84245 60.7132 8.58187C61.2265 8.32129 61.7943 8.1859 62.37 8.18677H163.035H206.968H219.592C220.433 8.1985 221.244 8.50307 221.886 9.0481C222.527 9.59312 222.958 10.3445 223.105 11.1731C223.161 11.5791 223.18 11.9893 223.162 12.3987V13.5998C223.162 19.9837 223.162 26.1116 223.162 31.9835C223.162 55.384 223.138 74.3233 223.13 87.4125C223.13 93.949 223.13 99.0392 223.093 102.487C223.036 103.145 222.796 103.773 222.401 104.302C222.007 104.831 221.472 105.24 220.858 105.482C220.547 105.603 220.219 105.68 219.886 105.71L219.522 105.723Z" fill="#263238"/>
<path d="M119.707 32.4086V33.3441H115.826V28.2988H119.633V29.2344H116.986V30.3415H119.323V31.2484H116.986V32.4127L119.707 32.4086Z" fill="white"/>
<path d="M124.511 31.1298V33.344H123.388V31.3014C123.388 30.6763 123.102 30.3863 122.603 30.3863C122.105 30.3863 121.676 30.7172 121.676 31.428V33.344H120.557V29.4752H121.627V29.9328C121.793 29.763 121.992 29.6298 122.212 29.5418C122.432 29.4538 122.669 29.4131 122.906 29.4221C123.821 29.414 124.511 29.9328 124.511 31.1298Z" fill="white"/>
<path d="M128.021 33.1562C127.749 33.3287 127.431 33.4142 127.11 33.4013C126.194 33.4013 125.663 32.9356 125.663 32.0123V30.4231H125.067V29.5611H125.663V28.6174H126.783V29.5611H127.747V30.4231H126.783V32C126.774 32.0671 126.78 32.1352 126.801 32.1994C126.822 32.2637 126.857 32.3224 126.904 32.3714C126.951 32.4203 127.007 32.4582 127.071 32.4823C127.134 32.5065 127.201 32.5161 127.269 32.5107C127.431 32.5116 127.588 32.46 127.718 32.3636L128.021 33.1562Z" fill="white"/>
<path d="M132.302 31.7263H129.377C129.437 31.9675 129.582 32.1789 129.785 32.3216C129.989 32.4643 130.237 32.5285 130.484 32.5025C130.663 32.5096 130.841 32.4798 131.007 32.4152C131.174 32.3505 131.325 32.2523 131.452 32.1266L132.053 32.7762C131.848 32.99 131.599 33.1566 131.323 33.2645C131.047 33.3724 130.751 33.4191 130.455 33.4012C129.115 33.4012 128.245 32.5597 128.245 31.4076C128.242 31.1391 128.294 30.8727 128.397 30.6248C128.501 30.377 128.654 30.1529 128.847 29.9662C129.04 29.7796 129.27 29.6343 129.521 29.5394C129.772 29.4444 130.04 29.4018 130.308 29.414C130.576 29.3999 130.844 29.4423 131.094 29.5383C131.345 29.6342 131.572 29.7817 131.762 29.9712C131.952 30.1606 132.1 30.3879 132.197 30.6381C132.293 30.8884 132.336 31.1561 132.322 31.424C132.322 31.5098 132.31 31.6323 132.302 31.7263ZM129.361 31.0685H131.268C131.241 30.8379 131.128 30.626 130.952 30.4747C130.775 30.3234 130.549 30.2437 130.316 30.2515C130.083 30.2397 129.854 30.3179 129.676 30.4698C129.498 30.6218 129.385 30.836 129.361 31.0685Z" fill="white"/>
<path d="M135.476 29.4139V30.4515C135.382 30.4515 135.308 30.4515 135.223 30.4515C135.08 30.4385 134.936 30.4579 134.802 30.5082C134.668 30.5585 134.546 30.6385 134.447 30.7422C134.348 30.8459 134.274 30.9706 134.23 31.107C134.186 31.2435 134.173 31.3881 134.193 31.5301V33.3562H133.074V29.4874H134.144V29.9981C134.302 29.7999 134.506 29.6431 134.738 29.5414C134.97 29.4396 135.223 29.3958 135.476 29.4139Z" fill="white"/>
<path d="M140.705 31.567V33.3523H139.541V31.567L137.592 28.2988H138.818L140.166 30.5376L141.51 28.2988H142.654L140.705 31.567Z" fill="white"/>
<path d="M142.351 31.4076C142.323 30.9811 142.424 30.5559 142.641 30.1875C142.858 29.819 143.18 29.5242 143.567 29.3413C143.953 29.1584 144.386 29.0958 144.808 29.1617C145.23 29.2277 145.623 29.419 145.936 29.711C146.248 30.0029 146.465 30.382 146.559 30.799C146.654 31.216 146.62 31.6516 146.464 32.0495C146.307 32.4473 146.035 32.7889 145.682 33.0299C145.329 33.271 144.911 33.4004 144.484 33.4013C144.21 33.4203 143.936 33.3829 143.678 33.2913C143.42 33.1997 143.183 33.0559 142.983 32.8688C142.783 32.6818 142.624 32.4555 142.515 32.2041C142.406 31.9527 142.351 31.6816 142.351 31.4076ZM145.468 31.4076C145.452 31.2152 145.381 31.0316 145.262 30.8793C145.143 30.727 144.983 30.6126 144.8 30.5501C144.618 30.4876 144.421 30.4797 144.234 30.5274C144.047 30.5751 143.877 30.6763 143.747 30.8187C143.617 30.961 143.53 31.1383 143.499 31.3288C143.468 31.5193 143.493 31.7148 143.571 31.8914C143.649 32.0679 143.777 32.2178 143.939 32.3227C144.102 32.4276 144.291 32.483 144.484 32.4821C144.621 32.4839 144.758 32.4567 144.884 32.4021C145.01 32.3475 145.124 32.2669 145.217 32.1654C145.31 32.064 145.38 31.944 145.423 31.8134C145.467 31.6828 145.482 31.5445 145.468 31.4076Z" fill="white"/>
<path d="M151.253 29.4753V33.3441H150.187V32.8825C150.036 33.0505 149.851 33.1839 149.643 33.2734C149.436 33.363 149.212 33.4066 148.986 33.4013C148.014 33.4013 147.332 32.8539 147.332 31.661V29.4753H148.455V31.4935C148.455 32.143 148.741 32.429 149.239 32.429C149.738 32.429 150.13 32.0981 150.13 31.3873V29.4753H151.253Z" fill="white"/>
<path d="M154.698 29.4139V30.4515C154.604 30.4515 154.534 30.4515 154.448 30.4515C154.305 30.4377 154.161 30.4565 154.027 30.5066C153.892 30.5566 153.771 30.6366 153.671 30.7405C153.572 30.8444 153.498 30.9694 153.454 31.1062C153.41 31.243 153.398 31.3879 153.419 31.5301V33.3562H152.295V29.4874H153.366V29.9981C153.524 29.7999 153.727 29.6431 153.959 29.5414C154.191 29.4396 154.445 29.3958 154.698 29.4139Z" fill="white"/>
<path d="M157.193 30.8276C157.193 29.3283 158.358 28.2212 159.951 28.2212C161.544 28.2212 162.704 29.3242 162.704 30.8276C162.704 32.331 161.532 33.4299 159.951 33.4299C158.37 33.4299 157.193 32.3228 157.193 30.8276ZM161.524 30.8276C161.517 30.517 161.419 30.2152 161.242 29.9602C161.065 29.7051 160.816 29.5081 160.527 29.3939C160.238 29.2796 159.922 29.2533 159.618 29.3181C159.314 29.3829 159.036 29.536 158.819 29.7582C158.602 29.9804 158.456 30.2617 158.398 30.567C158.34 30.8722 158.374 31.1877 158.495 31.4739C158.615 31.76 158.818 32.0041 159.077 32.1755C159.336 32.3469 159.64 32.4379 159.951 32.4372C160.162 32.4425 160.372 32.4042 160.568 32.3247C160.763 32.2452 160.941 32.1262 161.088 31.9752C161.236 31.8241 161.351 31.6442 161.426 31.4468C161.5 31.2493 161.534 31.0386 161.524 30.8276Z" fill="white"/>
<path d="M164.555 29.2589H162.941V28.2988H167.329V29.2507H165.719V33.336H164.555V29.2589Z" fill="white"/>
<path d="M172.325 30.1372C172.325 31.2566 171.484 31.9551 170.135 31.9551H169.122V33.3441H167.958V28.2988H170.135C171.484 28.2988 172.325 29.0056 172.325 30.1372ZM171.145 30.1372C171.145 29.5816 170.785 29.2589 170.07 29.2589H169.122V31.0074H170.07C170.785 31.0074 171.145 30.6805 171.145 30.1372Z" fill="white"/>
<g opacity="0.2">
<path d="M107.557 43.7329H99.2439C98.0098 43.7329 97.0093 44.7334 97.0093 45.9676V58.9138C97.0093 60.148 98.0098 61.1484 99.2439 61.1484H107.557C108.792 61.1484 109.792 60.148 109.792 58.9138V45.9676C109.792 44.7334 108.792 43.7329 107.557 43.7329Z" fill="white"/>
</g>
<g opacity="0.2">
<path d="M123.641 43.7329H115.327C114.093 43.7329 113.093 44.7334 113.093 45.9676V58.9138C113.093 60.148 114.093 61.1484 115.327 61.1484H123.641C124.875 61.1484 125.876 60.148 125.876 58.9138V45.9676C125.876 44.7334 124.875 43.7329 123.641 43.7329Z" fill="white"/>
</g>
<g opacity="0.2">
<path d="M139.729 43.7329H131.415C130.181 43.7329 129.181 44.7334 129.181 45.9676V58.9138C129.181 60.148 130.181 61.1484 131.415 61.1484H139.729C140.963 61.1484 141.963 60.148 141.963 58.9138V45.9676C141.963 44.7334 140.963 43.7329 139.729 43.7329Z" fill="white"/>
</g>
<g opacity="0.2">
<path d="M155.812 43.7329H147.499C146.265 43.7329 145.264 44.7334 145.264 45.9676V58.9138C145.264 60.148 146.265 61.1484 147.499 61.1484H155.812C157.047 61.1484 158.047 60.148 158.047 58.9138V45.9676C158.047 44.7334 157.047 43.7329 155.812 43.7329Z" fill="white"/>
</g>
<g opacity="0.2">
<path d="M171.896 43.7329H163.583C162.349 43.7329 161.348 44.7334 161.348 45.9676V58.9138C161.348 60.148 162.349 61.1484 163.583 61.1484H171.896C173.13 61.1484 174.131 60.148 174.131 58.9138V45.9676C174.131 44.7334 173.13 43.7329 171.896 43.7329Z" fill="white"/>
</g>
<g opacity="0.2">
<path d="M187.98 43.7329H179.666C178.432 43.7329 177.432 44.7334 177.432 45.9676V58.9138C177.432 60.148 178.432 61.1484 179.666 61.1484H187.98C189.214 61.1484 190.214 60.148 190.214 58.9138V45.9676C190.214 44.7334 189.214 43.7329 187.98 43.7329Z" fill="white"/>
</g>
<path d="M104.734 52.5121L106.266 53.3292L105.58 54.4812L104.036 53.5661L104.06 55.2656H102.753V53.5539L101.209 54.4812L100.535 53.3292L102.063 52.5121L100.535 51.6706L101.209 50.5185L102.753 51.4459V49.7341H104.073L104.048 51.4459L105.592 50.5185L106.279 51.6706L104.734 52.5121Z" fill="#263238"/>
<path d="M158.407 71.8396H128.821C125.881 71.8396 123.498 74.2228 123.498 77.1627V78.2453C123.498 81.1852 125.881 83.5684 128.821 83.5684H158.407C161.347 83.5684 163.73 81.1852 163.73 78.2453V77.1627C163.73 74.2228 161.347 71.8396 158.407 71.8396Z" fill="#0FB7A6"/>
<path d="M132.371 77.4281C132.393 77.0722 132.519 76.7306 132.733 76.4456C132.947 76.1606 133.241 75.9446 133.576 75.8246C133.912 75.7046 134.276 75.6857 134.622 75.7703C134.968 75.8549 135.282 76.0393 135.525 76.3006L135.035 76.754C134.935 76.6342 134.81 76.5376 134.669 76.4713C134.528 76.4049 134.374 76.3704 134.218 76.37C133.937 76.37 133.668 76.4815 133.469 76.6799C133.271 76.8784 133.16 77.1475 133.16 77.4281C133.16 77.7087 133.271 77.9779 133.469 78.1763C133.668 78.3747 133.937 78.4862 134.218 78.4862C134.376 78.4832 134.531 78.4449 134.672 78.3743C134.814 78.3036 134.937 78.2023 135.035 78.0777L135.525 78.5311C135.284 78.794 134.97 78.98 134.624 79.066C134.278 79.1521 133.914 79.1343 133.578 79.015C133.241 78.8956 132.948 78.68 132.733 78.3949C132.519 78.1098 132.393 77.7679 132.371 77.4118V77.4281Z" fill="white"/>
<path d="M135.709 77.8083C135.691 77.528 135.758 77.2488 135.9 77.0068C136.043 76.7649 136.255 76.5714 136.509 76.4514C136.763 76.3314 137.047 76.2906 137.324 76.334C137.602 76.3775 137.86 76.5034 138.065 76.6953C138.27 76.8872 138.412 77.1363 138.474 77.4103C138.536 77.6842 138.514 77.9704 138.411 78.2318C138.308 78.4931 138.129 78.7175 137.897 78.8758C137.665 79.0341 137.391 79.1191 137.11 79.1196C136.931 79.132 136.75 79.1072 136.581 79.0468C136.411 78.9865 136.256 78.8918 136.124 78.7688C135.993 78.6458 135.888 78.497 135.817 78.3318C135.745 78.1665 135.709 77.9883 135.709 77.8083ZM137.752 77.8083C137.741 77.6814 137.694 77.5603 137.616 77.4599C137.538 77.3595 137.432 77.2841 137.312 77.2429C137.191 77.2017 137.061 77.1966 136.938 77.2282C136.815 77.2597 136.703 77.3266 136.617 77.4206C136.532 77.5146 136.475 77.6316 136.455 77.7572C136.435 77.8828 136.451 78.0117 136.503 78.1279C136.555 78.2441 136.64 78.3426 136.747 78.4114C136.854 78.4802 136.979 78.5162 137.106 78.515C137.197 78.5166 137.287 78.499 137.37 78.4633C137.454 78.4276 137.528 78.3745 137.59 78.3078C137.651 78.241 137.698 78.1619 137.726 78.0758C137.755 77.9897 137.765 77.8985 137.756 77.8083H137.752Z" fill="white"/>
<path d="M141.592 77.6243V79.0787H140.857V77.7305C140.857 77.322 140.665 77.13 140.342 77.13C140.019 77.13 139.729 77.3465 139.729 77.8163V79.0705H138.994V76.5295H139.696V76.8277C139.806 76.7165 139.937 76.6293 140.082 76.5716C140.227 76.514 140.382 76.4871 140.538 76.4927C140.686 76.4828 140.834 76.506 140.971 76.5605C141.109 76.615 141.233 76.6995 141.334 76.8079C141.435 76.9163 141.51 77.0458 141.555 77.187C141.6 77.3282 141.612 77.4776 141.592 77.6243Z" fill="white"/>
<path d="M143.896 78.9562C143.717 79.0708 143.507 79.1279 143.295 79.1196C143.17 79.137 143.042 79.1256 142.921 79.0862C142.8 79.0469 142.69 78.9806 142.599 78.8925C142.508 78.8044 142.438 78.6966 142.394 78.5774C142.35 78.4583 142.335 78.3307 142.347 78.2045V77.1628H141.939V76.5949H142.347V75.978H143.083V76.5949H143.716V77.1628H143.083V78.1963C143.077 78.2402 143.082 78.2848 143.095 78.3269C143.109 78.369 143.132 78.4074 143.163 78.4395C143.193 78.4716 143.23 78.4965 143.272 78.5123C143.313 78.5282 143.357 78.5347 143.401 78.5313C143.508 78.5322 143.613 78.4993 143.7 78.4374L143.896 78.9562Z" fill="white"/>
<path d="M144.223 75.7738C144.222 75.7158 144.234 75.6583 144.258 75.6052C144.281 75.5522 144.316 75.5047 144.359 75.4661C144.402 75.4274 144.453 75.3985 144.509 75.3811C144.564 75.3637 144.623 75.3583 144.68 75.3653C144.738 75.3583 144.796 75.3637 144.852 75.3811C144.907 75.3985 144.958 75.4274 145.001 75.4661C145.045 75.5047 145.079 75.5522 145.103 75.6052C145.126 75.6583 145.138 75.7158 145.138 75.7738C145.123 75.8846 145.068 75.9863 144.984 76.0599C144.9 76.1336 144.792 76.1741 144.68 76.1741C144.568 76.1741 144.46 76.1336 144.376 76.0599C144.292 75.9863 144.238 75.8846 144.223 75.7738ZM144.313 76.5377H145.048V79.0788H144.313V76.5377Z" fill="white"/>
<path d="M148.332 77.6244V79.0788H147.597V77.7306C147.597 77.3221 147.405 77.1301 147.082 77.1301C146.759 77.1301 146.469 77.3466 146.469 77.8164V79.0706H145.734V76.5295H146.437V76.8278C146.547 76.7183 146.68 76.633 146.825 76.5775C146.971 76.5219 147.127 76.4972 147.282 76.505C147.428 76.4961 147.575 76.5195 147.711 76.5736C147.847 76.6277 147.97 76.7112 148.07 76.818C148.17 76.9249 148.246 77.0526 148.291 77.192C148.336 77.3314 148.35 77.479 148.332 77.6244Z" fill="white"/>
<path d="M151.56 76.5376V79.0786H150.861V78.7763C150.762 78.8872 150.641 78.9753 150.505 79.0345C150.368 79.0938 150.221 79.1228 150.073 79.1195C149.922 79.1318 149.77 79.1102 149.629 79.0562C149.487 79.0022 149.36 78.9172 149.256 78.8075C149.151 78.6978 149.073 78.5661 149.026 78.4222C148.98 78.2782 148.966 78.1256 148.986 77.9756V76.5376H149.734V77.8653C149.734 78.2738 149.921 78.4822 150.248 78.4822C150.575 78.4822 150.837 78.2616 150.837 77.7959V76.5376H151.56Z" fill="white"/>
<path d="M154.722 78.0165H152.797C152.836 78.1753 152.931 78.3147 153.065 78.4086C153.199 78.5026 153.362 78.5447 153.525 78.5272C153.642 78.5314 153.759 78.5119 153.868 78.4697C153.978 78.4276 154.078 78.3638 154.162 78.2821L154.57 78.6906C154.371 78.8819 154.123 79.0137 153.853 79.0713C153.582 79.1289 153.302 79.1099 153.042 79.0164C152.782 78.923 152.553 78.7589 152.382 78.5425C152.21 78.3261 152.102 78.0661 152.07 77.7918C152.071 77.6186 152.107 77.4473 152.175 77.2882C152.244 77.129 152.343 76.9852 152.468 76.8652C152.593 76.7452 152.741 76.6515 152.903 76.5896C153.065 76.5277 153.237 76.4989 153.41 76.505C153.586 76.4956 153.762 76.5233 153.927 76.5862C154.091 76.6491 154.241 76.7459 154.366 76.8703C154.49 76.9947 154.588 77.1439 154.651 77.3083C154.715 77.4727 154.743 77.6485 154.734 77.8245C154.734 77.8776 154.726 77.9552 154.722 78.0165ZM152.789 77.608H154.039C154.021 77.4571 153.947 77.3187 153.831 77.2202C153.715 77.1218 153.566 77.0706 153.414 77.0769C153.265 77.0682 153.118 77.1159 153.002 77.2104C152.887 77.305 152.811 77.4396 152.789 77.5876V77.608Z" fill="white"/>
<path d="M144.619 4.23636C144.619 4.59367 144.513 4.94294 144.314 5.23997C144.116 5.537 143.833 5.76844 143.503 5.90499C143.173 6.04154 142.81 6.07706 142.459 6.00705C142.109 5.93705 141.787 5.76467 141.535 5.51173C141.282 5.25879 141.111 4.93666 141.042 4.58612C140.972 4.23558 141.009 3.87239 141.146 3.54252C141.283 3.21264 141.515 2.93091 141.813 2.73299C142.11 2.53507 142.46 2.42986 142.817 2.43067C143.054 2.43067 143.289 2.4774 143.507 2.5682C143.726 2.65899 143.925 2.79206 144.092 2.95979C144.26 3.12752 144.392 3.32661 144.483 3.54566C144.573 3.76471 144.619 3.99943 144.619 4.23636Z" fill="#263238"/>
<path d="M210.886 14.1801V12.4479C210.884 12.4012 210.891 12.3546 210.907 12.3106C210.923 12.2667 210.947 12.2263 210.979 12.1917C211.01 12.1572 211.048 12.1292 211.09 12.1094C211.133 12.0896 211.179 12.0783 211.225 12.0762H213.828C213.874 12.0783 213.92 12.0896 213.962 12.1094C214.005 12.1292 214.043 12.1572 214.074 12.1917C214.106 12.2263 214.13 12.2667 214.146 12.3106C214.162 12.3546 214.169 12.4012 214.167 12.4479V14.1801C214.169 14.2268 214.162 14.2734 214.146 14.3174C214.13 14.3614 214.106 14.4018 214.074 14.4363C214.043 14.4708 214.005 14.4988 213.962 14.5186C213.92 14.5385 213.874 14.5498 213.828 14.5518H211.225C211.179 14.5498 211.133 14.5385 211.09 14.5186C211.048 14.4988 211.01 14.4708 210.979 14.4363C210.947 14.4018 210.923 14.3614 210.907 14.3174C210.891 14.2734 210.884 14.2268 210.886 14.1801Z" fill="#263238"/>
<path d="M215.821 15.1399H210.682C210.56 15.1389 210.444 15.0897 210.358 15.0033C210.272 14.9168 210.224 14.8 210.224 14.6783V11.8472C210.224 11.7871 210.236 11.7276 210.259 11.6721C210.282 11.6166 210.316 11.5661 210.358 11.5237C210.401 11.4812 210.451 11.4475 210.507 11.4245C210.562 11.4015 210.622 11.3896 210.682 11.3896H215.747C215.856 11.3896 215.96 11.4327 216.036 11.5093C216.113 11.5859 216.156 11.6898 216.156 11.7982V12.3211C216.156 12.3384 216.163 12.3551 216.175 12.3673C216.187 12.3796 216.204 12.3865 216.221 12.3865H216.777C216.849 12.3865 216.919 12.4153 216.97 12.4666C217.022 12.518 217.051 12.5876 217.051 12.6602V13.5916C217.051 13.6815 217.015 13.7678 216.951 13.8314C216.888 13.895 216.801 13.9307 216.712 13.9307H216.303C216.285 13.9307 216.267 13.938 216.254 13.951C216.241 13.9641 216.234 13.9817 216.234 14.0001V14.7232C216.235 14.7779 216.225 14.8323 216.204 14.883C216.184 14.9338 216.154 14.98 216.115 15.0189C216.077 15.0577 216.031 15.0885 215.98 15.1093C215.93 15.1301 215.876 15.1405 215.821 15.1399ZM210.682 11.5939C210.614 11.5939 210.55 11.6206 210.503 11.6681C210.455 11.7156 210.428 11.78 210.428 11.8472V14.6783C210.428 14.7459 210.455 14.8107 210.502 14.8589C210.55 14.907 210.614 14.9346 210.682 14.9357H215.821C215.878 14.9346 215.932 14.9113 215.971 14.8708C216.011 14.8303 216.033 14.7759 216.033 14.7191V14.0001C216.033 13.9275 216.062 13.8579 216.114 13.8066C216.165 13.7553 216.235 13.7264 216.307 13.7264H216.716C216.751 13.7264 216.786 13.7122 216.811 13.6869C216.836 13.6617 216.85 13.6274 216.85 13.5916V12.6683C216.849 12.6502 216.842 12.6331 216.829 12.6203C216.816 12.6075 216.799 12.5999 216.781 12.5989H216.225C216.154 12.5978 216.086 12.5691 216.036 12.5188C215.986 12.4684 215.957 12.4004 215.956 12.3293V11.8063C215.956 11.7781 215.95 11.7501 215.939 11.7241C215.928 11.6981 215.912 11.6744 215.892 11.6547C215.872 11.6349 215.848 11.6193 215.822 11.6089C215.796 11.5985 215.767 11.5934 215.739 11.5939H210.682Z" fill="#263238"/>
<path d="M54.0034 63.3544C53.7832 62.6964 53.3685 62.1207 52.8141 61.7035C52.2598 61.2863 51.5918 61.0471 50.8986 61.0176C51.2581 60.0085 50.5677 58.8442 49.5872 58.4194C49.0842 58.2374 48.5485 58.1634 48.015 58.2021C47.4815 58.2408 46.9621 58.3914 46.4906 58.6441C45.8083 58.9668 45.171 59.4162 44.4479 59.5837C43.4797 59.8043 42.4788 59.4979 41.4902 59.4652C40.4756 59.4459 39.4752 59.7059 38.5984 60.2167C37.7216 60.7275 37.002 61.4695 36.5184 62.3617C36.1875 62.9867 35.9832 63.6771 35.6197 64.2858C35.3255 64.772 34.9415 65.1969 34.6514 65.6871C34.2465 66.4048 34.0622 67.226 34.1218 68.0479C34.1814 68.8697 34.4822 69.6558 34.9864 70.3075L48.9132 67.1088C49.4855 67.5047 50.1672 67.712 50.8631 67.7017C51.559 67.6915 52.2343 67.4643 52.7949 67.0518C53.3554 66.6393 53.7731 66.062 53.9898 65.4007C54.2064 64.7393 54.2112 64.0268 54.0034 63.3626V63.3544Z" fill="#263238"/>
<path d="M86.0854 114.633L72.6571 113.301L71.8809 120.275L87.0454 119.748L86.0854 114.633Z" fill="#FFBF9D"/>
<path d="M96.2865 118.718C96.201 118.839 96.0818 118.932 95.9438 118.986C95.8059 119.039 95.6551 119.051 95.5103 119.02C95.4481 119.004 95.3878 118.98 95.3306 118.951C94.9221 118.751 95.1059 117.897 95.1059 117.897L93.1368 117.251C93.1368 117.251 90.2444 118.526 89.1332 119.502C88.022 120.479 85.7833 119.192 85.7833 119.192L85.6362 114.755L89.8849 111.981C89.8849 111.981 89.6235 112.149 89.9789 111.573C90.3343 110.997 91.4659 111.405 91.4659 111.405C91.6988 111.123 92.4791 111.132 92.4791 111.132L95.6778 112.022C96.0038 112.113 96.3052 112.275 96.5598 112.498C96.8144 112.721 97.0156 112.998 97.1485 113.309L98.1821 115.707C98.1821 115.707 98.6642 117.394 98.4885 117.75C98.414 117.893 98.2896 118.003 98.139 118.06C97.9884 118.118 97.822 118.118 97.6715 118.06C97.6715 118.06 97.3446 119.065 97.0709 119.061C96.7944 119.003 96.5311 118.893 96.2947 118.738L96.2865 118.718Z" fill="#FFBF9D"/>
<path d="M89.9538 118.922C90.0308 118.89 90.1046 118.85 90.1744 118.804L90.7872 118.452C91.5567 118.026 92.3506 117.646 93.1648 117.313H93.1158L95.0808 117.974L95.0236 117.876C94.9933 118.042 94.9796 118.21 94.9827 118.379C94.981 118.563 95.0336 118.743 95.1339 118.898C95.1988 118.977 95.2854 119.035 95.3831 119.065C95.472 119.104 95.5679 119.125 95.665 119.126C95.8654 119.127 96.0594 119.056 96.2124 118.926C96.2508 118.894 96.2863 118.858 96.3186 118.82L96.3431 118.791L96.2165 118.816L96.2778 118.853C96.3567 118.903 96.4386 118.948 96.5229 118.988C96.6085 119.031 96.6973 119.068 96.7884 119.098C96.836 119.116 96.8853 119.13 96.9355 119.139C96.9982 119.157 97.0648 119.157 97.1275 119.139C97.2277 119.083 97.311 119.001 97.3685 118.902C97.4217 118.818 97.4695 118.73 97.5115 118.64C97.5959 118.461 97.6696 118.277 97.7321 118.089L97.6014 118.15C97.7332 118.202 97.8768 118.217 98.0165 118.193C98.1562 118.17 98.2867 118.108 98.3939 118.015C98.5047 117.915 98.5769 117.779 98.5982 117.631C98.613 117.496 98.613 117.359 98.5982 117.223C98.5261 116.702 98.4169 116.188 98.2714 115.683L97.7199 114.404L97.3726 113.587C97.2655 113.307 97.1285 113.04 96.9641 112.79C96.7897 112.547 96.5672 112.343 96.3105 112.19C96.0549 112.048 95.7795 111.946 95.4934 111.887L92.4744 111.07H92.4499C92.262 111.073 92.0747 111.092 91.8902 111.128C91.6932 111.154 91.5099 111.243 91.3673 111.381H91.4857C91.3321 111.278 91.1557 111.215 90.9719 111.197C90.7882 111.178 90.6028 111.205 90.4317 111.275C90.1277 111.43 89.8951 111.696 89.7822 112.018L89.8149 111.977L86.8857 113.877L86.0973 114.404C86.0027 114.463 85.9126 114.528 85.8276 114.6C85.9307 114.557 86.0292 114.503 86.1218 114.441L86.9388 113.95L89.9007 112.112V112.088C90.0017 111.808 90.2046 111.578 90.4685 111.442C90.6143 111.386 90.7713 111.367 90.9263 111.384C91.0813 111.402 91.2297 111.457 91.3591 111.544L91.4245 111.585L91.4776 111.528C91.5922 111.426 91.7344 111.361 91.8861 111.34C92.057 111.307 92.2308 111.29 92.4049 111.291L95.4158 112.141C95.6804 112.196 95.9352 112.291 96.1716 112.423C96.4031 112.563 96.6033 112.749 96.7598 112.97C96.9133 113.207 97.0394 113.46 97.1357 113.726C97.2542 113.995 97.3685 114.265 97.487 114.543L98.0385 115.821C98.1818 116.316 98.2897 116.819 98.3613 117.329C98.3733 117.447 98.3733 117.566 98.3613 117.684C98.3468 117.785 98.2977 117.877 98.2224 117.946C98.1426 118.013 98.0463 118.057 97.9436 118.074C97.8409 118.092 97.7354 118.081 97.6382 118.044L97.5401 118.011L97.5074 118.105C97.4508 118.286 97.3811 118.462 97.2991 118.632C97.2421 118.789 97.1466 118.93 97.0213 119.041C96.9928 119.044 96.964 119.044 96.9355 119.041L96.817 119.008C96.7353 118.979 96.6536 118.943 96.5719 118.906C96.4922 118.868 96.4144 118.825 96.339 118.779L96.2819 118.747L96.1552 118.771V118.796C96.1286 118.825 96.1 118.852 96.0694 118.877C95.9555 118.976 95.8113 119.032 95.6609 119.037C95.5851 119.036 95.5102 119.021 95.4403 118.992C95.3722 118.976 95.3116 118.937 95.2687 118.881C95.1339 118.61 95.102 118.3 95.1788 118.007V117.929L95.1094 117.909L93.1403 117.272H93.1158H93.0913C92.278 117.619 91.4891 118.02 90.73 118.473C90.4644 118.632 90.2642 118.763 90.1294 118.857C90.0694 118.875 90.0107 118.896 89.9538 118.922Z" fill="#FF9A6C"/>
<path d="M91.8374 112.631C92.1469 112.833 92.4821 112.992 92.8342 113.105C93.6898 113.427 94.5839 113.636 95.4937 113.726L95.3957 113.636C95.4284 113.807 95.457 113.983 95.5019 114.163C95.7338 115.177 96.1582 116.136 96.752 116.99C96.931 117.246 97.1276 117.489 97.3403 117.717C97.4914 117.88 97.5854 117.958 97.5976 117.95C97.6099 117.942 97.2953 117.562 96.8786 116.904C96.3363 116.046 95.9427 115.103 95.7143 114.114C95.6735 113.942 95.6408 113.767 95.6122 113.603V113.517H95.5305C94.6367 113.43 93.7548 113.248 92.8996 112.974C92.5524 112.839 92.1978 112.725 91.8374 112.631Z" fill="#FF9A6C"/>
<path d="M94.6318 115.017C94.7251 116.387 95.346 117.669 96.364 118.591C96.4171 118.546 95.8207 117.868 95.3468 116.88C94.8729 115.891 94.6972 115.004 94.6318 115.017Z" fill="#FF9A6C"/>
<path d="M85.3457 117.766C85.3457 117.766 85.3743 117.799 85.4397 117.844C85.5368 117.908 85.6378 117.967 85.742 118.019C86.1378 118.213 86.5656 118.332 87.0043 118.371C87.6781 118.432 88.3554 118.3 88.9571 117.991C89.7245 117.598 90.3322 116.951 90.677 116.161L90.5463 116.222C91.2996 116.493 92.0879 116.656 92.8871 116.704C93.1838 116.72 93.4811 116.72 93.7777 116.704C94.075 116.705 94.3704 116.656 94.652 116.561C94.8094 116.508 94.9418 116.399 95.0237 116.255C95.0583 116.18 95.078 116.1 95.0815 116.018C95.085 115.936 95.0723 115.854 95.0442 115.777C94.9862 115.624 94.8702 115.501 94.7214 115.433L94.3619 115.278C93.41 114.87 92.5317 114.571 91.7923 114.33C91.0528 114.089 90.44 113.922 90.0193 113.816C89.8026 113.748 89.5794 113.702 89.3534 113.681C89.5626 113.766 89.7768 113.838 89.9947 113.897C90.4033 114.028 91.0079 114.22 91.7432 114.478C92.4786 114.735 93.3406 115.062 94.2843 115.466L94.6397 115.621C94.7357 115.666 94.8104 115.747 94.8481 115.846C94.8688 115.896 94.8795 115.949 94.8795 116.003C94.8795 116.057 94.8688 116.111 94.8481 116.161C94.7879 116.259 94.6933 116.332 94.5825 116.365C94.3188 116.451 94.0427 116.492 93.7655 116.487C93.4795 116.487 93.1894 116.487 92.8953 116.487C92.1161 116.44 91.3474 116.283 90.6116 116.022L90.5177 115.989L90.4809 116.079C90.1529 116.834 89.5762 117.454 88.8468 117.836C88.2758 118.138 87.6332 118.279 86.988 118.244C86.5665 118.217 86.1524 118.12 85.7624 117.958C85.4928 117.852 85.3539 117.766 85.3457 117.766Z" fill="#FF9A6C"/>
<path d="M42.5279 97.3765C40.9345 97.3412 39.4183 96.6828 38.3048 95.5425C37.1913 94.4023 36.569 92.871 36.5715 91.2772L36.3183 71.051C36.0813 65.6216 38.9573 60.9522 44.2396 60.8623H44.7298C49.6526 61.0707 53.5908 65.1273 53.7828 70.189C53.9626 74.8993 54.1546 79.4462 54.0238 81.9628C53.7501 87.1756 48.5986 87.6821 48.5986 87.6821C48.5986 87.6821 48.5986 89.6226 48.5986 91.1546C48.6121 91.9603 48.4656 92.7607 48.1676 93.5094C47.8696 94.2581 47.426 94.9402 46.8625 95.5163C46.299 96.0923 45.6268 96.5508 44.8849 96.8652C44.1429 97.1796 43.3459 97.3437 42.5401 97.3479L42.5279 97.3765Z" fill="#FFBF9D"/>
<path d="M48.5985 87.7436C46.2492 87.6363 43.9833 86.8407 42.0825 85.4558C42.0825 85.4558 43.5124 89.443 48.5863 89.1857L48.5985 87.7436Z" fill="#FF9A6C"/>
<path d="M51.9158 74.8423C51.9106 75.0331 51.8322 75.2146 51.6968 75.3492C51.5614 75.4838 51.3795 75.5612 51.1886 75.5654C51.095 75.5686 51.0016 75.5531 50.9141 75.5198C50.8265 75.4865 50.7465 75.436 50.6787 75.3713C50.611 75.3066 50.5569 75.2289 50.5195 75.143C50.4822 75.0571 50.4625 74.9645 50.4614 74.8709C50.4636 74.679 50.541 74.4957 50.677 74.3605C50.813 74.2252 50.9968 74.1488 51.1886 74.1478C51.2821 74.145 51.3752 74.1609 51.4625 74.1944C51.5498 74.228 51.6296 74.2785 51.6973 74.3431C51.7649 74.4077 51.8191 74.4851 51.8566 74.5708C51.8941 74.6565 51.9142 74.7487 51.9158 74.8423Z" fill="#263238"/>
<path d="M52.6148 72.4644C52.5208 72.5584 51.9897 72.1172 51.2094 72.0886C50.4292 72.06 49.845 72.4317 49.7633 72.3296C49.6816 72.2275 49.8245 72.1131 50.0778 71.9211C50.4234 71.6968 50.8307 71.5867 51.2421 71.6065C51.6472 71.6179 52.0374 71.7614 52.3533 72.015C52.5862 72.2438 52.6597 72.4195 52.6148 72.4644Z" fill="#263238"/>
<path d="M44.8446 74.8423C44.8414 75.0337 44.7637 75.2164 44.6279 75.3515C44.4921 75.4865 44.3089 75.5633 44.1174 75.5654C44.0239 75.567 43.9311 75.55 43.8442 75.5155C43.7573 75.481 43.6781 75.4295 43.6112 75.3642C43.5443 75.2988 43.4911 75.2208 43.4546 75.1348C43.418 75.0487 43.399 74.9562 43.3984 74.8627C43.4016 74.6712 43.4794 74.4885 43.6152 74.3535C43.751 74.2184 43.9341 74.1417 44.1256 74.1396C44.2193 74.1374 44.3124 74.154 44.3995 74.1883C44.4867 74.2227 44.5661 74.2741 44.6331 74.3395C44.7001 74.405 44.7533 74.4832 44.7896 74.5695C44.8259 74.6559 44.8446 74.7486 44.8446 74.8423Z" fill="#263238"/>
<path d="M44.975 72.3258C44.8811 72.4197 44.3459 71.9785 43.5697 71.9499C42.7935 71.9213 42.2052 72.2931 42.1235 72.1909C42.0418 72.0888 42.1807 71.9744 42.4381 71.7824C42.7836 71.5581 43.1909 71.4481 43.6024 71.4678C44.0071 71.4807 44.3968 71.624 44.7136 71.8764C44.9423 72.1051 45.02 72.2849 44.975 72.3258Z" fill="#263238"/>
<path d="M47.5205 78.6005C47.936 78.4867 48.3643 78.4263 48.7951 78.4208C48.9953 78.4208 49.2036 78.3758 49.224 78.2369C49.2483 78.0263 49.2099 77.8131 49.1137 77.6241C48.9462 77.1217 48.7706 76.5947 48.5908 76.0431C47.8595 73.7881 47.3652 71.9579 47.4306 71.9129C47.496 71.868 48.1823 73.6819 48.9095 75.9369C49.0851 76.4925 49.2526 77.0195 49.4079 77.5261C49.5279 77.7813 49.5539 78.0706 49.4814 78.3432C49.45 78.4128 49.4032 78.4744 49.3444 78.5233C49.2857 78.5721 49.2166 78.6069 49.1423 78.625C49.0313 78.6517 48.9174 78.6641 48.8032 78.6618C48.3748 78.6959 47.9437 78.6753 47.5205 78.6005Z" fill="#263238"/>
<path d="M45.3265 69.8337C45.2122 70.0338 44.4646 69.7846 43.5454 69.7274C42.6262 69.6702 41.8541 69.7805 41.7683 69.564C41.7315 69.4619 41.8949 69.2862 42.2258 69.1555C42.6599 68.9708 43.1325 68.8951 43.6026 68.9349C44.0729 68.9618 44.5298 69.102 44.9344 69.3434C45.2408 69.5354 45.3756 69.7356 45.3265 69.8337Z" fill="#263238"/>
<path d="M52.7454 70.1115C52.5779 70.2912 51.9283 70.0829 51.1848 70.0543C50.4413 70.0257 49.7754 70.14 49.6324 69.944C49.567 69.85 49.6732 69.6702 49.9592 69.5068C50.3537 69.3093 50.7928 69.2178 51.2333 69.2414C51.6738 69.2651 52.1006 69.403 52.4717 69.6416C52.7331 69.8337 52.8189 70.0257 52.7454 70.1115Z" fill="#263238"/>
<path d="M36.5718 74.928C36.486 74.8871 33.132 73.7228 33.0993 77.2893C33.0667 80.8557 36.5555 80.149 36.5637 80.055C36.5718 79.961 36.5718 74.928 36.5718 74.928Z" fill="#FFBF9D"/>
<path d="M35.5219 78.6904C35.5219 78.6904 35.4607 78.7354 35.3585 78.7803C35.2867 78.8103 35.2096 78.8257 35.1318 78.8257C35.054 78.8257 34.9769 78.8103 34.9051 78.7803C34.5415 78.6373 34.2351 78.0368 34.2269 77.3913C34.2185 77.0864 34.2786 76.7835 34.4026 76.5048C34.435 76.3948 34.4935 76.2942 34.5731 76.2117C34.6528 76.1291 34.7513 76.0671 34.8601 76.0309C34.9306 76.0125 35.0054 76.0201 35.0707 76.0523C35.136 76.0846 35.1874 76.1394 35.2155 76.2066C35.2646 76.3046 35.2401 76.3782 35.2605 76.3822C35.2809 76.3863 35.334 76.3251 35.3054 76.178C35.2896 76.0891 35.2416 76.0091 35.1706 75.9533C35.1256 75.9145 35.0727 75.886 35.0155 75.8698C34.9584 75.8536 34.8984 75.85 34.8397 75.8593C34.6958 75.8875 34.5615 75.9523 34.4499 76.0475C34.3382 76.1427 34.253 76.265 34.2024 76.4027C34.0525 76.7117 33.9783 77.052 33.9859 77.3954C33.9859 78.1144 34.3536 78.7926 34.852 78.9478C34.9447 78.9757 35.0425 78.9821 35.1381 78.9665C35.2337 78.951 35.3244 78.9138 35.4035 78.8579C35.5138 78.7762 35.5342 78.6986 35.5219 78.6904Z" fill="#FF9A6C"/>
<path d="M39.0636 66.0219C39.1447 65.5658 39.3489 65.1404 39.6542 64.7919C39.9595 64.4434 40.3542 64.185 40.7958 64.0447C41.5568 63.7886 42.3822 63.7987 43.1367 64.0733C45.0935 64.7841 48.4475 65.8504 49.3013 65.1681C50.5514 64.1876 50.8537 63.534 50.8537 63.534L51.5442 64.2857C52.1038 63.967 50.4207 62.096 49.0399 61.4505C46.9564 60.4782 43.774 59.8777 41.8498 60.4374C39.5334 61.1114 37.6093 62.2921 36.445 64.4614C35.3236 66.6759 34.7957 69.1434 34.913 71.6228C34.913 72.3786 34.7945 74.5438 35.5217 74.7113C36.0896 74.838 36.8127 75.0912 36.7718 76.1779C36.7435 76.5747 36.8726 76.9666 37.1313 77.2687C37.7645 77.9632 38.5407 77.3095 38.9002 76.6559C39.6642 75.2587 39.75 73.5919 39.8153 71.9905C39.9241 70.8546 39.851 69.7086 39.5988 68.5957C39.3353 67.8876 39.1476 67.1536 39.0391 66.4059C39.0339 66.2774 39.0421 66.1487 39.0636 66.0219Z" fill="#263238"/>
<path d="M47.6553 80.5288C47.6757 80.582 47.5164 80.7168 47.1936 80.7862C46.7655 80.8715 46.3211 80.802 45.9394 80.5901C45.5565 80.3821 45.2566 80.049 45.0897 79.6464C44.9671 79.34 44.9876 79.1358 45.0448 79.1194C45.102 79.1031 45.4247 79.7976 46.156 80.1939C46.8872 80.5901 47.6226 80.4104 47.6553 80.5288Z" fill="#263238"/>
<path d="M51.2787 128.122L34.6843 124.47L24.0177 98.0425C24.0177 98.0425 9.76413 101.204 7.4151 109.187C5.37246 116.071 1.18097 146.498 10.7242 165.253C11.9402 167.616 13.7856 169.597 16.0565 170.977C18.3274 172.356 20.9355 173.082 23.5928 173.073H96.2168C100.645 173.073 104.917 171.442 108.218 168.491C111.519 165.539 113.617 161.475 114.11 157.075C114.519 153.398 114.805 149.913 114.748 147.642L103.088 138.695L51.2787 128.122Z" fill="#455A64"/>
<g opacity="0.3">
<path d="M95.6445 137.314C100.755 143.989 106.973 149.978 114.408 153.909L114.764 144.847L101.029 135.071L95.6445 137.314Z" fill="black"/>
</g>
<path d="M40.8327 92.9033C40.8327 93.3853 44.6075 94.9459 46.3111 94.2596C48.9093 93.2219 48.5866 91.1833 48.5866 91.1833L50.0287 92.7031L64.4783 114.723L75.2185 121.811L58.0277 127.256L40.0034 106.552L40.8327 92.9033Z" fill="#F5F5F5"/>
<path d="M36.2776 85.5129L35.8977 86.2238L34.1819 89.4226L27.0449 93.9736L41.7233 111.422L48.4191 127.256L64.4742 132.281C64.4742 132.281 56.8348 120.536 54.4612 114.531C52.0877 108.525 51.8466 108.811 49.6814 104.407C48.2096 101.305 46.9005 98.1276 45.7596 94.8887L36.2776 85.5129Z" fill="#0FB7A6"/>
<path d="M70.6673 116.949L73.817 119.887L74.7076 121.7L62.9992 116.255L54.5468 104.407C54.5468 104.407 51.5359 97.728 50.5024 95.334C49.4116 92.8175 48.5986 91.3917 48.5986 91.3917V89.4062L52.8596 93.2546L56.4179 94.3127L62.366 103.709L70.6673 116.949Z" fill="#0FB7A6"/>
<path d="M67.0604 105.87C67.0604 105.87 65.6387 102.839 64.4785 100.318C61.8639 94.6394 55.6992 94.1001 55.6992 94.1001L62.5135 112.999L70.8597 118.918C70.8597 118.918 73.2373 119.735 73.5355 118.918C73.5355 118.918 75.2718 112.651 75.2187 112.627C75.1656 112.602 69.2787 110.842 69.2787 110.842L66.9092 105.531" fill="#0FB7A6"/>
<path d="M79.6142 99.9707L71.5049 113.481L79.9982 113.232L87.4865 100.714C87.5523 100.604 87.5878 100.479 87.5893 100.351C87.5909 100.223 87.5584 100.097 87.4953 99.9857C87.4321 99.8744 87.3405 99.7818 87.2299 99.7175C87.1193 99.6531 86.9935 99.6193 86.8655 99.6194H80.2351C80.1101 99.6193 79.9871 99.6516 79.8783 99.7131C79.7695 99.7747 79.6784 99.8635 79.6142 99.9707Z" fill="#263238"/>
<path d="M48.4189 115.25L68.7187 112.835L72.1299 106.858L74.8017 105.392C75.0232 105.269 75.2751 105.213 75.5277 105.229C75.7803 105.245 76.0231 105.332 76.2274 105.482L76.4807 105.666L78.4621 105.416C78.7998 105.372 79.1427 105.44 79.4384 105.608L80.8438 106.425C80.9451 106.485 81.0292 106.57 81.0879 106.671C81.1466 106.773 81.1779 106.888 81.1788 107.006C81.1786 107.104 81.1568 107.202 81.1147 107.291C81.0727 107.381 81.0115 107.46 80.9355 107.523C80.8594 107.586 80.7705 107.632 80.6749 107.657C80.5793 107.682 80.4793 107.685 80.3822 107.667L79.0177 107.418L76.926 108.1C76.926 108.1 78.2741 108.243 78.4457 109.265C78.6173 110.286 77.9351 110.311 77.9351 110.311C77.9351 110.311 79.3527 111.128 78.3436 112.353C78.3436 112.353 79.5283 113.142 78.2006 114.637C77.3059 115.65 70.8471 118.951 70.8471 118.951L48.4189 127.256V115.25Z" fill="#FFBF9D"/>
<path d="M78.311 112.345C78.311 112.345 78.4622 112.345 78.6419 112.529C78.7588 112.664 78.8398 112.827 78.8776 113.002C78.9155 113.177 78.9089 113.358 78.8584 113.53C78.6808 114.015 78.3795 114.446 77.9842 114.78C77.5432 115.212 77.0662 115.605 76.5584 115.956C75.6307 116.578 74.6506 117.118 73.6293 117.57C73.2201 117.782 72.792 117.956 72.3506 118.089C72.744 117.844 73.1534 117.625 73.5762 117.435C74.566 116.949 75.5214 116.397 76.4359 115.781C76.9364 115.437 77.409 115.055 77.8494 114.637C78.2285 114.333 78.5249 113.938 78.7114 113.489C78.763 113.338 78.7781 113.177 78.7554 113.02C78.7326 112.862 78.6728 112.712 78.5806 112.582C78.5022 112.491 78.4114 112.411 78.311 112.345Z" fill="#FF9A6C"/>
<path d="M76.4072 105.719C76.0971 105.91 75.7532 106.04 75.3941 106.103C75.052 106.23 74.6887 106.291 74.3237 106.282C74.6331 106.089 74.9773 105.959 75.3369 105.898C75.6789 105.771 76.0422 105.71 76.4072 105.719Z" fill="#FF9A6C"/>
<path d="M79.0221 107.402C78.5803 107.657 78.1062 107.852 77.6127 107.982C77.1392 108.175 76.6417 108.303 76.1338 108.362C76.5737 108.103 77.0483 107.907 77.5432 107.782C78.0159 107.586 78.5137 107.458 79.0221 107.402Z" fill="#FF9A6C"/>
<path d="M76.6075 110.11C76.5462 110.11 76.5176 109.927 76.4482 109.726C76.3787 109.526 76.297 109.371 76.342 109.318C76.3869 109.265 76.5667 109.4 76.6484 109.649C76.7301 109.898 76.6443 110.119 76.6075 110.11Z" fill="#FF9A6C"/>
<path d="M77.2817 112.455C77.2204 112.455 77.245 112.149 77.1592 111.818C77.0734 111.487 76.9263 111.234 76.9712 111.193C77.0162 111.152 77.2695 111.373 77.3798 111.765C77.4901 112.157 77.3348 112.455 77.2817 112.455Z" fill="#FF9A6C"/>
<path d="M27.6169 93.6099C26.9387 94.0184 21.1989 97.9403 22.0364 104.362C22.8739 110.784 35.5791 125.303 38.2304 125.581L48.4232 127.256V115.25L43.5209 114.972L37.1152 102.405L27.6169 93.6099Z" fill="#0FB7A6"/>
<path d="M48.4191 114.67C48.2991 114.692 48.1774 114.703 48.0555 114.702L47.026 114.743L43.3738 114.825H43.3247L43.2921 114.784L40.7102 111.311C39.17 109.232 37.7892 107.341 36.7965 105.964L35.6322 104.33C35.4792 104.134 35.3426 103.927 35.2236 103.709C35.3962 103.885 35.5546 104.075 35.6975 104.277L36.9231 105.87C37.9485 107.218 39.3743 109.097 40.8899 111.181L43.4514 114.665L43.3697 114.625H47.0219H48.0514C48.1753 114.624 48.2988 114.639 48.4191 114.67Z" fill="#263238"/>
<path d="M45.9433 96.4574C45.8664 96.3421 45.7994 96.2205 45.7431 96.0938L45.2406 95.0398H45.3509C44.9801 95.5791 44.6509 96.1459 44.3664 96.7352C44.006 97.5198 43.5782 98.2716 43.0877 98.9821L43.006 99.0965L42.9202 98.9862C42.2584 98.1692 41.5026 97.3072 40.6896 96.4207C38.9125 94.4883 37.213 92.8134 35.9997 91.5878L34.5658 90.1293C34.3845 89.9583 34.2178 89.7724 34.0674 89.5737C34.2676 89.7239 34.4561 89.8891 34.6311 90.0681L36.1141 91.4734C37.3397 92.6704 39.0759 94.3331 40.8612 96.2654C41.6783 97.156 42.4299 98.0303 43.0877 98.8514H42.9161C43.4038 98.1511 43.8354 97.4135 44.207 96.6453C44.5046 96.0537 44.8532 95.4892 45.2488 94.9581L45.3141 94.8683L45.355 94.9663C45.5388 95.4075 45.69 95.7629 45.8044 96.0448C45.8681 96.1758 45.9148 96.3145 45.9433 96.4574Z" fill="#263238"/>
<path d="M52.9126 93.3851C53.0488 93.5675 53.1525 93.772 53.219 93.9897C53.4283 94.5419 53.607 95.1051 53.7541 95.677L53.893 96.1754L53.5744 95.7668C53.1185 95.2012 52.6185 94.6726 52.0792 94.1858C51.6053 93.7528 51.1437 93.3688 50.7229 92.9848L50.8945 92.9194C50.8353 93.589 50.8149 94.2615 50.8332 94.9334C50.8487 95.2003 50.814 95.4678 50.731 95.7219C50.7065 95.7219 50.731 95.4318 50.7024 94.9375C50.6493 94.2577 50.6493 93.5747 50.7024 92.8949L50.7229 92.7029L50.874 92.8295C51.2826 93.1849 51.7728 93.5812 52.2508 94.0224C52.8012 94.5196 53.3045 95.0666 53.7541 95.6565L53.5744 95.7423C53.3987 95.0356 53.2557 94.4473 53.125 94.0429C53.0386 93.8289 52.9676 93.6092 52.9126 93.3851Z" fill="#263238"/>
<path d="M67.6567 112.962C67.4826 112.826 67.32 112.675 67.1706 112.513L65.9164 111.23C65.3894 110.678 64.7643 110.061 64.078 109.297C63.7634 108.889 63.4856 108.452 63.1588 108.023C62.8271 107.559 62.5425 107.064 62.3091 106.544C61.8229 105.49 61.4553 104.448 61.1243 103.505C60.7934 102.561 60.5034 101.707 60.2378 101.004C59.9723 100.302 59.7272 99.7379 59.5393 99.3703C59.4286 99.1808 59.3303 98.9842 59.2451 98.782C59.2451 98.782 59.2901 98.8228 59.3513 98.9127C59.4482 99.0433 59.5369 99.1797 59.6169 99.3212C59.9099 99.8484 60.1678 100.394 60.389 100.955C60.6791 101.658 60.9854 102.504 61.3245 103.443C61.6636 104.383 62.0354 105.416 62.5174 106.458C62.7437 106.964 63.0172 107.446 63.3345 107.9C63.6654 108.337 63.9432 108.791 64.2414 109.179C64.8828 109.91 65.5242 110.572 66.0267 111.128L67.2318 112.455C67.3876 112.612 67.5297 112.781 67.6567 112.962Z" fill="#263238"/>
<path d="M73.5474 119.739L112.08 118.657C112.69 118.641 113.297 118.753 113.861 118.988C115.262 119.584 117.783 121.116 119.511 124.785C122.015 130.096 133.699 152.565 133.699 152.565L121.884 158.619L107.394 131.738L62.7173 127.939L63.2361 124.368L73.5474 119.739Z" fill="#263238"/>
<path d="M118.375 153.884L124.532 164.453L124.941 167.125C125 167.513 125.135 167.886 125.339 168.222C125.542 168.558 125.81 168.851 126.127 169.084C126.444 169.316 126.803 169.484 127.185 169.578C127.567 169.671 127.963 169.689 128.352 169.629L147.091 166.769C147.312 166.74 147.524 166.66 147.71 166.536C147.895 166.411 148.05 166.246 148.162 166.053C148.273 165.859 148.339 165.643 148.354 165.42C148.369 165.197 148.332 164.974 148.247 164.767C148.166 164.584 148.044 164.423 147.889 164.297C147.734 164.17 147.552 164.083 147.356 164.04C145.788 163.632 133.695 159.199 133.695 159.199L128.654 149.084L118.375 153.884Z" fill="#E0E0E0"/>
<path d="M123.535 156.331C123.021 155.81 122.557 155.241 122.15 154.632C121.682 154.065 121.272 153.454 120.925 152.806C121.437 153.328 121.9 153.897 122.306 154.505C122.774 155.072 123.186 155.684 123.535 156.331Z" fill="#263238"/>
<path d="M127.212 154.852C126.696 154.326 126.261 153.726 125.921 153.071C125.521 152.451 125.213 151.777 125.006 151.069C125.063 151.041 125.496 151.923 126.105 152.965C126.714 154.007 127.265 154.815 127.212 154.852Z" fill="#263238"/>
<path d="M129.782 169.29C129.741 169.29 129.643 168.926 129.373 168.375C129.012 167.659 128.498 167.032 127.868 166.538C127.237 166.044 126.506 165.694 125.725 165.515C125.124 165.372 124.736 165.368 124.736 165.327C125.074 165.25 125.424 165.25 125.762 165.327C126.588 165.466 127.366 165.81 128.025 166.327C128.683 166.845 129.202 167.519 129.532 168.289C129.687 168.6 129.772 168.942 129.782 169.29Z" fill="#263238"/>
<path d="M142.409 167.472C142.254 167.267 142.151 167.027 142.111 166.773C141.963 166.163 141.994 165.524 142.201 164.931C142.413 164.349 142.746 163.819 143.177 163.374C143.336 163.174 143.533 163.008 143.757 162.884C143.782 162.913 143.59 163.129 143.308 163.489C142.939 163.948 142.644 164.462 142.433 165.012C142.245 165.567 142.193 166.158 142.282 166.736C142.343 166.978 142.386 167.224 142.409 167.472Z" fill="#263238"/>
<path d="M61.7494 124.997C61.7494 124.997 101.511 121.01 103.444 121.169C107.01 121.463 113.587 127.089 125.259 134.924C131.306 139.034 136.919 143.75 142.009 148.998L138.279 157.512C138.279 157.512 112.133 147.981 108.027 144.553C104.62 141.694 98.4025 137.649 98.4025 137.649L83.0664 137.804L71.6644 138.809C68.8519 139.058 66.0221 138.592 63.438 137.455C60.8538 136.317 58.5993 134.544 56.8838 132.302L52.4595 126.521L61.7494 124.997Z" fill="#263238"/>
<path d="M98.2105 137.531C98.2105 137.531 98.2758 137.567 98.3943 137.649L98.9295 138.017L100.993 139.467C102.786 140.746 105.417 142.584 108.644 145.023C108.849 145.174 109.053 145.35 109.257 145.485L109.915 145.893C110.389 146.13 110.863 146.392 111.365 146.625L112.901 147.339L114.535 148.054C116.744 149.01 119.126 150.007 121.68 151.045C126.779 153.116 132.498 155.367 138.671 157.741L138.536 157.802L141.915 149.223L141.939 149.345L137.298 144.615C136.208 143.671 135.039 142.666 133.846 141.673C126.731 135.81 119.289 130.354 111.557 125.332C110.51 124.436 109.38 123.641 108.183 122.959C107.046 122.296 105.835 121.77 104.575 121.39C104.265 121.308 103.954 121.243 103.648 121.165L102.721 121.022L101.793 120.973H97.2994L85.2928 120.949L77.4981 120.916H75.4555H74.9244C74.8645 120.919 74.8045 120.919 74.7446 120.916H74.9244H75.4555H77.4981L85.2928 120.887L97.2994 120.863H101.793L102.737 120.908L103.685 121.051C103.995 121.128 104.31 121.194 104.624 121.279C105.9 121.658 107.126 122.188 108.277 122.856C109.49 123.542 110.633 124.344 111.692 125.25C119.44 130.265 126.893 135.721 134.014 141.591C135.211 142.584 136.379 143.589 137.47 144.537L142.111 149.272L142.16 149.325L142.135 149.394L138.745 157.973L138.708 158.071L138.61 158.035C132.437 155.653 126.718 153.39 121.623 151.306C119.078 150.265 116.692 149.264 114.486 148.295L112.852 147.572L111.3 146.772C110.801 146.531 110.323 146.269 109.849 146.028L109.175 145.62C108.955 145.485 108.767 145.309 108.563 145.158C105.352 142.707 102.729 140.848 100.952 139.549L98.909 138.074L98.3861 137.69C98.2595 137.58 98.2105 137.531 98.2105 137.531Z" fill="#455A64"/>
<path d="M129.822 155.351L140.853 159.685L142.687 161.671C142.954 161.959 143.275 162.193 143.633 162.357C143.99 162.521 144.376 162.614 144.769 162.629C145.162 162.644 145.554 162.582 145.923 162.445C146.292 162.309 146.631 162.101 146.919 161.834L160.834 148.957C161 148.808 161.131 148.623 161.215 148.416C161.299 148.209 161.334 147.986 161.318 147.763C161.303 147.54 161.236 147.324 161.124 147.131C161.011 146.938 160.856 146.773 160.67 146.649C160.501 146.544 160.309 146.48 160.11 146.462C159.912 146.444 159.712 146.473 159.526 146.547C158.002 147.094 145.497 150.187 145.497 150.187L137.11 143.503L129.822 155.351Z" fill="#E0E0E0"/>
<path d="M129.822 155.351C129.822 155.351 129.859 155.281 129.941 155.142L130.312 154.53C130.643 153.978 131.13 153.182 131.746 152.16C133.005 150.089 134.819 147.115 137.057 143.463L137.102 143.385L137.176 143.442L145.563 150.109H145.477L152.937 148.23L156.879 147.205C157.545 147.025 158.219 146.849 158.889 146.653L159.387 146.498C159.561 146.431 159.742 146.389 159.927 146.371C160.119 146.363 160.311 146.396 160.491 146.466C160.67 146.536 160.833 146.643 160.968 146.78C161.234 147.046 161.396 147.398 161.423 147.773C161.451 148.148 161.343 148.52 161.12 148.823C161.008 148.971 160.882 149.107 160.744 149.231L160.364 149.582L159.608 150.281L156.642 153.022L151.033 158.202L148.423 160.613L147.172 161.769C146.969 161.965 146.748 162.142 146.511 162.296C145.929 162.653 145.246 162.806 144.568 162.732C143.889 162.658 143.255 162.361 142.764 161.887C142.062 161.156 141.424 160.441 140.799 159.767H140.828C137.425 158.411 134.671 157.316 132.755 156.548L130.582 155.669L130.018 155.441L129.835 155.363C129.835 155.363 129.908 155.383 130.043 155.437L130.619 155.653L132.825 156.503L140.881 159.628C141.51 160.298 142.16 161.017 142.846 161.732C143.215 162.083 143.669 162.332 144.163 162.453C144.658 162.574 145.176 162.564 145.665 162.422C145.92 162.349 146.163 162.24 146.388 162.1C146.614 161.951 146.825 161.78 147.017 161.589C147.426 161.209 147.834 160.821 148.267 160.433C149.112 159.649 149.98 158.842 150.874 158.014C152.655 156.38 154.53 154.624 156.475 152.826C157.444 151.925 158.431 151.01 159.436 150.081L160.192 149.382C160.448 149.16 160.691 148.922 160.919 148.671C161.114 148.41 161.209 148.087 161.186 147.762C161.164 147.437 161.026 147.131 160.797 146.898C160.681 146.784 160.542 146.695 160.389 146.637C160.236 146.579 160.073 146.554 159.91 146.563C159.745 146.58 159.583 146.62 159.428 146.682L158.918 146.837C158.244 147.033 157.574 147.209 156.904 147.389L152.957 148.41L145.497 150.277H145.448L145.412 150.248L137.07 143.565H137.188L131.84 152.168L130.357 154.534L129.949 155.151C129.875 155.273 129.822 155.351 129.822 155.351Z" fill="#263238"/>
<path d="M147.9 160.751C147.871 160.78 147.581 160.527 147.038 160.228C146.339 159.836 145.562 159.603 144.762 159.546C143.963 159.489 143.161 159.609 142.413 159.898C141.837 160.114 141.51 160.327 141.486 160.306C141.73 160.06 142.024 159.869 142.348 159.746C143.11 159.4 143.946 159.249 144.781 159.309C145.616 159.369 146.423 159.637 147.128 160.09C147.431 160.249 147.695 160.476 147.9 160.751Z" fill="#263238"/>
<path d="M157.345 152.176C157.102 152.091 156.883 151.952 156.703 151.768C156.241 151.344 155.911 150.797 155.751 150.191C155.602 149.589 155.58 148.963 155.686 148.353C155.705 148.099 155.776 147.851 155.894 147.625C155.915 147.875 155.904 148.126 155.862 148.373C155.809 148.96 155.851 149.552 155.988 150.126C156.142 150.691 156.431 151.211 156.83 151.641C157.136 151.968 157.369 152.14 157.345 152.176Z" fill="#263238"/>
<path d="M91.4495 137.535C90.5957 133.486 88.8512 129.344 85.3992 127.068C82.7805 125.336 79.5409 124.911 76.4116 124.527L11.2678 116.516C10.6836 126.782 15.0793 139.561 19.565 148.818C20.2595 150.256 21.0643 151.727 22.3961 152.605C24.0302 153.676 26.1055 153.664 28.0501 153.615C49.9676 153.055 71.8933 152.123 93.6882 149.725C92.4626 145.775 92.2992 141.579 91.4495 137.535Z" fill="#455A64"/>
<path d="M35.236 119.462C34.9791 119.465 34.7223 119.448 34.4679 119.412L32.3844 119.188C30.6278 118.984 28.2052 118.685 25.5334 118.318C22.8617 117.95 20.4432 117.578 18.7028 117.272C17.8286 117.117 17.1259 116.99 16.6602 116.863C16.4067 116.821 16.1568 116.76 15.9126 116.679C16.1693 116.691 16.4246 116.723 16.6765 116.773L18.7437 117.092C20.4922 117.354 22.9066 117.701 25.5784 118.068L32.4212 119.004L34.4965 119.302C34.7468 119.336 34.994 119.389 35.236 119.462Z" fill="#263238"/>
<path d="M35.571 173.052C35.5453 173.012 35.5234 172.97 35.5056 172.926C35.4566 172.832 35.3994 172.705 35.3258 172.55L34.664 171.091L34.186 170.058C34.0226 169.649 33.8633 169.241 33.6795 168.775C33.3281 167.856 32.8869 166.818 32.5111 165.629C32.315 165.041 32.1026 164.424 31.8942 163.779C31.6859 163.133 31.4857 162.447 31.3018 161.736C30.8933 160.335 30.542 158.807 30.1661 157.206C28.6504 150.216 28.1536 143.045 28.6913 135.913C28.8425 134.279 28.961 132.718 29.1898 131.272C29.3001 130.549 29.3736 129.846 29.4961 129.176C29.6187 128.506 29.7413 127.869 29.8557 127.256C30.064 126.031 30.3581 124.94 30.5787 123.988C30.6972 123.506 30.7953 123.061 30.9056 122.652C31.0159 122.244 31.1343 121.876 31.2324 121.541C31.4244 120.883 31.5796 120.369 31.6859 120.005L31.8125 119.596C31.8241 119.55 31.8405 119.505 31.8615 119.462C31.8584 119.509 31.8488 119.556 31.8329 119.601L31.7308 120.009L31.3223 121.553L31.0159 122.669C30.9137 123.077 30.8198 123.531 30.7095 124.009C30.497 124.973 30.2152 126.051 30.0191 127.277C29.9128 127.886 29.7944 128.527 29.6759 129.193C29.5574 129.859 29.488 130.561 29.3858 131.284C29.1612 132.727 29.0509 134.283 28.9038 135.917C28.3991 143.032 28.8942 150.183 30.3745 157.161C30.7462 158.758 31.069 160.286 31.4898 161.683C31.6899 162.386 31.8574 163.068 32.0658 163.726C32.2741 164.383 32.4743 164.988 32.6704 165.576C33.034 166.765 33.463 167.803 33.802 168.73C33.9818 169.192 34.1329 169.625 34.2923 170.017L34.7498 171.075L35.3708 172.55L35.5301 172.938C35.5477 172.975 35.5613 173.013 35.571 173.052Z" fill="#263238"/>
<path d="M34.8806 152.352C34.0285 152.43 33.1712 152.43 32.3191 152.352C31.4614 152.351 30.6055 152.273 29.7617 152.119C30.6153 152.044 31.4737 152.044 32.3273 152.119C33.1836 152.122 34.0379 152.2 34.8806 152.352Z" fill="#263238"/>
<path d="M34.288 155.351C33.3783 155.271 32.4887 155.038 31.6571 154.66C30.7967 154.354 29.9952 153.902 29.2876 153.324C29.3244 153.267 30.362 153.892 31.7388 154.448C33.1155 155.004 34.3002 155.261 34.288 155.351Z" fill="#263238"/>
<path d="M28.5808 134.875C28.0716 135.195 27.4865 135.374 26.8854 135.394C26.2912 135.487 25.683 135.424 25.1206 135.21C25.1206 135.141 25.9091 135.259 26.865 135.165C27.821 135.071 28.5563 134.814 28.5808 134.875Z" fill="#263238"/>
<path d="M29.8842 133.895C29.2516 134.027 28.593 133.943 28.0132 133.658C27.4035 133.442 26.8851 133.026 26.5425 132.477C27.0306 132.849 27.5532 133.173 28.1031 133.446C29.0345 133.85 29.8842 133.821 29.8842 133.895Z" fill="#263238"/>
<path d="M52.8233 63.9059C52.6608 63.4823 52.399 63.104 52.0599 62.8026C51.7208 62.5011 51.3143 62.2855 50.8746 62.1738C49.9898 61.9548 49.0612 61.9887 48.1947 62.2718L39.73 64.2082C40.9556 65.0253 43.4762 65.7933 44.9224 65.9486C47.0345 66.1732 48.5215 66.1937 49.7798 65.4665C49.8616 65.6751 49.9868 65.8641 50.147 66.0208C50.3072 66.1775 50.4989 66.2984 50.7093 66.3756C50.9197 66.4529 51.1441 66.4846 51.3676 66.4687C51.5912 66.4528 51.8089 66.3897 52.0062 66.2835C52.388 66.0351 52.6758 65.6661 52.8239 65.2353C52.9719 64.8045 52.9717 64.3366 52.8233 63.9059Z" fill="#263238"/>
<path d="M137.393 152.703C135.672 152.347 134.018 151.724 132.49 150.857C132.515 150.8 133.593 151.265 134.941 151.772C136.29 152.278 137.409 152.646 137.393 152.703Z" fill="#263238"/>
<path d="M139.255 149.084C138.515 148.779 137.791 148.437 137.086 148.058C136.35 147.746 135.631 147.394 134.933 147.004C135.715 147.199 136.469 147.488 137.18 147.866C137.921 148.182 138.618 148.591 139.255 149.084Z" fill="#263238"/>
<path d="M71.8317 123.449L88.8959 123.657L109.502 119.572C109.826 119.504 110.121 119.34 110.35 119.1C110.578 118.861 110.728 118.558 110.781 118.232L113.583 99.6765C113.615 99.4635 113.596 99.2461 113.528 99.0418C113.46 98.8375 113.344 98.6523 113.191 98.501C113.038 98.3497 112.851 98.2367 112.646 98.1713C112.441 98.1058 112.223 98.0896 112.01 98.1241L90.9508 101.552C90.659 101.599 90.3904 101.74 90.185 101.953C89.9797 102.166 89.8485 102.439 89.811 102.732L87.462 121.602L71.8562 121.525C71.6012 121.525 71.3566 121.626 71.1759 121.806C70.9952 121.985 70.8932 122.23 70.8921 122.485C70.891 122.736 70.9888 122.979 71.1646 123.159C71.3404 123.339 71.5799 123.443 71.8317 123.449Z" fill="#E0E0E0"/>
<path d="M71.8319 123.449C71.7216 123.457 71.611 123.439 71.5091 123.396C71.3547 123.34 71.2169 123.246 71.109 123.122C71.001 122.999 70.9264 122.85 70.8923 122.689C70.8646 122.557 70.864 122.422 70.8906 122.29C70.9172 122.158 70.9703 122.033 71.0468 121.923C71.1232 121.812 71.2214 121.719 71.3354 121.647C71.4493 121.576 71.5765 121.529 71.7093 121.508C72.3344 121.484 73.0411 121.508 73.85 121.508L87.4581 121.541L87.3845 121.606C88.0545 116.177 88.8511 109.759 89.7295 102.618C89.7804 102.38 89.8895 102.158 90.047 101.972C90.2046 101.786 90.4056 101.641 90.6323 101.552C90.8554 101.48 91.0855 101.432 91.3187 101.409L91.9968 101.294L94.7462 100.849L100.412 99.9218L106.283 98.974L109.282 98.4878L110.797 98.2386L111.557 98.1161C111.818 98.0595 112.083 98.0308 112.35 98.0303C112.641 98.0556 112.919 98.1664 113.148 98.3488C113.377 98.5312 113.547 98.7771 113.637 99.0557C113.714 99.3313 113.722 99.6217 113.661 99.9013L113.538 100.694C113.381 101.751 113.223 102.801 113.065 103.844C112.75 105.923 112.44 107.978 112.133 109.992C111.827 112.006 111.529 113.979 111.238 115.916L111.018 117.354C110.981 117.595 110.948 117.832 110.912 118.069C110.888 118.32 110.82 118.564 110.711 118.792C110.597 119.017 110.434 119.214 110.234 119.369C110.034 119.523 109.802 119.632 109.555 119.686L108.174 119.96L88.9124 123.751L76.4033 123.567L73.0248 123.506L72.1138 123.486H71.8155H72.1138H72.9921L76.3747 123.506L88.8838 123.625L108.138 119.784L109.514 119.507C109.733 119.459 109.937 119.364 110.114 119.227C110.291 119.091 110.435 118.917 110.536 118.718C110.635 118.51 110.695 118.286 110.711 118.056L110.822 117.341C110.891 116.863 110.965 116.381 111.038 115.899L111.929 109.976C112.231 107.963 112.54 105.92 112.856 103.848C113.011 102.807 113.169 101.757 113.33 100.698L113.449 99.9054C113.512 99.6603 113.512 99.403 113.449 99.1578C113.373 98.9192 113.228 98.7084 113.032 98.552C112.837 98.3957 112.599 98.3008 112.35 98.2795C112.101 98.2816 111.853 98.309 111.61 98.3612L110.846 98.4878L109.335 98.7329L106.332 99.2191L100.466 100.175L94.7993 101.094L92.0499 101.54L91.3718 101.65C91.151 101.671 90.9333 101.717 90.7222 101.785C90.5263 101.861 90.3527 101.985 90.2171 102.145C90.0815 102.306 89.9883 102.498 89.946 102.704C89.0472 109.82 88.2384 116.247 87.5561 121.672V121.737H87.4867L73.8786 121.639C73.0616 121.639 72.3548 121.615 71.7461 121.639C71.6086 121.658 71.4771 121.708 71.3612 121.784C71.2452 121.86 71.1479 121.961 71.0761 122.08C71.0054 122.197 70.9611 122.329 70.9464 122.465C70.9317 122.601 70.9468 122.738 70.9908 122.868C71.0347 122.997 71.1065 123.116 71.2009 123.215C71.2954 123.314 71.4104 123.391 71.5377 123.441C71.6351 123.455 71.7339 123.458 71.8319 123.449Z" fill="#263238"/>
<path d="M91.6332 102.148C91.6904 102.148 91.1267 107.079 90.3709 113.15C89.6151 119.221 88.9574 124.135 88.8961 124.127C88.8348 124.119 89.4068 119.196 90.1625 113.125C90.9183 107.055 91.576 102.14 91.6332 102.148Z" fill="#263238"/>
<path d="M100.792 109.808C100.363 110.703 100.6 111.708 101.319 112.055C102.038 112.402 102.954 111.953 103.399 111.058C103.844 110.163 103.591 109.158 102.872 108.815C102.153 108.472 101.221 108.913 100.792 109.808Z" fill="white"/>
<path d="M256.637 102.099C256.63 102.152 256.617 102.205 256.596 102.254L256.449 102.7C256.319 103.088 256.131 103.66 255.865 104.395C255.35 105.866 254.574 107.986 253.549 110.58C250.904 117.349 247.742 123.905 244.091 130.189C243.062 131.974 242.159 133.829 241.391 135.741C240.698 137.535 240.213 139.402 239.945 141.306C239.545 144.541 239.545 147.813 239.945 151.049C240.243 153.819 240.643 156.041 240.901 157.585C241.031 158.341 241.134 158.938 241.207 159.354C241.24 159.546 241.264 159.697 241.281 159.812C241.292 159.864 241.299 159.918 241.301 159.971C241.284 159.921 241.27 159.869 241.26 159.816C241.236 159.706 241.203 159.554 241.166 159.358C241.085 158.95 240.966 158.353 240.819 157.598C240.537 156.066 240.112 153.847 239.794 151.061C239.377 147.807 239.368 144.513 239.769 141.256C240.031 139.337 240.515 137.455 241.211 135.647C241.98 133.719 242.887 131.849 243.924 130.051C247.567 123.772 250.742 117.232 253.422 110.486C254.468 107.904 255.265 105.792 255.804 104.33C256.073 103.607 256.282 103.043 256.425 102.647L256.592 102.209C256.613 102.148 256.637 102.099 256.637 102.099Z" fill="#263238"/>
<path d="M252.683 126.599C252.646 126.681 252.602 126.76 252.552 126.836L252.144 127.493C251.784 128.065 251.249 128.882 250.587 129.887C249.263 131.901 247.376 134.643 245.476 137.788C244.537 139.365 243.699 140.901 242.997 142.327C242.294 143.753 241.73 145.072 241.285 146.188C240.84 147.303 240.513 148.23 240.309 148.863C240.202 149.166 240.121 149.411 240.055 149.599C240.031 149.686 239.997 149.769 239.953 149.848C239.963 149.759 239.983 149.671 240.014 149.586C240.067 149.394 240.141 149.145 240.227 148.839C240.411 148.189 240.725 147.266 241.142 146.134C241.559 145.003 242.118 143.683 242.817 142.241C243.515 140.799 244.349 139.259 245.297 137.678C247.196 134.524 249.108 131.795 250.46 129.801L252.074 127.448L252.519 126.811C252.567 126.735 252.621 126.664 252.683 126.599Z" fill="#263238"/>
<path d="M256.597 102.099C256.699 101.102 255.62 100.11 254.681 99.7584C253.712 99.4744 252.683 99.4744 251.715 99.7584C248.876 100.435 246.292 101.916 244.273 104.022C242.254 106.129 240.885 108.773 240.329 111.638C242.952 110.342 245.648 109.201 248.406 108.223L247.94 108.358C249.277 108.088 250.54 107.531 251.641 106.726C252.742 105.92 253.655 104.885 254.317 103.692C254.532 103.215 254.82 102.774 255.171 102.385C255.351 102.195 255.585 102.065 255.842 102.013C256.099 101.962 256.366 101.992 256.605 102.099" fill="#455A64"/>
<path d="M256.604 102.091C259.211 100.288 262.416 99.5693 265.543 100.085C267.09 100.358 268.558 100.968 269.842 101.873C271.127 102.777 272.196 103.954 272.974 105.318C273.723 106.696 274.12 108.238 274.128 109.807C274.135 111.375 273.755 112.921 273.019 114.306C271.573 111.303 270.025 108.178 267.337 106.209C266.703 105.751 265.992 105.331 265.637 104.632C265.229 103.815 265.396 102.83 265.041 101.997C264.608 100.972 263.406 100.669 262.299 100.612C261.192 100.555 257.961 101.58 256.604 102.075" fill="#455A64"/>
<path d="M256.535 102.042C259.207 101.249 262.23 102.557 264.052 104.558C265.874 106.56 266.793 109.248 267.108 111.936C267.422 114.625 267.169 117.341 266.895 120.033C264.803 116.909 263.247 113.457 262.291 109.82C261.883 108.186 261.548 106.487 260.776 104.975C260.333 104.2 259.722 103.534 258.988 103.026C258.254 102.518 257.416 102.18 256.535 102.038" fill="#455A64"/>
<path d="M256.445 102.099C258.582 101.111 259.787 98.88 260.061 96.5392C260.186 95.3651 260.014 94.1785 259.561 93.0879C259.109 91.9974 258.39 91.0378 257.471 90.2969C256.419 91.286 255.672 92.5557 255.319 93.9558C254.965 95.3559 255.02 96.8279 255.477 98.1978C255.931 99.4847 256.752 100.772 256.445 102.099Z" fill="#455A64"/>
<path d="M239.369 145.432C239.314 145.33 239.269 145.223 239.234 145.113C239.148 144.901 239.046 144.582 238.879 144.182C238.568 143.365 238.062 142.221 237.42 140.828C235.655 137.209 233.64 133.717 231.39 130.377C229.181 127.009 226.732 123.805 224.061 120.789C223.256 119.874 222.379 119.024 221.439 118.248C221.181 118.04 220.908 117.852 220.622 117.685C220.517 117.635 220.416 117.578 220.319 117.513C220.429 117.55 220.537 117.594 220.642 117.644C220.938 117.801 221.221 117.981 221.488 118.183C222.452 118.939 223.348 119.777 224.168 120.687C226.878 123.68 229.35 126.881 231.562 130.259C233.826 133.603 235.834 137.114 237.567 140.762C238.213 142.172 238.683 143.336 238.969 144.153C239.124 144.562 239.214 144.88 239.287 145.097C239.324 145.206 239.351 145.318 239.369 145.432Z" fill="#263238"/>
<path d="M247.057 169.837H232.457L230.181 152.937H249.774L247.057 169.837Z" fill="#0FB7A6"/>
<path d="M260.739 132.649C259.264 129.483 255.473 127.416 251.992 127.698C252.367 127.884 252.694 128.155 252.945 128.49C253.197 128.825 253.367 129.214 253.442 129.626C253.579 130.45 253.653 131.283 253.663 132.118C253.978 136.117 256.551 139.528 259.019 142.686C260.755 144.905 262.504 147.135 264.579 149.043C264.33 143.356 263.97 137.331 260.739 132.649Z" fill="#455A64"/>
<path d="M251.992 127.743C254.202 126.043 257.054 125.336 259.844 125.291C262.634 125.246 265.388 125.863 268.088 126.55C269.722 126.958 271.356 127.416 272.749 128.355C274.143 129.295 275.246 130.806 275.27 132.477C272.978 129.957 269.285 129.471 266.013 128.519C263.799 127.877 261.658 126.954 259.399 126.476C256.862 126.062 254.26 126.493 251.992 127.702" fill="#455A64"/>
<path d="M252.372 127.293C251.404 126.276 251.939 123.898 252.781 122.779C253.622 121.659 254.966 121.026 256.29 120.556C258.03 119.936 259.835 119.515 261.67 119.302C261.435 120.456 260.838 121.505 259.967 122.297C259.098 123.077 258.147 123.762 257.132 124.339L252.364 127.289" fill="#455A64"/>
<path d="M243.287 125.937C240.521 127.162 238.384 129.413 236.313 131.619C239.383 130.872 242.319 129.657 245.019 128.016C246.089 127.362 247.151 126.631 248.377 126.357C249.602 126.084 250.975 126.631 251.996 127.477C250.26 124.919 246.052 124.711 243.287 125.937Z" fill="#455A64"/>
<path d="M241.983 144.031C243.531 140.476 242.878 136.166 244.843 132.829C246.35 130.271 249.128 128.743 251.894 127.673C252.535 129.597 252.229 131.758 251.416 133.609C250.603 135.46 249.312 137.077 247.952 138.581C246.068 140.66 244.022 142.584 241.979 144.509" fill="#455A64"/>
<path d="M250.673 152.937H228.837V156.74H250.673V152.937Z" fill="#0FB7A6"/>
<path d="M249.946 156.858C249.946 156.919 245.219 156.964 239.393 156.964C233.568 156.964 228.837 156.919 228.837 156.858C228.837 156.797 233.564 156.752 239.393 156.752C245.223 156.752 249.946 156.801 249.946 156.858Z" fill="#263238"/>
<path d="M257.585 102.242C256.862 100.892 256.013 99.6127 255.048 98.4225C254.074 97.2294 252.78 96.3382 251.318 95.8529C249.349 95.2769 247.233 95.7344 245.272 96.3186C242.975 97.0037 240.731 97.8585 238.56 98.876C241.427 99.9549 244.579 100.011 247.482 99.0353C248.986 98.5247 250.444 98.59 252.021 98.7698C253.941 98.9863 256.343 100.763 257.585 102.242Z" fill="#455A64"/>
<path d="M205.432 124.777C201.993 129.156 200.845 134.99 201.233 140.562C203.279 133.148 207.538 126.534 213.44 121.602C215.686 119.74 218.554 118.261 221.336 118.261C215.613 117.766 208.97 120.258 205.432 124.777Z" fill="#455A64"/>
<path d="M213.423 115.981C211.503 116.124 209.746 117.096 208.161 118.183C205.735 119.85 203.455 121.954 202.397 124.719C204.546 122.19 207.286 120.229 210.373 119.009C213.46 117.79 216.801 117.351 220.098 117.73C218.007 116.676 215.752 115.809 213.423 115.981Z" fill="#455A64"/>
<path d="M218.8 109.404C217.688 110.176 216.839 111.446 216.896 112.795C216.971 113.727 217.36 114.607 217.999 115.291C218.7 116.105 219.478 116.849 220.323 117.513C221.03 114.392 221.876 111.132 222.582 108.011C221.241 108.216 219.954 108.69 218.8 109.404Z" fill="#455A64"/>
<path d="M225.311 109.105C223.772 110.03 222.532 111.379 221.741 112.991C221.01 114.625 220.707 116.667 221.627 118.195C224.261 114.256 227.103 110.459 230.14 106.822C228.461 107.426 226.844 108.191 225.311 109.105Z" fill="#455A64"/>
<path d="M230.814 114.465C229.085 114.344 227.353 114.645 225.765 115.34C224.178 116.036 222.783 117.107 221.7 118.461C223.212 117.69 224.913 117.368 226.603 117.533C230.835 118.082 235.034 118.86 239.181 119.866C238.328 118.356 237.121 117.075 235.664 116.134C234.206 115.193 232.542 114.621 230.814 114.465Z" fill="#455A64"/>
<path d="M222.101 118.195C218.857 118.375 216.022 120.871 214.89 123.915C213.758 126.958 214.147 130.41 215.368 133.417C216.59 136.424 218.595 139.047 220.716 141.506C221.778 137.829 222.848 134.152 223.318 130.386C223.788 126.619 223.428 121.766 222.101 118.195Z" fill="#455A64"/>
<g opacity="0.3">
<path d="M205.432 124.777C201.993 129.156 200.845 134.99 201.233 140.562C203.279 133.148 207.538 126.534 213.44 121.602C215.686 119.74 218.554 118.261 221.336 118.261C215.613 117.766 208.97 120.258 205.432 124.777Z" fill="black"/>
<path d="M213.423 115.981C211.503 116.124 209.746 117.096 208.161 118.183C205.735 119.85 203.455 121.954 202.397 124.719C204.546 122.19 207.286 120.229 210.373 119.009C213.46 117.79 216.801 117.351 220.098 117.73C218.007 116.676 215.752 115.809 213.423 115.981Z" fill="black"/>
<path d="M218.8 109.404C217.688 110.176 216.839 111.446 216.896 112.794C216.971 113.727 217.36 114.607 217.999 115.29C218.7 116.105 219.478 116.849 220.323 117.513C221.03 114.392 221.876 111.132 222.582 108.01C221.241 108.216 219.954 108.689 218.8 109.404Z" fill="black"/>
<path d="M225.311 109.105C223.772 110.03 222.532 111.379 221.741 112.991C221.01 114.625 220.707 116.667 221.627 118.195C224.261 114.256 227.103 110.459 230.14 106.822C228.461 107.426 226.844 108.191 225.311 109.105Z" fill="black"/>
<path d="M230.814 114.465C229.085 114.344 227.353 114.645 225.765 115.34C224.178 116.036 222.783 117.107 221.7 118.461C223.212 117.69 224.913 117.368 226.603 117.533C230.835 118.082 235.034 118.86 239.181 119.866C238.328 118.356 237.121 117.075 235.664 116.134C234.206 115.193 232.542 114.621 230.814 114.465Z" fill="black"/>
<path d="M222.101 118.195C218.857 118.375 216.022 120.871 214.89 123.914C213.758 126.958 214.147 130.41 215.368 133.417C216.59 136.424 218.595 139.046 220.716 141.506C221.778 137.829 222.848 134.152 223.318 130.386C223.788 126.619 223.428 121.766 222.101 118.195Z" fill="black"/>
</g>
<g opacity="0.2">
<path d="M260.739 132.649C259.264 129.483 255.473 127.416 251.992 127.698C252.367 127.884 252.694 128.155 252.945 128.49C253.197 128.825 253.367 129.214 253.442 129.626C253.579 130.45 253.653 131.283 253.663 132.118C253.978 136.117 256.551 139.528 259.019 142.686C260.755 144.905 262.504 147.135 264.579 149.043C264.33 143.356 263.97 137.331 260.739 132.649Z" fill="black"/>
<path d="M251.992 127.743C254.202 126.043 257.054 125.336 259.844 125.291C262.634 125.246 265.388 125.863 268.088 126.55C269.722 126.958 271.356 127.416 272.749 128.355C274.143 129.295 275.246 130.806 275.27 132.477C272.978 129.957 269.285 129.471 266.013 128.519C263.799 127.877 261.658 126.954 259.399 126.476C256.862 126.062 254.26 126.493 251.992 127.702" fill="black"/>
<path d="M252.372 127.293C251.404 126.276 251.939 123.898 252.781 122.779C253.622 121.659 254.966 121.026 256.29 120.556C258.03 119.936 259.835 119.515 261.67 119.302C261.435 120.456 260.838 121.505 259.967 122.297C259.098 123.077 258.147 123.762 257.132 124.339L252.364 127.289" fill="black"/>
<path d="M243.287 125.937C240.521 127.162 238.384 129.413 236.313 131.619C239.383 130.872 242.319 129.657 245.019 128.016C246.089 127.362 247.151 126.631 248.377 126.357C249.602 126.084 250.975 126.631 251.996 127.477C250.26 124.919 246.052 124.711 243.287 125.937Z" fill="black"/>
<path d="M241.984 144.031C243.532 140.476 242.878 136.166 244.843 132.829C246.351 130.271 249.129 128.743 251.894 127.673C252.536 129.597 252.229 131.758 251.416 133.609C250.604 135.46 249.313 137.077 247.952 138.581C246.069 140.66 244.022 142.584 241.979 144.509" fill="black"/>
</g>
<path d="M108.546 70.1523H69.2536C68.7118 70.1523 68.1923 70.3676 67.8092 70.7506C67.4261 71.1337 67.2109 71.6532 67.2109 72.195V90.0967C67.2109 90.6384 67.4261 91.158 67.8092 91.541C68.1923 91.9241 68.7118 92.1393 69.2536 92.1393H85.7377L89.2388 96.6331L92.1597 92.1393H108.55C109.092 92.1393 109.611 91.9241 109.994 91.541C110.377 91.158 110.592 90.6384 110.592 90.0967V72.1991C110.593 71.9301 110.54 71.6638 110.438 71.4152C110.335 71.1666 110.184 70.9408 109.994 70.7506C109.804 70.5605 109.578 70.4097 109.33 70.307C109.081 70.2044 108.815 70.1518 108.546 70.1523Z" fill="white"/>
<path d="M108.546 70.1524H108.742C108.934 70.1667 109.122 70.2093 109.302 70.2791C109.596 70.3907 109.861 70.5698 110.074 70.802C110.373 71.1237 110.561 71.5335 110.609 71.9704C110.646 73.919 110.637 76.7542 110.65 80.3452C110.65 82.1386 110.65 84.1241 110.65 86.2729C110.65 87.3473 110.65 88.4667 110.65 89.6228C110.662 89.9203 110.649 90.2183 110.609 90.5134C110.549 90.8169 110.422 91.1031 110.237 91.3509C110.05 91.6075 109.808 91.8188 109.529 91.9694C109.25 92.12 108.94 92.206 108.623 92.2211H92.1352L92.2169 92.1761L89.3001 96.6699L89.2224 96.7884L89.1366 96.6781L85.6315 92.1843L85.7132 92.2252H69.8623C69.5763 92.2252 69.3067 92.2252 69.0044 92.2252C68.5611 92.1744 68.1444 91.9871 67.8122 91.6893C67.4799 91.3914 67.2484 90.9976 67.1497 90.5625C67.1001 90.2807 67.0823 89.9943 67.0966 89.7086V88.8916C67.0966 86.6719 67.0966 84.4931 67.0966 82.3551V76.0189C67.0966 74.9839 67.0966 73.9626 67.0966 72.9549V72.1991C67.0968 71.8054 67.2056 71.4194 67.411 71.0836C67.6164 70.7477 67.9105 70.475 68.2609 70.2954C68.4901 70.1761 68.7394 70.0999 68.9962 70.0707C69.2536 70.0462 69.4905 70.0707 69.7357 70.0707H74.0334H79.4668H89.2265L103.357 70.1034L107.198 70.1238H108.199H108.538H108.199H107.198L103.357 70.1442L89.2265 70.1769H79.4668H69.7438C69.5028 70.1769 69.2536 70.1769 69.0248 70.1769C68.7918 70.2018 68.5658 70.2711 68.3589 70.3812C68.0418 70.5451 67.7758 70.7929 67.59 71.0976C67.4041 71.4024 67.3055 71.7523 67.3049 72.1093V75.929C67.3049 77.9921 67.3049 80.1041 67.3049 82.2489V89.631C67.2914 89.9043 67.3078 90.1783 67.3539 90.4481C67.4139 90.7075 67.5264 90.952 67.6845 91.1663C67.8426 91.3806 68.0429 91.5602 68.2731 91.6941C68.5031 91.8296 68.7594 91.9146 69.0248 91.9433C69.2863 91.9678 69.5804 91.9433 69.8419 91.9433H85.7745L85.803 91.9841L89.3041 96.4779H89.1407L92.0617 91.9841L92.0903 91.9392H92.1434H108.623C109.061 91.9199 109.479 91.755 109.812 91.4708C110.145 91.1866 110.374 90.7994 110.462 90.3704C110.5 90.0848 110.514 89.7964 110.503 89.5084C110.503 88.3523 110.503 87.233 110.503 86.1585C110.503 84.0097 110.503 82.0242 110.503 80.2308C110.503 76.6439 110.531 73.7965 110.503 71.8601C110.462 71.4947 110.324 71.1471 110.103 70.8537C109.881 70.5604 109.585 70.3322 109.244 70.1933C109.015 70.1463 108.779 70.1325 108.546 70.1524Z" fill="#263238"/>
<path d="M78.4698 74.0662H74.5561C74.2673 74.0662 74.0332 74.3003 74.0332 74.5891V77.3834C74.0332 77.6722 74.2673 77.9063 74.5561 77.9063H78.4698C78.7586 77.9063 78.9927 77.6722 78.9927 77.3834V74.5891C78.9927 74.3003 78.7586 74.0662 78.4698 74.0662Z" fill="#0FB7A6"/>
<path d="M74.1149 74.1684L76.0023 76.1824C76.1033 76.3192 76.2471 76.4184 76.4108 76.4643C76.5133 76.4798 76.618 76.4684 76.7148 76.4312C76.8115 76.3939 76.8968 76.3321 76.9624 76.2518C77.3055 75.9005 77.6323 75.5369 77.9673 75.1815C78.3023 74.8261 78.6046 74.5074 78.9192 74.1684C78.9259 74.1581 78.9289 74.1459 78.9276 74.1338C78.9264 74.1216 78.921 74.1103 78.9123 74.1017C78.9037 74.093 78.8924 74.0876 78.8802 74.0864C78.8681 74.0851 78.8559 74.0881 78.8457 74.0948L77.0441 76.0149C76.9614 76.1221 76.8653 76.2182 76.7581 76.3009C76.4885 76.4724 76.2597 76.3009 76.0799 76.1089C75.7368 75.7494 75.3977 75.3858 75.0586 75.0222L74.1925 74.0948C74.1476 74.0499 74.0741 74.1193 74.119 74.1684H74.1149Z" fill="white"/>
<path d="M74.0947 77.8819L75.6104 76.1579L75.8228 75.9168C75.8677 75.8678 75.7942 75.7943 75.7533 75.8433C75.2468 76.4193 74.7402 76.9913 74.2377 77.5673L74.0212 77.8083C73.9803 77.8574 74.0498 77.9309 74.0947 77.8819Z" fill="white"/>
<path d="M78.9153 77.7306L77.4977 76.0964L77.2934 75.8595C77.2485 75.8064 77.1791 75.8595 77.2199 75.9289L78.6375 77.5631C78.707 77.6448 78.7764 77.7224 78.8418 77.8041C78.9071 77.8858 78.9602 77.7796 78.9153 77.7306Z" fill="white"/>
<path d="M82.6533 77.2936V76.0231L82.0283 77.0689H81.8077L81.1867 76.0476V77.2936H80.7251V75.1733H81.1336L81.918 76.5051L82.6983 75.1856H83.1068V77.3059L82.6533 77.2936Z" fill="#263238"/>
<path d="M85.1859 76.6113H83.9603C83.9854 76.7128 84.0464 76.8018 84.132 76.8619C84.2176 76.922 84.322 76.949 84.4261 76.9381C84.5012 76.9416 84.5762 76.9297 84.6465 76.903C84.7168 76.8763 84.7808 76.8354 84.8346 76.7828L85.0879 77.0566C85.0013 77.1466 84.8961 77.2166 84.7797 77.2618C84.6633 77.3069 84.5384 77.3261 84.4138 77.318C84.2964 77.33 84.1779 77.3173 84.0657 77.2807C83.9536 77.2441 83.8503 77.1844 83.7626 77.1056C83.6749 77.0267 83.6046 76.9303 83.5564 76.8227C83.5081 76.715 83.4829 76.5985 83.4824 76.4805C83.4787 76.3666 83.4989 76.2531 83.5417 76.1474C83.5846 76.0418 83.649 75.9462 83.731 75.8669C83.8129 75.7877 83.9106 75.7264 84.0176 75.6872C84.1247 75.6479 84.2387 75.6315 84.3525 75.639C84.4654 75.6365 84.5776 75.6575 84.682 75.7006C84.7864 75.7436 84.8808 75.8079 84.9591 75.8893C85.0374 75.9707 85.098 76.0674 85.137 76.1734C85.1761 76.2794 85.1927 76.3923 85.1859 76.505C85.1859 76.505 85.1859 76.5745 85.1859 76.6113ZM83.9603 76.3375H84.7774C84.7774 76.2292 84.7343 76.1253 84.6577 76.0487C84.5811 75.9721 84.4772 75.929 84.3689 75.929C84.2605 75.929 84.1566 75.9721 84.08 76.0487C84.0034 76.1253 83.9603 76.2292 83.9603 76.3375Z" fill="#263238"/>
<path d="M85.333 77.1422L85.4923 76.8031C85.6624 76.9063 85.8572 76.9614 86.0561 76.9625C86.2767 76.9625 86.3584 76.9012 86.3584 76.8113C86.3584 76.5458 85.3739 76.8113 85.3739 76.1658C85.3739 75.8594 85.6517 75.6388 86.1256 75.6388C86.3437 75.6354 86.5595 75.6844 86.7547 75.7818L86.5954 76.1168C86.4519 76.0366 86.2899 75.9957 86.1256 75.9983C85.9131 75.9983 85.8232 76.0637 85.8232 76.1495C85.8232 76.4273 86.8078 76.1495 86.8078 76.7991C86.8078 77.1014 86.5259 77.3179 86.0398 77.3179C85.7927 77.324 85.5485 77.2633 85.333 77.1422Z" fill="#263238"/>
<path d="M86.9429 77.1423L87.0981 76.8032C87.2698 76.9059 87.4659 76.9609 87.666 76.9625C87.8825 76.9625 87.9642 76.9012 87.9642 76.8114C87.9642 76.5458 86.9796 76.8114 86.9796 76.1659C86.9796 75.8595 87.2574 75.6389 87.7354 75.6389C87.9523 75.6349 88.1669 75.684 88.3605 75.7819L88.2052 76.1169C88.0616 76.0372 87.8997 75.9963 87.7354 75.9984C87.523 75.9984 87.4331 76.0638 87.4331 76.1496C87.4331 76.4274 88.4177 76.1496 88.4177 76.7991C88.4177 77.1014 88.1358 77.3179 87.6455 77.3179C87.3998 77.3236 87.1571 77.2629 86.9429 77.1423Z" fill="#263238"/>
<path d="M90.1499 76.3621V77.2936H89.7046V77.0893C89.6508 77.1689 89.5764 77.2322 89.4893 77.2725C89.4022 77.3129 89.3057 77.3286 89.2103 77.3181C88.8263 77.3181 88.6016 77.1057 88.6016 76.8238C88.6016 76.5419 88.8017 76.3376 89.3002 76.3376H89.6801C89.6801 76.1334 89.5575 76.0149 89.3042 76.0149C89.1355 76.0137 88.9708 76.0667 88.8344 76.1661L88.6669 75.8352C88.8763 75.7011 89.1211 75.6329 89.3696 75.6391C89.8598 75.6391 90.1499 75.8719 90.1499 76.3621ZM89.676 76.7707V76.6032H89.3533C89.1327 76.6032 89.0591 76.6849 89.0591 76.7952C89.0591 76.9055 89.1613 76.9913 89.3288 76.9913C89.4023 76.9978 89.476 76.9808 89.5392 76.9426C89.6024 76.9044 89.6517 76.847 89.6801 76.7788L89.676 76.7707Z" fill="#263238"/>
<path d="M92.2739 75.6635V77.0198C92.2853 77.1415 92.2691 77.2642 92.2267 77.3789C92.1843 77.4936 92.1167 77.5973 92.0289 77.6824C91.9411 77.7675 91.8353 77.8318 91.7193 77.8705C91.6033 77.9092 91.4801 77.9215 91.3588 77.9063C91.0694 77.9206 90.7831 77.8418 90.5417 77.6816L90.7297 77.3425C90.8978 77.4624 91.0992 77.5267 91.3057 77.5263C91.6407 77.5263 91.7837 77.3752 91.7837 77.081V77.0116C91.7179 77.081 91.6378 77.1353 91.5489 77.1705C91.46 77.2058 91.3644 77.2213 91.2689 77.2159C91.0598 77.2159 90.8593 77.1328 90.7114 76.9849C90.5635 76.8371 90.4805 76.6365 90.4805 76.4274C90.4805 76.2183 90.5635 76.0177 90.7114 75.8699C90.8593 75.722 91.0598 75.6389 91.2689 75.6389C91.3707 75.6333 91.4724 75.6514 91.566 75.6918C91.6596 75.7322 91.7425 75.7939 91.8082 75.8718V75.6635H92.2739ZM91.8082 76.4274C91.8122 76.341 91.79 76.2553 91.7445 76.1817C91.6989 76.1081 91.6322 76.05 91.553 76.0151C91.4739 75.9801 91.386 75.9699 91.3009 75.9858C91.2158 76.0017 91.1376 76.0429 91.0764 76.1041C91.0152 76.1653 90.9739 76.2436 90.958 76.3287C90.9421 76.4137 90.9524 76.5016 90.9873 76.5808C91.0223 76.6599 91.0804 76.7267 91.154 76.7722C91.2276 76.8177 91.3132 76.84 91.3997 76.8359C91.508 76.8359 91.6119 76.7929 91.6885 76.7163C91.7651 76.6397 91.8082 76.5357 91.8082 76.4274Z" fill="#263238"/>
<path d="M94.3 76.6112H93.0744C93.0995 76.7128 93.1605 76.8018 93.2461 76.8619C93.3317 76.9219 93.4361 76.949 93.5401 76.9381C93.6153 76.9419 93.6904 76.9301 93.7607 76.9033C93.831 76.8766 93.895 76.8356 93.9487 76.7828L94.2019 77.0565C94.1154 77.1466 94.0102 77.2166 93.8938 77.2617C93.7774 77.3069 93.6525 77.3261 93.5279 77.318C93.4108 77.3294 93.2927 77.3162 93.1811 77.2793C93.0694 77.2425 92.9666 77.1827 92.8794 77.1039C92.7921 77.0251 92.7222 76.929 92.6742 76.8216C92.6262 76.7143 92.6011 76.5981 92.6005 76.4805C92.5969 76.3669 92.617 76.2538 92.6596 76.1484C92.7022 76.0431 92.7663 75.9477 92.8478 75.8685C92.9293 75.7893 93.0264 75.728 93.133 75.6885C93.2395 75.6489 93.3531 75.6321 93.4666 75.6389C93.5791 75.6344 93.6913 75.6531 93.7961 75.6939C93.901 75.7347 93.9964 75.7968 94.0762 75.8762C94.1559 75.9556 94.2185 76.0506 94.2598 76.1553C94.3011 76.26 94.3204 76.3721 94.3163 76.4846C94.3082 76.505 94.3041 76.5745 94.3 76.6112ZM93.0744 76.3375H93.8915C93.8915 76.2292 93.8484 76.1253 93.7718 76.0487C93.6952 75.972 93.5913 75.929 93.4829 75.929C93.3746 75.929 93.2707 75.972 93.1941 76.0487C93.1175 76.1253 93.0744 76.2292 93.0744 76.3375Z" fill="#263238"/>
<path d="M94.4639 77.1422L94.6232 76.8031C94.7947 76.9064 94.9909 76.9615 95.191 76.9625C95.4076 76.9625 95.4893 76.9012 95.4893 76.8113C95.4893 76.5458 94.5047 76.8113 94.5047 76.1658C94.5047 75.8594 94.7825 75.6388 95.2605 75.6388C95.4773 75.6354 95.6918 75.6844 95.8855 75.7818L95.7303 76.1168C95.5865 76.0375 95.4247 75.9966 95.2605 75.9983C95.0481 75.9983 94.9541 76.0637 94.9541 76.1495C94.9541 76.4273 95.9387 76.1495 95.9387 76.7991C95.9387 77.1014 95.6609 77.3179 95.1706 77.3179C94.9236 77.3234 94.6796 77.2628 94.4639 77.1422Z" fill="#263238"/>
<path d="M96.9887 76.2353C96.9756 76.0035 97.0323 75.7731 97.1516 75.5739C97.2709 75.3748 97.4472 75.2159 97.6577 75.118C97.8682 75.0201 98.1033 74.9876 98.3325 75.0247C98.5617 75.0618 98.7745 75.1668 98.9433 75.3262C99.1122 75.4855 99.2293 75.6919 99.2797 75.9185C99.33 76.1452 99.3111 76.3817 99.2256 76.5975C99.14 76.8134 98.9917 76.9986 98.7997 77.1292C98.6078 77.2598 98.3811 77.3298 98.1489 77.3302C97.9998 77.3385 97.8506 77.3164 97.7104 77.2652C97.5702 77.2139 97.4419 77.1347 97.3334 77.0322C97.2248 76.9298 97.1382 76.8063 97.079 76.6693C97.0197 76.5323 96.989 76.3846 96.9887 76.2353ZM98.8107 76.2353C98.8083 76.104 98.7671 75.9763 98.6923 75.8684C98.6175 75.7604 98.5124 75.677 98.3903 75.6286C98.2682 75.5802 98.1345 75.569 98.006 75.5964C97.8776 75.6238 97.7601 75.6885 97.6683 75.7825C97.5766 75.8765 97.5147 75.9956 97.4905 76.1247C97.4662 76.2538 97.4807 76.3871 97.532 76.508C97.5834 76.6289 97.6694 76.7319 97.7791 76.8041C97.8889 76.8762 98.0175 76.9143 98.1489 76.9135C98.2377 76.9153 98.3259 76.8988 98.408 76.8651C98.4902 76.8315 98.5646 76.7813 98.6266 76.7177C98.6887 76.6542 98.737 76.5786 98.7686 76.4956C98.8003 76.4126 98.8146 76.3241 98.8107 76.2353Z" fill="#263238"/>
<path d="M100.085 75.5736H99.4072V75.165H101.254V75.5736H100.576V77.2935H100.085V75.5736Z" fill="#263238"/>
<path d="M103.358 75.9414C103.358 76.4153 103.002 76.7094 102.434 76.7094H102.026V77.2936H101.527V75.1733H102.442C103.002 75.1733 103.358 75.4675 103.358 75.9414ZM102.859 75.9414C102.859 75.7085 102.708 75.5737 102.41 75.5737H102.001V76.309H102.41C102.708 76.309 102.859 76.1742 102.859 75.9414Z" fill="#263238"/>
<path d="M73.7471 83.4949C73.7471 81.4931 74.8583 80.3574 76.3453 80.3574C77.8323 80.3574 78.9476 81.4931 78.9476 83.4949C78.9476 85.4967 77.8446 86.6324 76.3453 86.6324C74.846 86.6324 73.7471 85.4926 73.7471 83.4949ZM77.5341 83.4949C77.5341 82.1182 77.048 81.5462 76.3453 81.5462C75.6426 81.5462 75.1687 82.1182 75.1687 83.4949C75.1687 84.8717 75.6549 85.4436 76.3453 85.4436C77.0357 85.4436 77.5382 84.8717 77.5382 83.4949H77.5341Z" fill="#263238"/>
<path d="M84.7123 84.7696C84.7123 85.9135 83.691 86.6325 82.1509 86.6325C80.6107 86.6325 79.6017 85.9135 79.6017 84.7696C79.5982 84.4675 79.6834 84.171 79.8468 83.9168C80.0102 83.6627 80.2446 83.462 80.5209 83.3398C80.306 83.2157 80.1277 83.0369 80.0043 82.8217C79.8809 82.6064 79.8167 82.3623 79.8182 82.1142C79.8182 81.0479 80.7701 80.3779 82.1509 80.3779C83.5317 80.3779 84.4958 81.0479 84.4958 82.1142C84.4965 82.3631 84.431 82.6078 84.3062 82.8231C84.1813 83.0384 84.0014 83.2167 83.785 83.3398C84.0638 83.4595 84.3007 83.6593 84.4658 83.9138C84.6309 84.1684 84.7167 84.4662 84.7123 84.7696ZM83.2948 84.7247C83.2948 84.1895 82.8495 83.8586 82.1509 83.8586C81.4523 83.8586 81.0233 84.1895 81.0233 84.7247C81.0233 85.2598 81.4564 85.603 82.1509 85.603C82.8454 85.603 83.2948 85.2639 83.2948 84.7247ZM81.2153 82.1509C81.2153 82.6126 81.5789 82.8985 82.1509 82.8985C82.7228 82.8985 83.1027 82.6126 83.1027 82.1509C83.1027 81.6893 82.7351 81.4074 82.1509 81.4074C81.5667 81.4074 81.2153 81.6771 81.2153 82.1509Z" fill="#263238"/>
<path d="M90.4357 84.7696C90.4357 85.9135 89.4103 86.6325 87.8701 86.6325C86.33 86.6325 85.3209 85.9135 85.3209 84.7696C85.3174 84.4675 85.4027 84.171 85.5661 83.9168C85.7294 83.6627 85.9638 83.462 86.2401 83.3398C86.0252 83.2157 85.847 83.0369 85.7236 82.8217C85.6001 82.6064 85.5359 82.3623 85.5374 82.1142C85.5374 81.0479 86.4934 80.3779 87.8701 80.3779C89.2469 80.3779 90.2192 81.0479 90.2192 82.1142C90.219 82.3629 90.1532 82.6073 90.0284 82.8225C89.9036 83.0376 89.7242 83.2161 89.5083 83.3398C89.7868 83.4599 90.0234 83.6598 90.1885 83.9143C90.3535 84.1687 90.4395 84.4663 90.4357 84.7696ZM89.014 84.7247C89.014 84.1895 88.5728 83.8586 87.8701 83.8586C87.1674 83.8586 86.7426 84.1895 86.7426 84.7247C86.7426 85.2598 87.1756 85.603 87.8701 85.603C88.5646 85.603 89.014 85.2639 89.014 84.7247ZM86.9346 82.1509C86.9346 82.6126 87.2982 82.8985 87.8701 82.8985C88.4421 82.8985 88.822 82.6126 88.822 82.1509C88.822 81.6893 88.4543 81.4074 87.8701 81.4074C87.2859 81.4074 86.9346 81.6771 86.9346 82.1509Z" fill="#263238"/>
<path d="M93.418 80.4636V86.5303H92.0127V81.5912H90.7871V80.4636H93.418Z" fill="#263238"/>
<path d="M99.0065 85.3864V86.5302H94.4228V85.6192L96.7596 83.4091C97.2989 82.8984 97.3928 82.592 97.3928 82.2897C97.3928 81.8158 97.066 81.538 96.4246 81.538C96.1814 81.5281 95.9395 81.5781 95.7201 81.6835C95.5007 81.7889 95.3106 81.9466 95.1663 82.1427L94.145 81.4849C94.4229 81.113 94.7883 80.8155 95.2088 80.6188C95.6292 80.4221 96.0918 80.3323 96.5553 80.3574C97.9035 80.3574 98.8063 81.0519 98.8063 82.1508C98.8063 82.7432 98.6429 83.2784 97.7932 84.0668L96.396 85.3864H99.0065Z" fill="#263238"/>
<path d="M104.069 84.6755C104.069 85.6969 103.28 86.6324 101.556 86.6324C100.737 86.6476 99.9315 86.4217 99.2397 85.9828L99.7872 84.9084C100.292 85.2696 100.899 85.4613 101.519 85.4558C102.222 85.4558 102.655 85.1699 102.655 84.6755C102.655 84.1812 102.316 83.9279 101.519 83.9279H100.878V83.0006L102.128 81.5912H99.5461V80.4636H103.791V81.3746L102.422 82.9311C103.513 83.1068 104.069 83.7809 104.069 84.6755Z" fill="#263238"/>
</svg>
