<svg width="9" height="9" viewBox="0 0 9 9" fill="none" xmlns="http://www.w3.org/2000/svg">
<ellipse cx="4.39884" cy="4.45162" rx="4.04703" ry="4.09567" fill="#0FB7A6"/>
<g clip-path="url(#clip0_829_4696)">
<path d="M5.37401 2.96767C4.29942 2.3398 3.0184 2.04245 2.64957 2.68896C2.28074 3.33546 3.17571 4.30952 4.2503 4.93739C5.3251 5.56538 6.60591 5.86261 6.97473 5.2161C7.34356 4.5696 6.44881 3.59567 5.37401 2.96767ZM3.05189 4.51089L2.67732 5.16746C2.9075 5.3892 3.18049 5.60211 3.47481 5.79129L3.84938 5.13472C3.56452 4.95296 3.29747 4.74407 3.05189 4.51089ZM4.28202 5.38721L3.90745 6.04379C4.2053 6.20281 4.51761 6.33242 4.84003 6.43081L5.2146 5.77424C4.89218 5.67585 4.57987 5.54624 4.28202 5.38721ZM5.72702 5.88689L5.35245 6.54346C5.8362 6.60579 6.23308 6.51611 6.41288 6.20096L6.78745 5.54439C6.60766 5.85954 6.21077 5.94922 5.72702 5.88689ZM2.32484 4.77446L2.69941 4.11789C2.40441 3.72521 2.28262 3.33218 2.46229 3.01724L2.08772 3.67381C1.90805 3.98875 2.02984 4.38178 2.32484 4.77446Z" fill="white"/>
</g>
<defs>
<clipPath id="clip0_829_4696">
<rect width="6.71586" height="6.46096" fill="white" transform="matrix(0.86342 0.504486 -0.495527 0.868593 3.20142 0)"/>
</clipPath>
</defs>
</svg>
