<svg width="26" height="26" viewBox="0 0 26 26" fill="none" xmlns="http://www.w3.org/2000/svg">
<circle cx="12.5" cy="12.5" r="11.5" fill="white"/>
<g clip-path="url(#clip0_234_557)">
<path d="M15.2709 8.33368C12.2174 6.57072 8.57722 5.73581 7.52917 7.55109C6.48112 9.36637 9.02424 12.1014 12.0778 13.8643C15.1319 15.6276 18.7715 16.4622 19.8195 14.6469C20.8676 12.8316 18.325 10.097 15.2709 8.33368ZM8.6724 12.6668L7.60802 14.5103C8.2621 15.133 9.03783 15.7308 9.87415 16.262L10.9385 14.4184C10.1291 13.9081 9.37025 13.3215 8.6724 12.6668ZM12.1679 15.1274L11.1035 16.9709C11.9499 17.4174 12.8374 17.7814 13.7535 18.0576L14.8179 16.2141C13.9017 15.9378 13.0143 15.5739 12.1679 15.1274ZM16.274 16.5304L15.2096 18.3739C16.5843 18.549 17.712 18.2972 18.2229 17.4122L19.2873 15.5687C18.7764 16.4536 17.6486 16.7054 16.274 16.5304ZM6.60641 13.4069L7.67079 11.5633C6.83252 10.4607 6.48644 9.35716 6.99698 8.47287L5.93261 10.3164C5.42206 11.2007 5.76815 12.3043 6.60641 13.4069Z" fill="#0FB7A6"/>
</g>
<defs>
<clipPath id="clip0_234_557">
<rect width="19.0263" height="18.1952" fill="white" transform="translate(9.09753) rotate(30)"/>
</clipPath>
</defs>
</svg>
