<svg width="13" height="13" viewBox="0 0 13 13" fill="none" xmlns="http://www.w3.org/2000/svg">
<g clip-path="url(#clip0_181_610)">
<path d="M3.33203 3.13704C5.15602 1.44054 8.01502 1.47054 9.79027 3.23304C10.4891 3.9238 10.9458 4.82197 11.0923 5.79354L12.65 5.7418C12.4853 4.37786 11.8639 3.10982 10.8868 2.14404C8.50927 -0.217706 4.67003 -0.246206 2.23853 2.05179L0.924525 0.746044L0.698775 4.87854L5.07427 4.86729L3.33203 3.13704ZM12.3013 8.12229L7.92577 8.13355L9.66727 9.8638C7.84177 11.5603 4.98278 11.5303 3.20902 9.7678C2.51007 9.07717 2.05333 8.17894 1.90703 7.20729L0.350024 7.25904C0.514914 8.62298 1.13604 9.89112 2.11252 10.8575C4.49152 13.2185 8.33077 13.247 10.7608 10.949L12.0763 12.2548L12.3013 8.12229Z" fill="white"/>
</g>
<defs>
<clipPath id="clip0_181_610">
<rect width="13" height="13" fill="white" transform="translate(13) rotate(90)"/>
</clipPath>
</defs>
</svg>
