<svg width="211" height="250" viewBox="0 0 211 250" fill="none" xmlns="http://www.w3.org/2000/svg">
<path d="M152.803 43.2754H0.141113V239.199H152.803V43.2754Z" fill="white"/>
<path d="M152.803 239.192C152.803 237.813 152.736 159.556 152.642 43.2753L152.803 43.43H0.147949L0.322803 43.2552C0.322803 115.931 0.322803 183.409 0.322803 239.172L0.174854 239.031L152.83 239.172L0.174854 239.32H0.0336163V239.172C0.0336163 183.409 0.0336245 115.931 0 43.2552V43.0803H0.195028H152.85H153.005V43.2417C152.864 159.556 152.803 237.813 152.803 239.192Z" fill="#263238"/>
<path d="M137.047 118.022H16.3682C15.8296 118.022 15.3931 118.459 15.3931 118.998V138.231C15.3931 138.769 15.8296 139.206 16.3682 139.206H137.047C137.585 139.206 138.022 138.769 138.022 138.231V118.998C138.022 118.459 137.585 118.022 137.047 118.022Z" fill="#EBEBEB"/>
<path d="M137.168 147.115H16.4893C15.9507 147.115 15.5142 147.551 15.5142 148.09V167.323C15.5142 167.862 15.9507 168.298 16.4893 168.298H137.168C137.706 168.298 138.143 167.862 138.143 167.323V148.09C138.143 147.551 137.706 147.115 137.168 147.115Z" fill="#EBEBEB"/>
<path d="M28.8096 127.404C28.8096 128.466 28.0363 129.112 26.7921 129.112H25.5817V130.591H24.9092V125.696H26.8191C28.0161 125.682 28.8096 126.328 28.8096 127.404ZM28.1371 127.404C28.1371 126.731 27.6664 126.301 26.7921 126.301H25.6018V128.5H26.7921C27.6193 128.487 28.09 128.076 28.09 127.404H28.1371Z" fill="#263238"/>
<path d="M32.6224 128.339V130.578H31.9836V130.094C31.8426 130.279 31.657 130.425 31.4442 130.519C31.2314 130.613 30.9982 130.652 30.7664 130.632C29.9258 130.632 29.4214 130.181 29.4214 129.536C29.4214 128.89 29.8047 128.453 30.9143 128.453H31.9768V128.318C31.9768 127.754 31.6473 127.424 30.9816 127.424C30.5559 127.42 30.1413 127.56 29.8047 127.821L29.529 127.316C29.9723 126.996 30.5088 126.831 31.0555 126.846C32.0441 126.839 32.6224 127.323 32.6224 128.339ZM31.95 129.448V128.93H30.9143C30.2418 128.93 30.0602 129.186 30.0602 129.502C30.0602 129.818 30.3696 130.101 30.8807 130.101C31.1077 130.114 31.3331 130.056 31.525 129.934C31.7169 129.812 31.8656 129.632 31.95 129.421V129.448Z" fill="#263238"/>
<path d="M33.396 130.188L33.6717 129.657C34.0607 129.907 34.5137 130.04 34.9764 130.04C35.6018 130.04 35.8573 129.852 35.8573 129.536C35.8573 128.702 33.517 129.428 33.517 127.949C33.517 127.276 34.1088 126.839 35.0638 126.839C35.534 126.829 35.9983 126.945 36.4087 127.175L36.1263 127.706C35.8053 127.503 35.4305 127.399 35.0503 127.411C34.4653 127.411 34.1761 127.626 34.1761 127.922C34.1761 128.796 36.5298 128.083 36.5298 129.522C36.5298 130.195 35.9178 130.625 34.9293 130.625C34.3858 130.638 33.8512 130.485 33.396 130.188Z" fill="#263238"/>
<path d="M36.8794 130.188L37.1618 129.657C37.548 129.908 37.999 130.041 38.4597 130.04C39.0851 130.04 39.3407 129.852 39.3407 129.536C39.3407 128.702 37.0004 129.428 37.0004 127.949C37.0004 127.276 37.5922 126.839 38.5472 126.839C39.0172 126.832 39.4809 126.948 39.8921 127.175L39.603 127.706C39.284 127.503 38.9117 127.4 38.5337 127.411C37.9419 127.411 37.6528 127.626 37.6528 127.922C37.6528 128.796 40.0065 128.083 40.0065 129.522C40.0065 130.195 39.3945 130.625 38.406 130.625C37.8647 130.636 37.3327 130.484 36.8794 130.188Z" fill="#263238"/>
<path d="M46.4152 126.873L45.0298 130.578H44.3573L43.2881 127.767L42.2592 130.578H41.5867L40.2417 126.873H40.8806L41.9565 129.825L43.0729 126.873H43.6042L44.7003 129.838L45.8032 126.873H46.4152Z" fill="#263238"/>
<path d="M46.6439 128.749C46.6372 128.366 46.7447 127.989 46.9527 127.668C47.1607 127.346 47.4597 127.093 47.8117 126.942C48.1638 126.791 48.5529 126.748 48.9295 126.818C49.306 126.889 49.6531 127.07 49.9264 127.339C50.1997 127.607 50.3868 127.951 50.4641 128.326C50.5413 128.701 50.5051 129.091 50.3601 129.446C50.215 129.8 49.9677 130.104 49.6496 130.318C49.3316 130.531 48.9571 130.645 48.574 130.645C48.3201 130.657 48.0665 130.617 47.8291 130.526C47.5916 130.436 47.3755 130.297 47.1943 130.119C47.013 129.941 46.8705 129.727 46.7758 129.491C46.6811 129.256 46.6362 129.003 46.6439 128.749V128.749ZM49.8181 128.749C49.8075 128.504 49.7251 128.267 49.5811 128.068C49.4371 127.87 49.2379 127.718 49.0082 127.632C48.7786 127.545 48.5286 127.529 48.2894 127.583C48.0503 127.638 47.8325 127.762 47.6632 127.939C47.4938 128.117 47.3805 128.34 47.3372 128.582C47.2939 128.823 47.3226 129.072 47.4196 129.298C47.5167 129.523 47.6779 129.715 47.8831 129.849C48.0884 129.983 48.3286 130.055 48.574 130.053C48.7437 130.058 48.9124 130.026 49.0693 129.961C49.2262 129.897 49.3678 129.8 49.4849 129.677C49.6021 129.554 49.6923 129.408 49.7496 129.248C49.807 129.088 49.8303 128.918 49.8181 128.749V128.749Z" fill="#263238"/>
<path d="M53.4226 126.839V127.512H53.2679C53.1039 127.501 52.9396 127.527 52.7869 127.588C52.6341 127.649 52.4968 127.743 52.3848 127.863C52.2728 127.983 52.189 128.127 52.1394 128.284C52.0898 128.44 52.0755 128.606 52.0978 128.769V130.612H51.4253V126.906H52.0978V127.525C52.2331 127.299 52.4288 127.115 52.6628 126.994C52.8968 126.873 53.1598 126.819 53.4226 126.839V126.839Z" fill="#263238"/>
<path d="M57.7268 125.386V130.578H57.0543V129.993C56.8987 130.2 56.6948 130.366 56.4604 130.476C56.2259 130.586 55.9681 130.638 55.7093 130.625C55.2268 130.596 54.7734 130.384 54.4419 130.033C54.1104 129.681 53.9258 129.216 53.9258 128.732C53.9258 128.249 54.1104 127.784 54.4419 127.432C54.7734 127.08 55.2268 126.868 55.7093 126.839C55.9624 126.819 56.2165 126.86 56.4506 126.958C56.6846 127.056 56.8916 127.209 57.0543 127.404V125.386H57.7268ZM57.0543 128.749C57.0438 128.504 56.9615 128.268 56.8179 128.069C56.6742 127.871 56.4753 127.719 56.246 127.632C56.0168 127.546 55.7671 127.529 55.5282 127.583C55.2892 127.637 55.0714 127.76 54.9018 127.937C54.7322 128.114 54.6182 128.337 54.5742 128.578C54.5301 128.819 54.5578 129.068 54.6539 129.293C54.7499 129.518 54.9101 129.711 55.1145 129.846C55.3188 129.981 55.5584 130.053 55.8035 130.054C55.9735 130.058 56.1425 130.026 56.2997 129.961C56.4569 129.897 56.5989 129.8 56.7166 129.677C56.8342 129.554 56.925 129.408 56.9832 129.249C57.0413 129.089 57.0656 128.919 57.0543 128.749V128.749Z" fill="#263238"/>
<path d="M24.4383 158.594C24.4333 158.256 24.4977 157.92 24.6275 157.608C24.7573 157.295 24.9498 157.013 25.193 156.778C25.4363 156.543 25.7252 156.36 26.0418 156.241C26.3585 156.122 26.6962 156.069 27.0341 156.086C27.3804 156.072 27.7255 156.134 28.0459 156.266C28.3662 156.399 28.6542 156.599 28.8901 156.852L28.4396 157.29C28.2637 157.101 28.0499 156.952 27.8123 156.852C27.5747 156.753 27.3186 156.705 27.061 156.711C26.5616 156.711 26.0826 156.91 25.7295 157.263C25.3764 157.616 25.178 158.095 25.178 158.594C25.178 159.094 25.3764 159.572 25.7295 159.926C26.0826 160.279 26.5616 160.477 27.061 160.477C27.3197 160.483 27.5767 160.433 27.8145 160.331C28.0524 160.229 28.2655 160.077 28.4396 159.885L28.8901 160.329C28.6532 160.584 28.364 160.784 28.0425 160.916C27.721 161.048 27.3747 161.11 27.0274 161.096C26.6906 161.111 26.3542 161.058 26.0388 160.939C25.7234 160.82 25.4357 160.638 25.1932 160.403C24.9508 160.169 24.7588 159.888 24.629 159.577C24.4991 159.266 24.4342 158.931 24.4383 158.594V158.594Z" fill="#263238"/>
<path d="M29.2936 159.186C29.287 158.803 29.3943 158.427 29.602 158.105C29.8097 157.784 30.1083 157.531 30.4599 157.38C30.8116 157.228 31.2003 157.185 31.5767 157.255C31.9531 157.325 32.3001 157.505 32.5737 157.773C32.8472 158.041 33.035 158.384 33.113 158.759C33.1909 159.134 33.1557 159.523 33.0117 159.878C32.8677 160.233 32.6214 160.537 32.3042 160.751C31.987 160.966 31.6133 161.081 31.2304 161.082C30.9763 161.094 30.7224 161.054 30.4846 160.963C30.2468 160.873 30.0303 160.734 29.8485 160.556C29.6667 160.378 29.5236 160.165 29.4281 159.929C29.3326 159.693 29.2869 159.44 29.2936 159.186V159.186ZM32.4745 159.186C32.4745 158.854 32.3427 158.536 32.1081 158.301C31.8736 158.067 31.5554 157.935 31.2237 157.935C30.8919 157.935 30.5738 158.067 30.3392 158.301C30.1046 158.536 29.9728 158.854 29.9728 159.186C29.9728 159.518 30.1046 159.836 30.3392 160.07C30.5738 160.305 30.8919 160.437 31.2237 160.437C31.5554 160.437 31.8736 160.305 32.1081 160.07C32.3427 159.836 32.4745 159.518 32.4745 159.186V159.186Z" fill="#263238"/>
<path d="M37.5992 158.91V161.029H36.9267V159.011C36.9267 158.285 36.5635 157.928 35.9314 157.928C35.7688 157.915 35.6052 157.938 35.4527 157.996C35.3002 158.054 35.1625 158.145 35.0497 158.263C34.937 158.381 34.8519 158.523 34.8009 158.678C34.7498 158.833 34.734 158.997 34.7545 159.159V161.029H34.082V157.323H34.7545V157.881C34.9137 157.68 35.1192 157.521 35.3534 157.417C35.5876 157.312 35.8436 157.266 36.0995 157.283C36.3104 157.272 36.5212 157.308 36.7167 157.388C36.9123 157.468 37.0878 157.589 37.231 157.745C37.3741 157.9 37.4813 158.085 37.5449 158.286C37.6086 158.488 37.6271 158.701 37.5992 158.91V158.91Z" fill="#263238"/>
<path d="M40.1676 155.81C40.4354 155.798 40.6999 155.873 40.9208 156.025L40.7191 156.536C40.57 156.423 40.3882 156.362 40.2012 156.362C39.8045 156.362 39.6027 156.583 39.6027 157.034V157.357H40.6787V157.908H39.6162V161.029H38.9437V157.875H38.3115V157.323H38.9437V156.994C38.9319 156.832 38.9559 156.669 39.0138 156.518C39.0718 156.366 39.1623 156.229 39.279 156.116C39.3957 156.003 39.5358 155.917 39.6893 155.864C39.8429 155.811 40.0061 155.793 40.1676 155.81ZM41.7547 156.187C41.7546 156.127 41.7665 156.068 41.7897 156.014C41.8128 155.959 41.8467 155.909 41.8894 155.868C41.932 155.827 41.9826 155.794 42.038 155.773C42.0934 155.751 42.1526 155.741 42.212 155.743C42.2972 155.747 42.3793 155.776 42.4484 155.826C42.5174 155.876 42.5703 155.945 42.6005 156.025C42.6307 156.104 42.6369 156.191 42.6184 156.275C42.5999 156.358 42.5574 156.434 42.4962 156.493C42.435 156.553 42.3577 156.593 42.274 156.609C42.1902 156.625 42.1036 156.616 42.0248 156.583C41.9459 156.551 41.8784 156.496 41.8304 156.425C41.7824 156.355 41.7561 156.272 41.7547 156.187ZM41.8757 157.337H42.5482V161.029H41.8757V157.337Z" fill="#263238"/>
<path d="M45.8167 157.296V157.969H45.6621C45.4989 157.958 45.3355 157.984 45.1835 158.044C45.0316 158.105 44.895 158.198 44.7837 158.318C44.6723 158.438 44.589 158.581 44.5397 158.737C44.4904 158.893 44.4764 159.057 44.4987 159.219V161.028H43.8262V157.323H44.465V157.942C44.6083 157.719 44.8105 157.541 45.0492 157.427C45.288 157.313 45.5537 157.268 45.8167 157.296V157.296Z" fill="#263238"/>
<path d="M52.804 158.91V161.028H52.1315V159.011C52.1315 158.285 51.7819 157.928 51.1699 157.928C50.5579 157.928 50.0603 158.352 50.0603 159.159V161.028H49.3878V159.011C49.3878 158.285 49.0381 157.928 48.4261 157.928C47.8142 157.928 47.3165 158.352 47.3165 159.159V161.028H46.644V157.323H47.3165V157.874C47.464 157.678 47.6579 157.521 47.8809 157.418C48.1039 157.314 48.3489 157.268 48.5942 157.283C48.8502 157.26 49.1072 157.312 49.3349 157.431C49.5625 157.55 49.7512 157.732 49.8787 157.955C50.0443 157.735 50.2615 157.558 50.5112 157.441C50.7609 157.323 51.0356 157.269 51.3111 157.283C51.5222 157.271 51.7332 157.305 51.9291 157.385C52.125 157.464 52.3007 157.586 52.4436 157.742C52.5865 157.898 52.693 158.084 52.7553 158.286C52.8177 158.488 52.8343 158.701 52.804 158.91V158.91Z" fill="#263238"/>
<path d="M59.9727 157.854C59.9727 158.917 59.1994 159.556 57.9553 159.556H56.7448V161.028H56.0723V156.133H57.9822C59.1994 156.146 59.9727 156.785 59.9727 157.854ZM59.2666 157.854C59.2666 157.182 58.8026 156.751 57.9216 156.751H56.7179V158.95H57.9082C58.8026 158.95 59.2666 158.554 59.2666 157.854V157.854Z" fill="#263238"/>
<path d="M63.7788 158.803V161.028H63.1467V160.538C63.0045 160.721 62.8186 160.866 62.6059 160.959C62.3932 161.051 62.1606 161.089 61.9295 161.069C61.0888 161.069 60.5845 160.625 60.5845 159.979C60.5845 159.334 60.9678 158.897 62.0707 158.897H63.1063V158.762C63.1063 158.197 62.7835 157.868 62.1178 157.868C61.6921 157.864 61.2775 158.004 60.9409 158.265L60.6584 157.76C61.1025 157.435 61.6418 157.267 62.1917 157.283C63.2274 157.296 63.7788 157.787 63.7788 158.803ZM63.1063 159.905V159.388H62.0707C61.3982 159.388 61.2233 159.65 61.2233 159.966C61.2233 160.282 61.5259 160.564 62.037 160.564C62.2622 160.582 62.4872 160.528 62.6795 160.41C62.8718 160.291 63.0213 160.115 63.1063 159.905Z" fill="#263238"/>
<path d="M64.5791 160.652L64.8548 160.12C65.2438 160.371 65.6968 160.504 66.1594 160.504C66.7781 160.504 67.0404 160.315 67.0404 159.999C67.0404 159.166 64.6934 159.885 64.6934 158.412C64.6934 157.74 65.2919 157.296 66.2401 157.296C66.7101 157.289 67.1739 157.405 67.5851 157.632L67.2959 158.163C66.9751 157.965 66.6036 157.865 66.2267 157.874C65.6416 157.874 65.3525 158.09 65.3525 158.385C65.3525 159.26 67.7062 158.547 67.7062 159.986C67.7062 160.658 67.0875 161.082 66.0989 161.082C65.5607 161.094 65.0312 160.944 64.5791 160.652V160.652Z" fill="#263238"/>
<path d="M68.083 160.652L68.3587 160.12C68.7477 160.371 69.2007 160.504 69.6633 160.504C70.282 160.504 70.5443 160.315 70.5443 159.999C70.5443 159.166 68.1973 159.885 68.1973 158.412C68.1973 157.74 68.7958 157.296 69.744 157.296C70.214 157.289 70.6778 157.405 71.089 157.632L70.7999 158.163C70.479 157.965 70.1075 157.865 69.7306 157.874C69.1455 157.874 68.8563 158.09 68.8563 158.385C68.8563 159.26 71.2101 158.547 71.2101 159.986C71.2101 160.658 70.5914 161.082 69.6028 161.082C69.0645 161.094 68.5351 160.944 68.083 160.652V160.652Z" fill="#263238"/>
<path d="M77.5987 157.336L76.2133 161.028H75.5409L74.4716 158.217L73.4091 161.028H72.7366L71.3916 157.323H72.0237L73.1064 160.275L74.2228 157.323H74.7877L75.8906 160.288L76.9935 157.323L77.5987 157.336Z" fill="#263238"/>
<path d="M77.8275 159.186C77.8208 158.803 77.9283 158.426 78.1363 158.105C78.3443 157.783 78.6433 157.53 78.9953 157.379C79.3474 157.228 79.7365 157.185 80.113 157.255C80.4896 157.326 80.8367 157.507 81.11 157.776C81.3833 158.044 81.5704 158.388 81.6477 158.763C81.7249 159.138 81.6887 159.528 81.5437 159.883C81.3986 160.237 81.1513 160.541 80.8332 160.755C80.5152 160.968 80.1407 161.082 79.7576 161.082C79.5037 161.094 79.2501 161.054 79.0127 160.963C78.7753 160.873 78.5591 160.734 78.3778 160.556C78.1966 160.378 78.0541 160.164 77.9594 159.929C77.8647 159.693 77.8198 159.44 77.8275 159.186V159.186ZM81.0016 159.186C81.0016 158.854 80.8699 158.536 80.6353 158.301C80.4007 158.067 80.0826 157.935 79.7508 157.935C79.4191 157.935 79.1009 158.067 78.8663 158.301C78.6318 158.536 78.5 158.854 78.5 159.186C78.5 159.518 78.6318 159.836 78.8663 160.07C79.1009 160.305 79.4191 160.437 79.7508 160.437C80.0826 160.437 80.4007 160.305 80.6353 160.07C80.8699 159.836 81.0016 159.518 81.0016 159.186V159.186Z" fill="#263238"/>
<path d="M84.6262 157.296V157.969H84.4715C84.3078 157.957 84.1436 157.982 83.9908 158.042C83.8381 158.102 83.7006 158.195 83.5885 158.315C83.4764 158.435 83.3924 158.579 83.3428 158.735C83.2931 158.891 83.279 159.057 83.3014 159.219V161.028H82.6289V157.323H83.3014V157.942C83.4419 157.723 83.6398 157.547 83.8734 157.433C84.107 157.32 84.3674 157.272 84.6262 157.296V157.296Z" fill="#263238"/>
<path d="M88.8899 155.85V161.029H88.2174V160.443C88.0627 160.651 87.8588 160.817 87.624 160.926C87.3892 161.035 87.1309 161.084 86.8724 161.069C86.3899 161.04 85.9365 160.828 85.605 160.476C85.2735 160.124 85.0889 159.659 85.0889 159.176C85.0889 158.692 85.2735 158.227 85.605 157.875C85.9365 157.524 86.3899 157.312 86.8724 157.283C87.1198 157.272 87.366 157.321 87.5906 157.425C87.8152 157.53 88.0116 157.686 88.1636 157.881V155.864L88.8899 155.85ZM88.2174 159.213C88.2055 158.968 88.122 158.732 87.9773 158.534C87.8325 158.337 87.6329 158.186 87.4032 158.101C87.1735 158.015 86.9237 157.999 86.685 158.055C86.4464 158.11 86.2292 158.235 86.0606 158.412C85.8919 158.59 85.7792 158.814 85.7364 159.055C85.6936 159.296 85.7226 159.545 85.8198 159.77C85.9171 159.995 86.0782 160.186 86.2833 160.32C86.4883 160.454 86.7282 160.525 86.9733 160.524C87.1466 160.53 87.3192 160.498 87.4794 160.432C87.6397 160.365 87.7838 160.265 87.9023 160.139C88.0207 160.012 88.1107 159.861 88.1662 159.697C88.2217 159.533 88.2414 159.358 88.2241 159.186L88.2174 159.213Z" fill="#263238"/>
<path d="M136.448 179.919H15.7764C15.2378 179.919 14.8013 180.355 14.8013 180.894V200.127C14.8013 200.666 15.2378 201.102 15.7764 201.102H136.448C136.987 201.102 137.423 200.666 137.423 200.127V180.894C137.423 180.355 136.987 179.919 136.448 179.919Z" fill="#0FB7A6"/>
<path d="M60.9479 190.672C60.9453 190.324 61.0143 189.98 61.1506 189.661C61.2868 189.342 61.4873 189.054 61.7397 188.815C61.9921 188.577 62.2908 188.393 62.6174 188.275C62.944 188.157 63.2913 188.107 63.6378 188.13C64.036 188.11 64.4332 188.183 64.7984 188.343C65.1636 188.503 65.4868 188.745 65.7427 189.051L64.8618 189.851C64.7275 189.671 64.5529 189.525 64.3521 189.425C64.1512 189.324 63.9297 189.272 63.7051 189.273C63.35 189.298 63.0175 189.456 62.7747 189.716C62.5318 189.976 62.3967 190.319 62.3967 190.675C62.3967 191.031 62.5318 191.374 62.7747 191.634C63.0175 191.894 63.35 192.053 63.7051 192.077C63.9294 192.076 64.1504 192.023 64.351 191.923C64.5516 191.823 64.7264 191.678 64.8618 191.499L65.7427 192.299C65.4858 192.604 65.1624 192.845 64.7975 193.005C64.4326 193.164 64.0358 193.238 63.6378 193.22C63.2908 193.243 62.9428 193.193 62.6158 193.075C62.2888 192.956 61.9897 192.772 61.7372 192.533C61.4847 192.293 61.2843 192.005 61.1485 191.684C61.0127 191.364 60.9444 191.019 60.9479 190.672V190.672Z" fill="white"/>
<path d="M70.3356 190.954V193.126H68.9907V191.169C68.9907 190.625 68.7486 190.396 68.3653 190.396C67.9819 190.396 67.6121 190.658 67.6121 191.29V193.126H66.2671V187.928H67.6121V189.683C67.9228 189.403 68.3301 189.253 68.7486 189.266C68.9702 189.249 69.1929 189.282 69.4003 189.362C69.6076 189.442 69.7943 189.568 69.9466 189.73C70.0989 189.892 70.2129 190.086 70.2802 190.298C70.3476 190.51 70.3665 190.734 70.3356 190.954V190.954Z" fill="white"/>
<path d="M74.7273 191.015V193.127H73.4899V192.636C73.3753 192.826 73.2085 192.979 73.0094 193.076C72.8103 193.174 72.5872 193.213 72.3668 193.187C71.459 193.187 70.9546 192.676 70.9546 192.017C70.9546 191.358 71.4657 190.887 72.6425 190.887H73.3957C73.3957 190.497 73.1133 190.282 72.5887 190.282C72.22 190.283 71.8607 190.398 71.5598 190.611L71.116 189.71C71.6218 189.409 72.2019 189.255 72.7905 189.266C74.0212 189.273 74.7273 189.811 74.7273 191.015ZM73.3823 191.909V191.58H72.8107C72.3803 191.58 72.2256 191.728 72.2256 191.963C72.2256 192.199 72.4139 192.346 72.7232 192.346C72.8674 192.355 73.0107 192.318 73.1318 192.239C73.2529 192.16 73.3455 192.045 73.3957 191.909H73.3823Z" fill="white"/>
<path d="M79.6028 190.954V193.126H78.2578V191.169C78.2578 190.625 78.0224 190.396 77.6391 190.396C77.2558 190.396 76.8792 190.658 76.8792 191.29V193.126H75.5342V189.333H76.7985V189.744C76.9558 189.586 77.1438 189.462 77.3508 189.38C77.5579 189.298 77.7796 189.259 78.0022 189.266C78.225 189.247 78.4492 189.278 78.6582 189.357C78.8673 189.436 79.0557 189.562 79.2096 189.724C79.3634 189.886 79.4786 190.081 79.5467 190.294C79.6148 190.507 79.634 190.733 79.6028 190.954V190.954Z" fill="white"/>
<path d="M84.5723 189.334V192.434C84.5723 193.866 83.7586 194.546 82.3464 194.546C81.6834 194.569 81.0282 194.396 80.4634 194.048L80.9476 193.12C81.3218 193.383 81.768 193.524 82.2254 193.523C82.9382 193.523 83.2408 193.201 83.2408 192.609V192.481C83.0984 192.634 82.9237 192.753 82.7294 192.83C82.5351 192.906 82.3262 192.939 82.1178 192.925C81.6326 192.925 81.1674 192.732 80.8243 192.389C80.4813 192.046 80.2886 191.581 80.2886 191.096C80.2886 190.61 80.4813 190.145 80.8243 189.802C81.1674 189.459 81.6326 189.266 82.1178 189.266C82.344 189.25 82.5708 189.289 82.7783 189.38C82.9859 189.472 83.1677 189.613 83.3081 189.791V189.334H84.5723ZM83.2274 191.096C83.2381 190.93 83.1989 190.765 83.1148 190.622C83.0308 190.479 82.9057 190.365 82.7558 190.294C82.6059 190.223 82.4382 190.199 82.2744 190.225C82.1105 190.25 81.9582 190.324 81.8371 190.438C81.7159 190.551 81.6316 190.698 81.5951 190.86C81.5586 191.021 81.5715 191.19 81.6322 191.345C81.693 191.499 81.7986 191.631 81.9356 191.725C82.0725 191.818 82.2344 191.869 82.4002 191.869C82.5106 191.886 82.6233 191.878 82.7304 191.847C82.8375 191.815 82.9365 191.761 83.0204 191.687C83.1043 191.613 83.1712 191.522 83.2162 191.42C83.2612 191.318 83.2834 191.207 83.2812 191.096H83.2274Z" fill="white"/>
<path d="M89.2796 191.566H86.5224C86.5847 191.759 86.7117 191.925 86.882 192.035C87.0523 192.146 87.2555 192.194 87.4572 192.172C87.7806 192.181 88.0946 192.063 88.3314 191.842L89.0039 192.568C88.7968 192.785 88.5438 192.954 88.2634 193.061C87.9831 193.168 87.6823 193.211 87.3832 193.187C86.0382 193.187 85.1572 192.353 85.1572 191.217C85.1585 190.949 85.2146 190.684 85.3219 190.439C85.4293 190.193 85.5858 189.972 85.7817 189.79C85.9776 189.607 86.2088 189.466 86.4611 189.376C86.7134 189.286 86.9814 189.249 87.2487 189.266C87.5141 189.249 87.7801 189.288 88.0295 189.38C88.2789 189.473 88.5061 189.616 88.6964 189.802C88.8866 189.988 89.0357 190.212 89.1338 190.459C89.232 190.706 89.2771 190.971 89.2662 191.237C89.3334 191.331 89.2863 191.459 89.2796 191.566ZM86.5022 190.86H88.0557C88.0258 190.676 87.9313 190.508 87.789 190.387C87.6467 190.265 87.4659 190.199 87.279 190.199C87.092 190.199 86.9112 190.265 86.7689 190.387C86.6266 190.508 86.532 190.676 86.5022 190.86Z" fill="white"/>
<path d="M64.7072 87.9824H63.5842V89.9124H61.5264V82.6428H64.8485C66.8323 82.6428 68.0831 83.6717 68.0831 85.3328C68.1011 85.8136 67.9749 86.2887 67.7209 86.6973C67.4669 87.1059 67.0966 87.4293 66.6575 87.626L68.2243 89.9124H66.0253L64.7072 87.9824ZM64.7072 84.2635H63.564V86.3819H64.7072C65.5546 86.3819 65.985 85.9918 65.985 85.3261C65.985 84.6603 65.5747 84.2635 64.7274 84.2635H64.7072Z" fill="#263238"/>
<path d="M74.8416 87.599H70.7528C70.8407 87.8801 71.0219 88.1227 71.2665 88.2866C71.5112 88.4505 71.8045 88.5258 72.0978 88.5002C72.3359 88.5089 72.5734 88.47 72.7963 88.3857C73.0192 88.3014 73.223 88.1734 73.3957 88.0093L74.4314 89.092C74.1235 89.4103 73.7496 89.6572 73.3359 89.8152C72.9222 89.9732 72.479 90.0385 72.0373 90.0065C70.0198 90.0065 68.7354 88.7692 68.7354 87.0879C68.7354 86.6906 68.817 86.2975 68.9751 85.933C69.1331 85.5685 69.3642 85.2402 69.6542 84.9686C69.9441 84.6969 70.2867 84.4876 70.6607 84.3536C71.0348 84.2196 71.4323 84.1638 71.8288 84.1895C72.2233 84.1629 72.619 84.2194 72.9903 84.3554C73.3616 84.4914 73.7001 84.7038 73.9841 84.9789C74.2681 85.254 74.4912 85.5857 74.6389 85.9525C74.7866 86.3193 74.8557 86.713 74.8416 87.1081C74.8752 87.2561 74.855 87.4376 74.8416 87.599ZM70.7192 86.5567H73.0258C72.9792 86.2846 72.8379 86.0377 72.6268 85.8598C72.4158 85.6818 72.1486 85.5842 71.8725 85.5842C71.5964 85.5842 71.3293 85.6818 71.1182 85.8598C70.9072 86.0377 70.7658 86.2846 70.7192 86.5567V86.5567Z" fill="#263238"/>
<path d="M75.3389 89.4216L75.9307 88.0766C76.5304 88.4138 77.2063 88.5921 77.8943 88.5944C78.5668 88.5944 78.7753 88.4465 78.7753 88.2111C78.7753 87.4512 75.4532 88.312 75.4532 86.0592C75.4532 85.0033 76.4283 84.1896 78.197 84.1896C78.9637 84.175 79.7233 84.3384 80.4162 84.6671L79.8244 86.0121C79.3284 85.7383 78.7702 85.597 78.2037 85.6019C77.5312 85.6019 77.3025 85.7834 77.3025 85.9919C77.3025 86.772 80.6179 85.9314 80.6179 88.164C80.6179 89.1997 79.663 90.0134 77.8338 90.0134C76.9657 90.0284 76.1077 89.8249 75.3389 89.4216V89.4216Z" fill="#263238"/>
<path d="M87.1883 87.599H83.0995C83.1884 87.8794 83.3699 88.1213 83.6143 88.285C83.8587 88.4487 84.1514 88.5246 84.4445 88.5002C84.6826 88.5089 84.9201 88.47 85.143 88.3857C85.3659 88.3014 85.5696 88.1734 85.7424 88.0093L86.7848 89.092C86.4754 89.4101 86.1002 89.6567 85.6855 89.8147C85.2708 89.9727 84.8266 90.0382 84.384 90.0065C82.3665 90.0065 81.082 88.7692 81.082 87.0879C81.0821 86.6906 81.1637 86.2975 81.3217 85.933C81.4798 85.5685 81.7109 85.2402 82.0009 84.9686C82.2908 84.6969 82.6334 84.4876 83.0074 84.3536C83.3815 84.2196 83.779 84.1638 84.1755 84.1895C84.57 84.1629 84.9657 84.2194 85.337 84.3554C85.7083 84.4914 86.0468 84.7038 86.3308 84.9789C86.6148 85.254 86.8379 85.5857 86.9856 85.9525C87.1333 86.3193 87.2023 86.713 87.1883 87.1081C87.2219 87.2561 87.2017 87.4376 87.1883 87.599ZM83.0659 86.5567H85.3725C85.3373 86.281 85.1993 86.0287 84.986 85.8504C84.7728 85.6721 84.5002 85.5809 84.2226 85.595C83.945 85.5838 83.6731 85.676 83.4594 85.8536C83.2458 86.0312 83.1056 86.2817 83.0659 86.5567Z" fill="#263238"/>
<path d="M92.0237 89.6839C91.6118 89.9087 91.1477 90.0201 90.6787 90.0067C89.2328 90.0067 88.3922 89.3342 88.3922 87.8547V85.965H87.5718V84.4923H88.3922V83.0195H90.3626V84.4856H91.6538V85.9583H90.3626V87.8278C90.3473 87.9126 90.3514 87.9997 90.3745 88.0827C90.3975 88.1657 90.4391 88.2424 90.496 88.3071C90.5529 88.3718 90.6237 88.4227 90.7031 88.4562C90.7824 88.4897 90.8684 88.5047 90.9544 88.5003C91.169 88.5033 91.3797 88.4425 91.5596 88.3255L92.0237 89.6839Z" fill="#263238"/>
<path d="M40.1747 98.9643V101.574H38.1169V98.9307L35.3462 94.304H37.5116L39.2399 97.1889L40.9615 94.304H42.979L40.1747 98.9643Z" fill="#263238"/>
<path d="M42.4072 98.749C42.4072 97.0543 43.7522 95.8506 45.5814 95.8506C47.4106 95.8506 48.7623 97.0543 48.7623 98.749C48.7623 100.444 47.4173 101.668 45.5814 101.668C43.7455 101.668 42.4072 100.45 42.4072 98.749ZM46.765 98.749C46.7827 98.583 46.7653 98.4151 46.7139 98.2562C46.6625 98.0974 46.5783 97.9511 46.4666 97.8269C46.355 97.7027 46.2185 97.6034 46.066 97.5355C45.9135 97.4675 45.7484 97.4324 45.5814 97.4324C45.4144 97.4324 45.2493 97.4675 45.0968 97.5355C44.9443 97.6034 44.8078 97.7027 44.6962 97.8269C44.5845 97.9511 44.5003 98.0974 44.4489 98.2562C44.3975 98.4151 44.3801 98.583 44.3978 98.749C44.3801 98.915 44.3975 99.0829 44.4489 99.2418C44.5003 99.4007 44.5845 99.5469 44.6962 99.6711C44.8078 99.7953 44.9443 99.8946 45.0968 99.9626C45.2493 100.031 45.4144 100.066 45.5814 100.066C45.7484 100.066 45.9135 100.031 46.066 99.9626C46.2185 99.8946 46.355 99.7953 46.4666 99.6711C46.5783 99.5469 46.6625 99.4007 46.7139 99.2418C46.7653 99.0829 46.7827 98.915 46.765 98.749Z" fill="#263238"/>
<path d="M55.5949 95.9449V101.574H53.6917V100.968C53.4753 101.191 53.2143 101.367 52.9259 101.483C52.6374 101.598 52.3279 101.652 52.0172 101.641C50.6722 101.641 49.6299 100.847 49.6299 99.0652V95.918H51.6003V98.7424C51.6003 99.6167 51.9433 99.9529 52.535 99.9529C53.1268 99.9529 53.5976 99.5696 53.5976 98.6079V95.918L55.5949 95.9449Z" fill="#263238"/>
<path d="M60.6318 95.8505V97.6259C60.4846 97.6059 60.3364 97.5947 60.1879 97.5923C60.0025 97.5732 59.8152 97.5966 59.6401 97.6605C59.4649 97.7244 59.3066 97.8273 59.1771 97.9614C59.0476 98.0955 58.9502 98.2572 58.8923 98.4344C58.8344 98.6116 58.8175 98.7997 58.843 98.9844V101.573H56.8726V95.9447H58.7488V96.6172C58.983 96.3536 59.2745 96.1474 59.601 96.0145C59.9275 95.8816 60.2802 95.8255 60.6318 95.8505V95.8505Z" fill="#263238"/>
<path d="M71.1359 96.9939C71.1359 98.6415 69.8851 99.6839 67.9012 99.6839H66.6369V101.587H64.5791V94.304H67.9012C69.8851 94.304 71.1359 95.3329 71.1359 96.9939ZM69.0579 96.9939C69.0579 96.3214 68.6275 95.9247 67.7802 95.9247H66.6369V98.0497H67.8138C68.6275 98.0497 69.0579 97.6597 69.0579 96.9939Z" fill="#263238"/>
<path d="M77.2625 98.4464V101.573H75.4266V100.847C75.2563 101.129 75.0086 101.356 74.713 101.502C74.4173 101.647 74.0862 101.705 73.7589 101.668C72.4139 101.668 71.6606 100.908 71.6606 99.9326C71.6606 98.9575 72.4206 98.2514 74.1691 98.2514H75.2854C75.2854 97.6798 74.8752 97.357 74.0951 97.357C73.5484 97.3566 73.0151 97.5258 72.5685 97.8412L71.896 96.4962C72.6457 96.0484 73.5043 95.8157 74.3775 95.8237C76.2134 95.8506 77.2625 96.6576 77.2625 98.4464ZM75.2854 99.7914V99.3005H74.438C73.8059 99.3005 73.5773 99.5291 73.5773 99.8721C73.5773 100.215 73.8462 100.444 74.3103 100.444C74.5252 100.455 74.7377 100.394 74.9143 100.271C75.0909 100.148 75.2214 99.9699 75.2854 99.7645V99.7914Z" fill="#263238"/>
<path d="M78.0625 101.083L78.6543 99.7377C79.2517 100.081 79.9288 100.262 80.618 100.262C81.2904 100.262 81.4989 100.114 81.4989 99.879C81.4989 99.119 78.1768 99.9798 78.1768 97.727C78.1768 96.6644 79.1519 95.8574 80.9139 95.8574C81.6828 95.842 82.4448 96.0054 83.1398 96.3349L82.548 97.6799C82.0522 97.4049 81.4943 97.2614 80.9273 97.263C80.2548 97.263 80.0262 97.4513 80.0262 97.6597C80.0262 98.4398 83.3348 97.5992 83.3348 99.8319C83.3348 100.868 82.3799 101.681 80.5507 101.681C79.6841 101.694 78.8282 101.489 78.0625 101.083V101.083Z" fill="#263238"/>
<path d="M83.7451 101.083L84.3369 99.7376C84.9322 100.08 85.6069 100.261 86.2938 100.262C86.9663 100.262 87.1815 100.114 87.1815 99.8789C87.1815 99.1189 83.8594 99.9797 83.8594 97.7269C83.8594 96.6643 84.8345 95.8574 86.5965 95.8574C87.3654 95.8426 88.1272 96.006 88.8224 96.3348L88.2306 97.6798C87.7342 97.4065 87.1767 97.263 86.6099 97.2629C85.9374 97.2629 85.702 97.4512 85.702 97.6596C85.702 98.4397 89.0175 97.5991 89.0175 99.8318C89.0175 100.867 88.0625 101.681 86.2333 101.681C85.3667 101.695 84.5107 101.489 83.7451 101.083V101.083Z" fill="#263238"/>
<path d="M99.0917 95.9447L97.0743 101.573H95.1644L94.1153 98.4867L93.0191 101.553H91.1093L89.0918 95.9246H90.9613L92.1113 99.3274L93.3016 95.9246H94.9895L96.1529 99.361L97.3432 95.9246L99.0917 95.9447Z" fill="#263238"/>
<path d="M99.1855 98.749C99.1855 97.0543 100.531 95.8506 102.366 95.8506C104.202 95.8506 105.541 97.0543 105.541 98.749C105.541 100.444 104.196 101.668 102.366 101.668C100.537 101.668 99.1855 100.45 99.1855 98.749ZM103.55 98.749C103.52 98.5223 103.426 98.3089 103.278 98.1344C103.13 97.9599 102.935 97.8317 102.717 97.765C102.498 97.6984 102.265 97.6962 102.045 97.7587C101.825 97.8212 101.627 97.9457 101.476 98.1173C101.325 98.289 101.227 98.5006 101.193 98.7267C101.159 98.9528 101.191 99.184 101.284 99.3925C101.378 99.601 101.53 99.778 101.722 99.9024C101.914 100.027 102.138 100.093 102.366 100.094C102.536 100.096 102.705 100.061 102.86 99.9912C103.015 99.9219 103.154 99.82 103.266 99.6924C103.378 99.5648 103.462 99.4144 103.511 99.2517C103.56 99.0889 103.573 98.9174 103.55 98.749V98.749Z" fill="#263238"/>
<path d="M110.228 95.8507V97.6261C110.078 97.6059 109.928 97.5946 109.777 97.5925C109.591 97.5721 109.403 97.5945 109.228 97.6579C109.052 97.7214 108.893 97.8243 108.763 97.9587C108.633 98.093 108.536 98.2554 108.479 98.4332C108.421 98.611 108.405 98.7996 108.432 98.9845V101.574H106.455V95.9449H108.338V96.6174C108.572 96.3521 108.865 96.1447 109.193 96.0117C109.521 95.8787 109.875 95.8236 110.228 95.8507V95.8507Z" fill="#263238"/>
<path d="M116.966 93.8667V101.573H115.09V101.009C114.884 101.24 114.628 101.421 114.341 101.538C114.054 101.654 113.744 101.703 113.436 101.681C112.688 101.645 111.984 101.323 111.468 100.781C110.951 100.24 110.664 99.5206 110.664 98.7725C110.664 98.0245 110.951 97.3051 111.468 96.7636C111.984 96.2221 112.688 95.8999 113.436 95.864C113.721 95.8477 114.008 95.8907 114.276 95.9902C114.545 96.0897 114.79 96.2436 114.996 96.4423V93.8801L116.966 93.8667ZM115.023 98.749C114.993 98.5217 114.898 98.3078 114.75 98.1331C114.601 97.9584 114.406 97.8302 114.186 97.764C113.967 97.6979 113.733 97.6965 113.512 97.7601C113.292 97.8236 113.095 97.9495 112.944 98.1224C112.794 98.2954 112.697 98.5081 112.664 98.735C112.632 98.962 112.665 99.1934 112.761 99.4017C112.857 99.6099 113.011 99.786 113.205 99.9088C113.398 100.032 113.623 100.096 113.853 100.094C114.022 100.095 114.189 100.059 114.343 99.9892C114.497 99.9194 114.635 99.8172 114.746 99.6896C114.857 99.5619 114.939 99.4118 114.987 99.2495C115.035 99.0872 115.047 98.9164 115.023 98.749Z" fill="#263238"/>
<path d="M96.845 50.6258L91.5324 49.5229L98.2573 17.1694C98.5074 15.473 98.1348 13.7434 97.2082 12.3006C88.7415 0.579043 74.9689 5.34028 72.8573 15.468L66.8049 44.3851L61.4922 43.2755L68.2776 10.7135C68.6272 9.02896 69.3476 7.44343 70.3863 6.07201C71.4251 4.70058 72.7561 3.57767 74.283 2.78482C91.3911 -6.03154 105.749 7.67382 102.823 21.7221L96.845 50.6258Z" fill="#E0E0E0"/>
<path d="M96.8449 50.6258C96.8449 50.6258 96.8786 50.424 96.9593 50.0474C97.04 49.6708 97.1476 49.0992 97.2955 48.3662L98.6405 41.9305C99.2189 39.1396 99.9183 35.7301 100.732 31.7691L102.077 25.4343C102.494 23.1882 103.187 20.8344 103.213 18.2924C103.254 15.6313 102.688 12.9958 101.559 10.5857C101.411 10.2763 101.27 9.95355 101.115 9.64421L100.577 8.73635C100.211 8.12809 99.809 7.542 99.3735 6.98114C99.1583 6.68525 98.9028 6.4297 98.6674 6.15398C98.432 5.87826 98.2034 5.59582 97.9277 5.35372C97.405 4.83263 96.8478 4.34733 96.2599 3.90114C95.0669 2.96748 93.7609 2.18797 92.3729 1.58105L91.2902 1.17755L90.6782 0.975804L90.1133 0.827856L88.9768 0.531961C88.5868 0.444537 88.1967 0.404187 87.8067 0.336938C84.5628 -0.146063 81.2485 0.277532 78.2304 1.56087C75.8344 2.57896 73.69 4.10869 71.9474 6.04288C70.2049 7.97708 68.9065 10.2689 68.1431 12.7578C67.6521 14.4727 67.3361 16.2682 66.9527 18.0571C65.4598 25.2325 63.9064 32.6636 62.326 40.2493C62.1108 41.2647 61.9024 42.2667 61.6939 43.2822L61.593 43.1275L66.9057 44.2371L66.7577 44.338C67.9548 38.5882 69.1316 32.9595 70.2682 27.5257C70.8375 24.7954 71.4001 22.1055 71.9561 19.4558L72.7765 15.5151C73.0646 14.2134 73.5355 12.9591 74.1753 11.7895C75.4716 9.53222 77.4227 7.72181 79.7704 6.59783C80.0596 6.47005 80.3353 6.31538 80.6379 6.21451L81.5256 5.90516C82.1206 5.72627 82.7273 5.5892 83.3414 5.49494C83.9513 5.40225 84.5671 5.35281 85.184 5.34699C85.4866 5.34699 85.7959 5.34699 86.0986 5.38734H86.5491L86.9997 5.46131C88.1833 5.62261 89.338 5.95092 90.4294 6.43643C91.484 6.92207 92.4717 7.54136 93.3682 8.27905C95.0825 9.72634 96.3879 11.5974 97.1543 13.7061C97.8946 15.6795 98.1101 17.8113 97.7797 19.893L97.6587 20.6394C97.6116 20.8815 97.5578 21.1236 97.5107 21.3657L97.2081 22.8048C97.0064 23.7531 96.8114 24.6811 96.6231 25.5957C95.8564 29.2406 95.1503 32.5963 94.5182 35.6158C93.2404 41.6682 92.2451 46.3756 91.5861 49.5296L91.5525 49.4826L95.5874 50.3366L96.5692 50.5518L96.892 50.6258L96.576 50.5653L95.6009 50.377L91.5659 49.5565V49.5162L94.4307 35.5956C95.0561 32.5694 95.7757 29.2137 96.5087 25.5621C96.697 24.6542 96.8921 23.7194 97.0871 22.7712C97.1812 22.3005 97.2821 21.8163 97.3829 21.3388C97.4367 21.0967 97.4838 20.8546 97.5376 20.6058C97.5914 20.357 97.6116 20.1149 97.6519 19.8728C97.9741 17.822 97.7586 15.7226 97.0265 13.78C96.2679 11.7061 94.9787 9.86732 93.2875 8.44717C92.4007 7.72202 91.4243 7.11403 90.3823 6.63817C89.311 6.16604 88.1794 5.84467 87.0199 5.68324L86.576 5.61599H86.1254C85.8296 5.61599 85.5337 5.57564 85.2311 5.61599C84.014 5.62972 82.805 5.81537 81.6399 6.16743L80.7657 6.47678C80.4762 6.58567 80.1932 6.71142 79.9184 6.85337C77.612 7.95609 75.6974 9.73693 74.4309 11.9576C73.8085 13.1034 73.3555 14.3334 73.0859 15.6092C72.8169 16.9138 72.5434 18.2274 72.2654 19.55C71.714 22.1996 71.1536 24.8896 70.5842 27.6199L67.0805 44.4321V44.5599H66.9527L61.6401 43.4503H61.519V43.3225C61.7275 42.3205 61.936 41.3051 62.1512 40.2896C63.7383 32.6837 65.285 25.2527 66.7846 18.0974C67.1679 16.3019 67.4571 14.5198 67.9817 12.7713C68.5279 11.0622 69.3087 9.43719 70.3018 7.94281C72.2694 5.05288 75.0295 2.79247 78.2506 1.4331C81.3079 0.137036 84.6638 -0.288862 87.9479 0.202439C88.3447 0.269688 88.7415 0.316763 89.1315 0.397462L90.4765 0.747157L91.1961 0.975804L92.272 1.3793L92.7697 1.58777C94.0854 2.18404 95.3249 2.93586 96.4616 3.82716C97.0511 4.28385 97.6125 4.77566 98.1429 5.29992C98.355 5.53079 98.557 5.77087 98.7481 6.01948C98.9835 6.30193 99.2457 6.55747 99.4542 6.85337C99.8971 7.42266 100.306 8.01774 100.678 8.63547L101.216 9.55006C101.378 9.86613 101.512 10.2225 101.667 10.505C102.801 12.9442 103.364 15.6097 103.314 18.2992C103.314 20.8681 102.581 23.2285 102.158 25.4814C101.734 27.7342 101.236 29.8525 100.813 31.8364C99.9788 35.7974 99.2525 39.2338 98.6674 41.9977C98.0823 44.7617 97.6183 46.9405 97.3224 48.4066L96.966 50.0676C96.892 50.4442 96.8449 50.6258 96.8449 50.6258Z" fill="#263238"/>
<path d="M59.1997 23.1328L106.66 33.0219C107.313 33.158 107.885 33.5479 108.251 34.1058C108.617 34.6638 108.745 35.3441 108.609 35.9972L101.111 71.9826C100.988 72.5763 100.633 73.0965 100.126 73.4288C99.6187 73.7611 99.0002 73.8783 98.4065 73.7546L50.7222 63.8189L59.1997 23.1328V23.1328Z" fill="#455A64"/>
<g opacity="0.3">
<path d="M59.2246 23.1711L106.435 33.0081C107.154 33.158 107.785 33.5875 108.187 34.2022C108.59 34.8168 108.732 35.5663 108.582 36.2857L101.188 71.7708C101.051 72.4308 100.657 73.0091 100.093 73.3786C99.5289 73.7481 98.8413 73.8784 98.1813 73.7408L50.7471 63.8572L59.2246 23.1711V23.1711Z" fill="black"/>
</g>
<path d="M59.6041 23.2184L100.54 31.7481C101.249 31.8958 101.87 32.3191 102.267 32.9248C102.664 33.5305 102.804 34.2691 102.656 34.978L95.4175 69.7191C95.2356 70.5922 94.7143 71.3572 93.9684 71.8459C93.2224 72.3346 92.3129 72.5069 91.4399 72.325L51.2409 63.949C50.8778 63.8733 50.5332 63.7269 50.2266 63.518C49.9201 63.3092 49.6578 63.042 49.4545 62.7317C49.2512 62.4215 49.1111 62.0742 49.042 61.7098C48.9729 61.3453 48.9764 60.9709 49.052 60.6078L56.4006 25.3399C56.5473 24.6355 56.9661 24.0176 57.566 23.6203C58.1659 23.223 58.8983 23.0786 59.6041 23.2184Z" fill="#455A64"/>
<g opacity="0.3">
<path d="M83.0188 45.6023C83.1775 44.8418 83.1819 44.0573 83.0318 43.2951C82.8816 42.5329 82.58 41.8086 82.1448 41.1652C81.7095 40.5217 81.1496 39.9722 80.498 39.5492C79.8465 39.1262 79.1166 38.8383 78.3518 38.7025C76.876 38.4593 75.363 38.7879 74.1211 39.6213C72.8791 40.4547 72.0015 41.7302 71.6672 43.188C71.4022 44.4279 71.5514 45.7204 72.0921 46.8673C72.6327 48.0141 73.5347 48.9518 74.6598 49.5363L69.3135 56.6042L79.0713 58.8234L77.7263 50.1819C78.9878 50.1018 80.1882 49.6106 81.144 48.7835C82.0998 47.9565 82.7583 46.8391 83.0188 45.6023V45.6023Z" fill="black"/>
</g>
<path d="M95.5809 69.1999C95.5136 69.1999 96.9662 62.0984 98.8223 53.3694C100.678 44.6405 102.245 37.5659 102.312 37.5794C102.38 37.5928 100.927 44.6876 99.0711 53.43C97.215 62.1723 95.6481 69.2133 95.5809 69.1999Z" fill="#263238"/>
<path d="M92.2719 31.3323C92.2719 31.3995 85.9976 30.2361 78.2909 28.7365C70.5841 27.2368 64.3367 25.9658 64.3501 25.8985C64.3636 25.8313 70.6245 26.988 78.338 28.4876C86.0514 29.9873 92.2854 31.2381 92.2719 31.3323Z" fill="white"/>
<path d="M70.8398 46.2546C70.8398 46.2546 70.7591 46.1201 70.6784 45.8511C70.5629 45.4727 70.4907 45.0824 70.4632 44.6877C70.3569 43.3699 70.6498 42.0506 71.3038 40.9016C71.9691 39.7597 72.9594 38.842 74.1485 38.2654C74.5062 38.0941 74.8802 37.9589 75.2648 37.8619C75.404 37.8185 75.5494 37.7981 75.6952 37.8014C75.6952 37.8484 75.0967 37.9695 74.2291 38.4268C73.1008 39.0211 72.1647 39.924 71.5301 41.0302C70.8954 42.1363 70.5884 43.4002 70.6448 44.6742C70.6784 45.6561 70.8869 46.2411 70.8398 46.2546Z" fill="white"/>
<path d="M72.521 49.3953C72.4739 49.4491 72.1646 49.2407 71.8485 48.9313C71.5324 48.622 71.2903 48.3328 71.3374 48.2588C71.3845 48.1849 71.6938 48.4202 72.0099 48.7229C72.326 49.0255 72.5681 49.3953 72.521 49.3953Z" fill="white"/>
<path d="M86.879 1.47368C86.879 1.47368 86.5294 1.47368 85.8972 1.40643C85.0008 1.35038 84.1012 1.36612 83.2073 1.4535C80.2645 1.71951 77.4577 2.81573 75.1135 4.61461C72.7694 6.41349 70.9843 8.84106 69.9659 11.6148C69.6538 12.4503 69.4087 13.3094 69.2329 14.1838C69.1118 14.8024 69.0581 15.1521 69.0379 15.1521C69.0277 15.0673 69.0277 14.9815 69.0379 14.8966C69.0379 14.7285 69.0379 14.4796 69.1253 14.1636C69.2688 13.275 69.4939 12.4015 69.7978 11.5543C70.7866 8.71942 72.5829 6.23559 74.9655 4.40863C77.3481 2.58168 80.2129 1.49137 83.2073 1.27193C84.1032 1.19975 85.0039 1.21326 85.8972 1.31228C86.2133 1.31228 86.4554 1.39298 86.6235 1.41316C86.7111 1.42102 86.7972 1.4414 86.879 1.47368V1.47368Z" fill="white"/>
<path d="M67.9146 19.4962C67.8978 18.9863 67.9659 18.4772 68.1164 17.9898C68.1832 17.4866 68.3331 16.998 68.5602 16.5439C68.581 17.0513 68.5151 17.5585 68.3652 18.0436C68.2986 18.5499 68.1463 19.0411 67.9146 19.4962V19.4962Z" fill="white"/>
<path d="M173.807 204.111L184.41 193.628L165.499 161.244C163.531 158.992 161.039 157.258 158.244 156.195L151.583 153.662L135.025 150.624L123.274 155.273C121.828 155.842 120.611 156.874 119.814 158.207C119.017 159.541 118.684 161.101 118.867 162.644L121.942 188.527L123.753 222.222L166.467 214.809L162.171 202.347L162.313 182.909L173.807 204.111Z" fill="#008B8B"/>
<path d="M162.561 201.51C162.661 201.51 162.687 194.776 162.619 186.473C162.55 178.17 162.419 171.437 162.319 171.437C162.219 171.437 162.192 178.17 162.261 186.473C162.329 194.776 162.461 201.51 162.561 201.51Z" fill="#263238"/>
<path d="M160.997 206.448L135.199 196.061C134.178 195.65 133.292 194.962 132.641 194.074C131.99 193.187 131.599 192.135 131.514 191.038L129.629 166.293C129.629 166.293 129.85 155.763 123.279 155.236L119.536 156.705C114.697 159.296 113.502 166.33 114.171 171.763C115.103 179.481 115.492 190.406 116.54 197.108C117.398 202.589 120.689 206.922 125.901 208.823L157.691 215.704L160.997 206.448Z" fill="#008B8B"/>
<path d="M129.992 170.068C130.031 170.253 130.057 170.442 130.071 170.631C130.113 171.036 130.171 171.579 130.239 172.263C130.371 173.711 130.555 175.754 130.766 178.265C130.976 180.777 131.24 183.825 131.529 187.168C131.598 188.005 131.671 188.863 131.745 189.743C131.797 190.627 131.907 191.506 132.077 192.375C132.255 193.26 132.702 194.069 133.356 194.692C134.065 195.311 134.871 195.811 135.741 196.171C142.854 199.251 149.43 201.794 154.168 203.579L159.823 205.685L161.36 206.248C161.542 206.305 161.719 206.379 161.887 206.469C161.708 206.431 161.532 206.38 161.36 206.317L159.781 205.79C158.428 205.343 156.48 204.669 154.084 203.811C149.298 202.079 142.728 199.599 135.588 196.487C134.685 196.109 133.849 195.586 133.114 194.939C132.41 194.271 131.929 193.401 131.74 192.449C131.569 191.559 131.46 190.658 131.413 189.753C131.34 188.876 131.271 188.018 131.208 187.179C130.945 183.83 130.713 180.813 130.513 178.265C130.313 175.717 130.187 173.711 130.076 172.258C130.034 171.573 130.002 171.026 129.976 170.62C129.969 170.436 129.974 170.251 129.992 170.068Z" fill="#263238"/>
<path d="M115.224 183.52C115.26 183.626 115.278 183.738 115.277 183.851C115.277 184.109 115.329 184.425 115.361 184.804C115.44 185.689 115.545 186.873 115.666 188.316C115.787 189.759 115.987 191.559 116.245 193.507C116.5 195.62 116.891 197.715 117.414 199.778C117.655 200.839 118.081 201.85 118.673 202.763C119.243 203.609 119.888 204.402 120.599 205.132C121.805 206.377 123.2 207.423 124.732 208.233C126.158 208.958 127.687 209.459 129.266 209.718C129.154 209.731 129.041 209.731 128.929 209.718C128.607 209.7 128.287 209.66 127.97 209.597C126.797 209.375 125.661 208.989 124.596 208.449C123.023 207.656 121.59 206.612 120.352 205.359C119.619 204.62 118.956 203.814 118.372 202.952C117.755 202.01 117.31 200.965 117.056 199.867C116.531 197.79 116.147 195.679 115.908 193.549C115.671 191.591 115.514 189.822 115.382 188.337C115.25 186.852 115.219 185.647 115.187 184.815C115.187 184.43 115.187 184.114 115.187 183.851C115.186 183.74 115.198 183.628 115.224 183.52Z" fill="#263238"/>
<path d="M126.243 200.836C126.308 200.35 126.467 199.881 126.712 199.457C127.241 198.4 127.977 197.46 128.876 196.692C129.775 195.924 130.818 195.345 131.945 194.987C132.402 194.812 132.888 194.728 133.377 194.739C133.377 194.797 132.851 194.903 132.029 195.218C130.964 195.631 129.975 196.219 129.102 196.956C128.234 197.704 127.499 198.594 126.928 199.588C126.485 200.336 126.28 200.852 126.243 200.836Z" fill="#263238"/>
<g opacity="0.3">
<path d="M153.579 203.5C150.82 201.921 148.119 200.741 145.234 199.43C142.349 198.119 139.522 196.435 137.637 193.892C134.072 189.09 134.478 182.161 130.834 177.423L131.545 186.979C131.766 189.901 131.319 192.77 133.198 194.771C134.778 196.44 137.874 197.724 140.043 198.456C144.439 199.904 149.172 202.058 153.563 203.511" fill="black"/>
</g>
<path opacity="0.3" d="M162.319 173.258L164.551 187.031L162.44 183.13L162.319 173.258Z" fill="black"/>
<path d="M129.213 164.75C129.017 164.793 128.817 164.808 128.618 164.798L126.986 164.84C125.612 164.877 123.716 164.945 121.626 165.092C119.536 165.24 117.651 165.445 116.282 165.619L114.666 165.808C114.469 165.843 114.27 165.857 114.071 165.851C114.256 165.774 114.451 165.725 114.65 165.703C115.029 165.624 115.577 165.529 116.229 165.424C117.593 165.214 119.483 164.982 121.579 164.829C123.674 164.677 125.58 164.64 126.959 164.655C127.649 164.655 128.207 164.682 128.592 164.703C128.8 164.696 129.008 164.712 129.213 164.75Z" fill="#455A64"/>
<path d="M129.966 177.944C129.966 178.018 126.586 178.36 122.411 178.702C118.236 179.044 114.834 179.271 114.829 179.192C114.824 179.113 118.204 178.776 122.384 178.428C126.565 178.081 129.966 177.865 129.966 177.944Z" fill="#455A64"/>
<path d="M131.192 191.796C131.028 191.917 130.852 192.019 130.666 192.102C130.313 192.286 129.797 192.528 129.139 192.802C125.723 194.23 122.082 195.047 118.383 195.213C117.672 195.245 117.098 195.245 116.703 195.213C116.498 195.224 116.293 195.209 116.092 195.166C116.293 195.126 116.498 195.106 116.703 195.108C117.098 195.108 117.667 195.06 118.372 195.002C120.195 194.874 122.008 194.617 123.795 194.234C125.585 193.834 127.345 193.306 129.06 192.654C129.718 192.402 130.25 192.191 130.639 192.038C130.814 191.937 130.999 191.855 131.192 191.796Z" fill="#455A64"/>
<path d="M140.369 198.904C139.436 199.482 138.577 200.172 137.81 200.957C137.112 201.803 136.513 202.727 136.025 203.711C136.06 203.381 136.157 203.062 136.31 202.768C136.962 201.298 138.07 200.077 139.469 199.283C139.74 199.097 140.046 198.968 140.369 198.904Z" fill="#455A64"/>
<path d="M149.704 208.023C150.114 206.112 151.073 204.363 152.463 202.99C152.526 203.042 151.715 204.042 150.957 205.438C150.199 206.833 149.783 208.049 149.704 208.023Z" fill="#455A64"/>
<path d="M134.994 157.011C133.798 157.365 132.579 157.632 131.345 157.811C130.131 158.076 128.899 158.252 127.66 158.338C128.854 157.98 130.074 157.712 131.308 157.537C132.522 157.273 133.754 157.097 134.994 157.011Z" fill="#455A64"/>
<path d="M159.702 158.137C158.006 158.073 156.316 157.919 154.637 157.674C152.949 157.521 151.27 157.275 149.609 156.937C151.304 157.004 152.995 157.159 154.674 157.4C156.362 157.557 158.04 157.803 159.702 158.137Z" fill="#455A64"/>
<path d="M161.808 169.625C161.701 169.641 161.593 169.641 161.487 169.625H160.56H157.154C154.279 169.625 150.309 169.625 145.924 169.757C141.538 169.889 137.573 170.052 134.699 170.204L131.298 170.384L130.376 170.42C130.268 170.437 130.158 170.437 130.05 170.42C130.155 170.395 130.263 170.379 130.371 170.373L131.292 170.278C132.093 170.204 133.251 170.115 134.688 170.015C137.558 169.815 141.533 169.604 145.918 169.488C150.304 169.373 154.279 169.383 157.159 169.436C158.596 169.462 159.76 169.494 160.56 169.531L161.487 169.573C161.595 169.58 161.703 169.598 161.808 169.625Z" fill="#455A64"/>
<path d="M162.114 184.183C162.114 184.257 155.348 184.762 146.993 185.315C138.637 185.868 131.856 186.247 131.851 186.173C131.845 186.099 138.616 185.589 146.972 185.041C155.327 184.494 162.108 184.104 162.114 184.183Z" fill="#455A64"/>
<path d="M161.392 197.003C161.211 197.103 161.021 197.184 160.823 197.245C160.449 197.388 159.907 197.572 159.244 197.772C157.891 198.214 156.001 198.767 153.889 199.278C151.778 199.788 149.846 200.152 148.44 200.367C147.735 200.483 147.166 200.562 146.771 200.604C146.566 200.639 146.358 200.653 146.15 200.647C146.346 200.575 146.549 200.526 146.755 200.499L148.403 200.178C149.799 199.909 151.72 199.515 153.826 199.009C155.932 198.504 157.822 197.982 159.186 197.588L160.802 197.119C160.993 197.056 161.191 197.017 161.392 197.003Z" fill="#455A64"/>
<path d="M172.222 173.764C170.61 174.323 168.968 174.794 167.305 175.175C165.664 175.646 164 176.029 162.319 176.322C163.932 175.765 165.573 175.294 167.236 174.911C168.876 174.438 170.541 174.055 172.222 173.764Z" fill="#455A64"/>
<path d="M167.057 163.923C166.357 164.189 165.627 164.365 164.883 164.45C164.152 164.628 163.402 164.716 162.65 164.713C163.354 164.452 164.085 164.275 164.83 164.187C165.559 164.009 166.307 163.92 167.057 163.923Z" fill="#455A64"/>
<path d="M130.071 166.977C130.018 166.977 129.934 166.103 129.455 164.782C128.833 163.054 127.793 161.508 126.428 160.28C125.063 159.053 123.415 158.183 121.631 157.748C120.262 157.411 119.373 157.427 119.378 157.374C119.583 157.337 119.792 157.328 119.999 157.348C120.563 157.37 121.123 157.443 121.673 157.563C123.511 157.953 125.215 158.819 126.612 160.075C128.009 161.331 129.051 162.932 129.634 164.719C129.815 165.253 129.945 165.803 130.024 166.361C130.068 166.563 130.083 166.771 130.071 166.977Z" fill="#263238"/>
<path d="M160.818 159.959C161.215 161.544 161.519 163.151 161.729 164.771C162.035 166.377 162.247 168 162.366 169.631C161.976 168.043 161.674 166.435 161.461 164.813C161.156 163.209 160.941 161.588 160.818 159.959Z" fill="#263238"/>
<path d="M189.586 237.559C189.586 237.559 209.424 243.045 210.219 243.351C211.415 243.772 211.214 248.147 209.356 248.089C208.477 248.057 194.119 248.615 192.303 248.51C190.486 248.405 185.016 246.241 185.016 246.241L189.586 237.559Z" fill="#008B8B"/>
<path d="M197.852 245.125C197.952 245.125 198.083 244.072 198.726 243.019C199.368 241.966 200.189 241.271 200.126 241.192C200.063 241.113 199.105 241.676 198.436 242.85C197.768 244.024 197.768 245.135 197.852 245.125Z" fill="#263238"/>
<path d="M195.777 244.188C195.872 244.188 196.072 243.266 196.604 242.229C197.136 241.192 197.757 240.471 197.657 240.402C197.043 240.815 196.563 241.399 196.278 242.082C195.777 243.198 195.698 244.182 195.777 244.188Z" fill="#263238"/>
<path d="M193.84 243.672C193.94 243.672 193.84 242.671 194.303 241.566C194.767 240.46 195.456 239.786 195.388 239.712C195.319 239.639 194.456 240.239 193.998 241.45C193.54 242.661 193.761 243.724 193.84 243.672Z" fill="#263238"/>
<path d="M194.198 241.092C194.374 240.62 194.448 240.115 194.414 239.612C194.407 239.068 194.338 238.525 194.208 237.996C194.134 237.682 194.036 237.374 193.913 237.075C193.853 236.888 193.744 236.721 193.598 236.59C193.499 236.514 193.377 236.476 193.252 236.482C193.128 236.488 193.01 236.537 192.918 236.622C192.763 236.771 192.667 236.971 192.65 237.185C192.639 237.361 192.639 237.536 192.65 237.712C192.651 238.04 192.692 238.367 192.771 238.686C192.905 239.217 193.11 239.727 193.382 240.202C193.603 240.651 193.904 241.057 194.271 241.397C194.319 241.366 193.987 240.902 193.587 240.092C193.355 239.622 193.178 239.127 193.061 238.617C192.999 238.319 192.967 238.016 192.966 237.712C192.966 237.406 192.966 237.027 193.15 236.88C193.185 236.846 193.233 236.827 193.282 236.827C193.331 236.827 193.378 236.846 193.413 236.88C193.515 236.975 193.589 237.095 193.629 237.227C193.749 237.512 193.849 237.804 193.929 238.101C194.068 238.607 194.157 239.126 194.193 239.649C194.229 240.565 194.14 241.092 194.198 241.092Z" fill="#263238"/>
<path d="M194.198 240.908C193.792 240.737 193.352 240.664 192.913 240.697C192.439 240.697 191.967 240.756 191.507 240.871C191.224 240.932 190.951 241.033 190.697 241.171C190.534 241.253 190.403 241.386 190.322 241.549C190.241 241.712 190.216 241.897 190.249 242.077C190.294 242.248 190.384 242.404 190.51 242.528C190.636 242.652 190.793 242.74 190.965 242.782C191.257 242.856 191.563 242.856 191.855 242.782C192.324 242.661 192.763 242.444 193.145 242.145C193.504 241.899 193.816 241.59 194.066 241.234C193.698 241.447 193.346 241.686 193.013 241.95C192.645 242.202 192.232 242.381 191.797 242.477C191.555 242.537 191.302 242.537 191.06 242.477C190.945 242.447 190.84 242.389 190.755 242.307C190.671 242.225 190.608 242.122 190.576 242.008C190.558 241.896 190.577 241.781 190.63 241.68C190.683 241.579 190.767 241.499 190.87 241.45C191.098 241.328 191.341 241.234 191.592 241.171C192.028 241.049 192.477 240.971 192.929 240.939C193.671 240.881 194.161 240.96 194.198 240.908Z" fill="#263238"/>
<path d="M200.9 245.341C200.995 245.341 200.9 244.482 201.29 243.55C201.679 242.619 202.343 242.071 202.258 241.997C202.174 241.924 201.4 242.387 200.984 243.424C200.568 244.461 200.816 245.372 200.9 245.341Z" fill="#263238"/>
<path d="M187.059 246.257C187.3 246.402 187.556 246.522 187.822 246.615C188.542 246.894 189.281 247.123 190.033 247.299C192.519 247.844 195.061 248.084 197.604 248.015C200.579 247.984 203.259 247.852 205.202 247.773L207.497 247.652C207.78 247.649 208.062 247.619 208.34 247.562C208.059 247.517 207.775 247.503 207.492 247.52H205.191L197.604 247.668C195.082 247.73 192.56 247.526 190.081 247.057C188.185 246.683 187.08 246.194 187.059 246.257Z" fill="#263238"/>
<path d="M186.469 246.71C186.469 246.752 187.038 246.436 187.954 246.036C189.122 245.478 190.423 245.261 191.708 245.409C192.972 245.683 194.112 246.362 194.956 247.341C195.31 247.757 195.692 248.147 196.099 248.51C195.835 248.024 195.508 247.576 195.125 247.178C194.736 246.721 194.296 246.309 193.814 245.951C193.208 245.503 192.504 245.205 191.761 245.083C190.421 244.926 189.066 245.188 187.88 245.83C187.366 246.046 186.889 246.342 186.469 246.71Z" fill="#263238"/>
<path d="M166.11 232.952C166.11 232.952 147.34 245.241 146.661 245.751C145.65 246.515 146.808 250.153 148.562 249.521C149.388 249.226 165.141 244.84 166.836 244.182C168.532 243.524 173.091 239.807 173.091 239.807L166.11 232.952Z" fill="#008B8B"/>
<path d="M160.534 242.671C160.613 242.671 160.281 241.571 159.275 240.665C158.27 239.76 157.169 239.512 157.169 239.612C157.169 239.712 158.128 240.065 159.06 240.923C159.991 241.781 160.444 242.719 160.534 242.671Z" fill="#263238"/>
<path d="M162.218 241.15C162.297 241.123 161.934 240.176 161.076 239.307C160.218 238.438 159.286 238.043 159.254 238.122C159.223 238.201 160.028 238.702 160.834 239.539C161.639 240.376 162.129 241.197 162.218 241.15Z" fill="#263238"/>
<path d="M163.909 240.065C163.993 240.065 163.909 239.012 163.087 238.001C162.266 236.991 161.255 236.69 161.239 236.775C161.224 236.859 162.092 237.301 162.819 238.212C163.546 239.123 163.814 240.092 163.909 240.065Z" fill="#263238"/>
<path d="M162.798 237.733C162.845 237.733 162.587 237.206 162.371 236.327C162.248 235.818 162.174 235.298 162.15 234.774C162.132 234.465 162.132 234.156 162.15 233.847C162.151 233.709 162.185 233.574 162.25 233.452C162.278 233.412 162.32 233.384 162.368 233.373C162.416 233.362 162.466 233.37 162.508 233.395C162.724 233.479 162.835 233.842 162.935 234.132C163.028 234.421 163.09 234.719 163.119 235.021C163.168 235.548 163.152 236.078 163.072 236.601C162.94 237.491 162.766 238.033 162.819 238.049C163.067 237.615 163.231 237.138 163.303 236.643C163.418 236.107 163.459 235.558 163.424 235.011C163.402 234.684 163.342 234.361 163.245 234.047C163.195 233.88 163.133 233.717 163.061 233.558C162.981 233.361 162.831 233.199 162.64 233.105C162.527 233.051 162.4 233.039 162.279 233.071C162.159 233.103 162.053 233.177 161.982 233.279C161.882 233.448 161.828 233.64 161.824 233.837C161.803 234.159 161.803 234.483 161.824 234.806C161.861 235.342 161.962 235.872 162.124 236.385C162.246 236.879 162.477 237.339 162.798 237.733Z" fill="#263238"/>
<path d="M162.756 237.533C162.782 237.58 163.219 237.359 163.977 237.175C164.418 237.069 164.867 237.007 165.32 236.991C165.579 236.975 165.839 236.99 166.094 237.038C166.205 237.053 166.309 237.104 166.39 237.183C166.47 237.261 166.523 237.364 166.541 237.475C166.545 237.594 166.518 237.712 166.463 237.817C166.408 237.922 166.326 238.011 166.225 238.075C166.014 238.207 165.774 238.286 165.525 238.307C165.082 238.347 164.635 238.303 164.209 238.175C163.809 238.026 163.399 237.905 162.982 237.812C163.328 238.078 163.721 238.277 164.141 238.396C164.592 238.568 165.075 238.642 165.557 238.612C165.859 238.593 166.151 238.501 166.41 238.344C166.56 238.249 166.682 238.116 166.763 237.959C166.845 237.802 166.882 237.626 166.873 237.449C166.851 237.268 166.771 237.099 166.645 236.968C166.518 236.837 166.353 236.751 166.173 236.722C165.888 236.671 165.598 236.659 165.309 236.685C164.835 236.715 164.367 236.804 163.914 236.948C163.489 237.052 163.092 237.252 162.756 237.533Z" fill="#263238"/>
<path d="M150.952 248.837C150.952 248.868 151.268 248.647 151.415 248.11C151.566 247.411 151.439 246.681 151.062 246.073C150.877 245.744 150.666 245.43 150.431 245.135C150.251 244.879 150.037 244.648 149.793 244.451C149.622 244.311 149.414 244.223 149.193 244.198C149.041 244.198 148.956 244.23 148.962 244.251C149.215 244.325 149.449 244.455 149.646 244.63C149.843 244.841 150.019 245.07 150.173 245.314C150.385 245.609 150.582 245.915 150.762 246.231C151.097 246.78 151.241 247.423 151.173 248.063C151.113 248.325 151.039 248.583 150.952 248.837Z" fill="#263238"/>
<path d="M157.691 243.803C157.78 243.803 157.754 242.856 157.033 242.003C156.311 241.15 155.385 240.95 155.379 241.034C155.374 241.118 156.138 241.434 156.775 242.219C157.412 243.003 157.596 243.819 157.691 243.803Z" fill="#263238"/>
<path d="M171.158 240.471C170.868 240.637 170.591 240.827 170.332 241.039C169.589 241.555 168.817 242.028 168.021 242.456C166.829 243.081 165.598 243.628 164.335 244.093C162.914 244.619 161.318 245.12 159.633 245.609C156.253 246.583 153.194 247.473 150.988 248.136L148.356 248.937C148.032 249.02 147.717 249.132 147.414 249.274C147.745 249.228 148.073 249.156 148.393 249.058L151.025 248.363C153.247 247.757 156.29 246.904 159.691 245.93C161.381 245.441 162.982 244.93 164.43 244.377C165.699 243.896 166.93 243.322 168.115 242.661C168.913 242.212 169.675 241.704 170.395 241.139C170.672 240.944 170.928 240.72 171.158 240.471Z" fill="#263238"/>
<path d="M171.854 240.723C171.353 240.499 170.82 240.357 170.274 240.302C168.942 240.051 167.564 240.218 166.331 240.781C165.66 241.124 165.08 241.623 164.641 242.234C164.288 242.726 163.993 243.256 163.761 243.814C163.515 244.314 163.338 244.846 163.235 245.393C163.513 244.925 163.757 244.438 163.967 243.935C164.414 243.061 165.12 241.782 166.473 241.108C167.656 240.585 168.961 240.403 170.243 240.581C171.232 240.639 171.843 240.776 171.854 240.723Z" fill="#263238"/>
<path d="M205.133 202.215C205.133 202.215 210.761 204.237 210.788 210.555C210.83 222.665 186.348 235.985 186.348 235.985L153.763 214.399L151.72 213.572C151.72 213.572 195.704 197.03 205.133 202.215Z" fill="#263238"/>
<path d="M170.269 225.297C170.569 225.134 170.853 224.941 171.116 224.723C171.643 224.339 172.411 223.76 173.349 223.038C175.212 221.601 177.75 219.553 180.483 217.21C183.215 214.867 185.616 212.666 187.327 211.04C188.18 210.229 188.864 209.56 189.328 209.092C189.582 208.863 189.815 208.611 190.023 208.339C189.744 208.537 189.482 208.757 189.238 208.997L187.169 210.866C185.421 212.445 182.994 214.62 180.267 216.957C177.539 219.295 175.033 221.369 173.206 222.859L171.032 224.607C170.759 224.816 170.504 225.047 170.269 225.297Z" fill="#455A64"/>
<path d="M195.936 206.733C194.875 206.566 193.789 206.666 192.777 207.022C191.076 207.517 189.933 208.423 189.986 208.486C190.039 208.549 191.229 207.817 192.871 207.338C194.514 206.859 195.936 206.838 195.936 206.733Z" fill="#455A64"/>
<path d="M193.145 204.827C192.368 205.101 191.695 205.609 191.218 206.28C190.349 207.333 190.117 208.465 190.202 208.476C190.286 208.486 190.655 207.496 191.476 206.491C192.297 205.485 193.176 204.916 193.145 204.827Z" fill="#455A64"/>
<path d="M206.923 243.129C206.923 243.093 206.534 243.014 206.081 243.382C205.553 243.88 205.221 244.551 205.144 245.272C205.031 245.988 205.133 246.721 205.439 247.378C205.67 247.873 205.923 248.11 205.965 248.084C206.007 248.057 205.833 247.778 205.67 247.294C205.459 246.666 205.396 245.997 205.486 245.341C205.56 244.689 205.827 244.074 206.255 243.577C206.586 243.198 206.929 243.198 206.923 243.129Z" fill="#263238"/>
<path d="M202.801 185.036L193.535 210.029C193.276 210.725 192.808 211.325 192.196 211.745C191.583 212.166 190.855 212.386 190.112 212.377L139.084 211.703V207.828L158.038 208.518L166.073 183.593C166.206 183.183 166.466 182.826 166.815 182.572C167.164 182.319 167.584 182.182 168.015 182.182L200.932 182.277C201.258 182.283 201.579 182.367 201.866 182.523C202.153 182.679 202.399 182.901 202.582 183.172C202.766 183.442 202.881 183.753 202.919 184.077C202.957 184.402 202.917 184.73 202.801 185.036Z" fill="#E0E0E0"/>
<path d="M202.801 185.036C202.801 185.036 202.801 185.036 202.801 184.957C202.829 184.882 202.85 184.804 202.864 184.725C202.94 184.416 202.94 184.092 202.864 183.783C202.758 183.373 202.524 183.007 202.197 182.739C201.87 182.47 201.465 182.312 201.043 182.288C200.695 182.288 200.311 182.288 199.911 182.288H186.18H176.561H171.153H168.316C167.842 182.241 167.367 182.346 166.957 182.588C166.55 182.844 166.249 183.238 166.11 183.699L158.096 208.581V208.639H158.033L139.079 207.954L139.164 207.87V211.745L139.085 211.666L171.169 212.093L185.116 212.287L188.333 212.329H189.912C190.415 212.359 190.919 212.286 191.392 212.114C191.852 211.946 192.271 211.685 192.624 211.345C192.977 211.006 193.255 210.597 193.44 210.145C193.777 209.239 194.109 208.349 194.435 207.486C197.02 200.552 199.11 194.95 200.553 191.075C201.279 189.148 201.838 187.647 202.222 186.626C202.606 185.605 202.812 185.083 202.812 185.083C202.812 185.083 202.627 185.61 202.253 186.663L200.6 191.075C199.168 194.955 197.099 200.552 194.53 207.502L193.54 210.171C193.349 210.638 193.063 211.06 192.701 211.411C192.338 211.761 191.907 212.033 191.434 212.208C190.944 212.388 190.423 212.467 189.902 212.44H188.322L185.111 212.398L171.164 212.224L139.074 211.808H138.995V207.765H139.079L158.033 208.46L157.954 208.518L165.989 183.641C166.136 183.149 166.458 182.727 166.894 182.456C167.326 182.202 167.827 182.092 168.326 182.14H171.164H176.571L186.19 182.182L199.921 182.246C200.321 182.246 200.7 182.246 201.058 182.246C201.49 182.274 201.902 182.439 202.234 182.716C202.566 182.993 202.801 183.369 202.906 183.788C202.984 184.099 202.984 184.425 202.906 184.736C202.88 184.839 202.845 184.939 202.801 185.036Z" fill="#263238"/>
<path d="M180.177 194.476C180.572 194.276 181.016 194.195 181.456 194.242C181.896 194.288 182.313 194.461 182.657 194.739C182.948 195.016 183.149 195.374 183.235 195.766C183.322 196.158 183.289 196.567 183.142 196.94C182.982 197.308 182.723 197.624 182.394 197.854C182.065 198.083 181.678 198.217 181.278 198.24C180.853 198.268 180.43 198.156 180.075 197.921C179.719 197.686 179.45 197.342 179.309 196.94C179.072 196.124 179.309 194.908 180.177 194.476Z" fill="white"/>
<path d="M191.839 237.327C191.839 237.327 145.855 207.875 143.828 206.717C142.101 205.733 137.479 202.889 132.925 204.148C128.37 205.406 124.285 209.502 122.242 215.457C121.079 218.869 120.526 224.686 120.268 229.051C119.92 234.277 121.619 239.434 125.006 243.43C126.505 245.293 128.492 246.704 130.745 247.505C131.224 247.652 131.724 247.778 132.235 247.889C140.938 249.779 149.883 245.873 154.774 238.412L155.827 236.78C155.827 236.78 185.943 247.836 186.411 247.684L191.839 237.327Z" fill="#263238"/>
<path d="M146.203 208.349C146.203 208.349 146.16 208.349 146.087 208.281L145.766 208.06C145.481 207.865 145.065 207.581 144.523 207.228C142.992 206.222 141.353 205.391 139.637 204.748C138.453 204.313 137.211 204.052 135.952 203.974C134.515 203.914 133.082 204.149 131.74 204.664C130.25 205.239 128.874 206.073 127.675 207.128C127.033 207.677 126.43 208.27 125.869 208.902C125.302 209.553 124.801 210.258 124.374 211.008C123.528 212.503 122.863 214.094 122.394 215.746C121.957 217.352 121.61 218.937 121.284 220.432C120.676 223.081 120.324 225.782 120.231 228.498C120.198 230.331 120.337 232.162 120.647 233.968C120.747 234.611 120.862 235.1 120.931 235.437L121.005 235.822C121.012 235.865 121.012 235.91 121.005 235.953C120.986 235.913 120.972 235.87 120.962 235.827C120.962 235.727 120.899 235.601 120.862 235.448C120.773 235.116 120.641 234.632 120.525 233.99C120.165 232.181 119.989 230.342 119.999 228.498C120.069 225.77 120.41 223.056 121.015 220.395C121.341 218.89 121.678 217.315 122.11 215.689C122.588 214.015 123.261 212.403 124.116 210.887C124.553 210.117 125.064 209.392 125.643 208.723C126.213 208.081 126.827 207.479 127.48 206.922C128.705 205.853 130.11 205.008 131.629 204.427C133.011 203.903 134.486 203.67 135.962 203.742C137.238 203.836 138.493 204.113 139.69 204.564C141.414 205.224 143.052 206.088 144.57 207.138C145.097 207.507 145.513 207.807 145.787 208.018L146.092 208.26C146.133 208.284 146.171 208.314 146.203 208.349Z" fill="#455A64"/>
<path d="M134.888 229.014C134.97 229.057 135.055 229.096 135.141 229.13L135.894 229.425L138.811 230.562L149.656 234.648C154.263 236.364 159.786 238.412 165.978 240.665C172.169 242.919 179.029 245.404 186.358 247.868L186.495 247.91L186.558 247.789C187.706 245.588 188.922 243.272 190.154 240.918L191.987 237.406L192.06 237.269L191.929 237.19L156.817 214.899L146.287 208.244L143.423 206.454L142.675 206.001C142.592 205.947 142.506 205.898 142.417 205.854C142.417 205.854 142.496 205.917 142.659 206.027L143.391 206.512L146.224 208.349L156.717 215.088L191.771 237.47L191.713 237.254C191.134 238.365 190.512 239.554 189.881 240.755L186.29 247.626L186.485 247.541C179.161 245.067 172.296 242.608 166.099 240.376L149.777 234.432L138.895 230.441L135.957 229.388L135.194 229.119L134.888 229.014Z" fill="#455A64"/>
<path d="M137.268 131.302C136.406 129.753 135.721 128.113 135.225 126.411C134.731 124.695 134.828 122.863 135.499 121.209C135.926 120.267 136.6 119.44 136.936 118.461C137.395 117.113 137.205 115.523 138.042 114.37C139.343 112.564 142.133 112.985 144.149 112.043C145.729 111.306 146.819 109.721 148.467 109.189C149.909 108.726 151.484 109.189 152.874 109.768C154.263 110.347 155.627 111.121 157.128 111.316C158.206 111.377 159.287 111.377 160.366 111.316C161.459 111.271 162.528 111.648 163.351 112.369C164.109 113.133 164.267 114.549 163.446 115.249C165.336 114.928 167.131 116.829 167.089 118.729C167.047 120.63 165.62 122.33 163.877 123.131C162.135 123.931 160.15 123.978 158.238 123.826C152.831 123.404 147.398 121.351 143.718 117.371" fill="#008B8B"/>
<path d="M138.431 124.536L134.746 151.309C134.597 152.388 134.669 153.485 134.957 154.535C135.246 155.586 135.744 156.566 136.424 157.418C137.103 158.269 137.948 158.973 138.907 159.488C139.867 160.003 140.921 160.317 142.006 160.412C144.063 160.59 146.11 159.971 147.723 158.682C149.336 157.394 150.392 155.534 150.672 153.488C150.946 151.472 151.199 149.803 151.199 149.587C151.199 149.587 158.101 149.882 159.523 143.206C160.207 139.979 161.102 133.203 161.797 127.09C162.167 123.923 161.333 120.732 159.46 118.151C157.588 115.569 154.814 113.786 151.689 113.154L151.041 113.027C143.996 112.032 139.221 117.466 138.431 124.536Z" fill="#FFBE9D"/>
<path d="M151.262 149.482C148.161 148.924 145.295 147.458 143.028 145.27C143.028 145.27 144.128 150.503 150.925 151.235L151.262 149.482Z" fill="#EB996E"/>
<path d="M158.828 132.781C158.78 133.031 158.637 133.253 158.429 133.398C158.22 133.544 157.963 133.602 157.712 133.561C157.589 133.546 157.47 133.506 157.363 133.445C157.255 133.384 157.161 133.302 157.086 133.204C157.01 133.106 156.955 132.994 156.923 132.874C156.892 132.755 156.884 132.63 156.901 132.508C156.947 132.258 157.089 132.036 157.297 131.889C157.504 131.743 157.761 131.683 158.012 131.723C158.136 131.737 158.255 131.776 158.364 131.837C158.472 131.899 158.567 131.981 158.643 132.08C158.719 132.178 158.775 132.291 158.807 132.412C158.838 132.532 158.846 132.658 158.828 132.781Z" fill="#263238"/>
<path d="M159.734 130.086C159.592 130.186 158.976 129.507 157.944 129.306C156.912 129.106 156.059 129.464 155.975 129.306C155.933 129.238 156.096 129.038 156.501 128.864C156.998 128.649 157.55 128.592 158.081 128.701C158.617 128.805 159.106 129.078 159.476 129.48C159.744 129.796 159.808 130.044 159.734 130.086Z" fill="#263238"/>
<path d="M149.235 131.123C149.188 131.373 149.045 131.594 148.836 131.74C148.627 131.885 148.37 131.944 148.119 131.902C147.996 131.888 147.877 131.849 147.769 131.788C147.661 131.727 147.567 131.645 147.491 131.547C147.416 131.449 147.361 131.336 147.329 131.217C147.298 131.097 147.291 130.972 147.308 130.849C147.355 130.6 147.497 130.378 147.705 130.233C147.912 130.087 148.169 130.028 148.419 130.07C148.543 130.084 148.662 130.123 148.77 130.184C148.878 130.245 148.973 130.327 149.049 130.425C149.125 130.523 149.18 130.635 149.212 130.755C149.244 130.875 149.252 131 149.235 131.123Z" fill="#263238"/>
<path d="M149.588 128.259C149.441 128.359 148.825 127.68 147.793 127.474C146.761 127.269 145.908 127.637 145.824 127.474C145.782 127.406 145.945 127.206 146.35 127.032C146.847 126.816 147.399 126.759 147.93 126.869C148.465 126.973 148.953 127.244 149.325 127.643C149.594 127.969 149.657 128.211 149.588 128.259Z" fill="#263238"/>
<path d="M151.794 136.635C152.37 136.571 152.952 136.582 153.526 136.667C153.795 136.693 154.053 136.667 154.132 136.519C154.216 136.254 154.216 135.969 154.132 135.703C154.016 135.019 153.889 134.303 153.758 133.55C153.231 130.486 152.936 127.99 153.058 127.969C153.179 127.948 153.695 130.417 154.205 133.482C154.321 134.234 154.437 134.95 154.548 135.64C154.646 135.989 154.622 136.36 154.479 136.693C154.42 136.78 154.342 136.853 154.251 136.905C154.16 136.957 154.057 136.987 153.953 136.993C153.799 137.003 153.645 136.992 153.495 136.962C152.916 136.925 152.345 136.816 151.794 136.635Z" fill="#263238"/>
<path d="M148.625 136.74C148.793 136.74 148.572 137.883 149.372 138.846C150.173 139.81 151.384 139.947 151.357 140.105C151.357 140.178 151.052 140.268 150.546 140.184C149.89 140.06 149.297 139.71 148.872 139.194C148.476 138.696 148.288 138.064 148.346 137.43C148.393 136.972 148.551 136.719 148.625 136.74Z" fill="#263238"/>
<path d="M150.657 124.279C150.499 124.537 149.499 124.2 148.261 124.105C147.024 124.01 145.987 124.142 145.876 123.863C145.829 123.726 146.05 123.499 146.498 123.305C147.09 123.081 147.725 122.993 148.356 123.049C148.987 123.105 149.597 123.302 150.141 123.626C150.546 123.889 150.725 124.157 150.657 124.279Z" fill="#008B8B"/>
<path d="M159.976 127.032C159.744 127.232 159.086 126.848 158.239 126.664C157.391 126.479 156.659 126.506 156.512 126.232C156.464 126.095 156.622 125.884 156.985 125.705C157.462 125.525 157.981 125.491 158.476 125.606C158.972 125.721 159.423 125.981 159.771 126.353C160.002 126.674 160.055 126.937 159.976 127.032Z" fill="#008B8B"/>
<path d="M137.99 129.601C137.884 129.528 133.662 127.321 132.893 131.928C132.124 136.535 136.91 136.356 136.937 136.225C136.963 136.093 137.99 129.601 137.99 129.601Z" fill="#FFBE9D"/>
<path d="M135.82 134.245C135.82 134.245 135.731 134.287 135.589 134.324C135.384 134.375 135.167 134.345 134.983 134.24C134.525 133.977 134.246 133.139 134.362 132.302C134.417 131.906 134.559 131.527 134.778 131.191C134.845 131.054 134.944 130.934 135.067 130.842C135.189 130.751 135.332 130.69 135.483 130.665C135.58 130.656 135.676 130.682 135.756 130.736C135.836 130.791 135.894 130.872 135.92 130.965C135.962 131.107 135.92 131.191 135.92 131.202C135.92 131.212 136.031 131.144 136.026 130.949C136.019 130.83 135.973 130.717 135.894 130.628C135.783 130.511 135.629 130.443 135.468 130.438C135.272 130.444 135.081 130.5 134.914 130.6C134.746 130.701 134.607 130.843 134.509 131.012C134.247 131.378 134.079 131.803 134.02 132.25C133.893 133.182 134.225 134.129 134.857 134.435C134.975 134.49 135.105 134.519 135.236 134.519C135.367 134.519 135.496 134.49 135.615 134.435C135.794 134.356 135.836 134.256 135.82 134.245Z" fill="#EB996E"/>
<path d="M163.135 120.872C162.345 122.573 158.28 123.231 155.3 122.33C152.557 121.504 151.557 119.761 149.814 118.24C148.709 117.276 148.709 117.276 146.903 117.092C145.444 116.939 144.27 118.392 143.17 119.356C143.786 123.041 142.159 126.642 140.569 129.996C140.435 130.388 140.174 130.724 139.827 130.949C139.206 131.254 138.458 130.77 138.084 130.18C137.56 129.188 137.335 128.065 137.437 126.948C137.451 124.4 137.972 121.88 138.969 119.535C139.968 117.173 141.642 115.158 143.781 113.743C146.522 112.068 149.807 111.524 152.942 112.227C156.058 112.948 158.868 114.634 160.971 117.044C161.998 118.111 162.742 119.418 163.135 120.846" fill="#008B8B"/>
<path d="M153.784 132.002C153.826 132.002 153.784 131.607 153.995 130.949C154.264 130.002 154.837 129.169 155.627 128.58C156.205 128.153 156.879 127.876 157.591 127.774C158.302 127.672 159.027 127.748 159.702 127.996C160.498 128.287 161.189 128.81 161.687 129.496C162.224 130.228 162.513 131.113 162.513 132.021C162.513 132.929 162.224 133.813 161.687 134.545C161.189 135.232 160.498 135.754 159.702 136.046C159.027 136.294 158.301 136.369 157.59 136.267C156.878 136.164 156.204 135.885 155.627 135.456C154.837 134.87 154.263 134.038 153.995 133.092C153.81 132.418 153.826 132.039 153.784 132.039C153.772 132.135 153.772 132.232 153.784 132.329C153.782 132.603 153.814 132.878 153.879 133.145C154.101 134.155 154.671 135.055 155.49 135.688C155.975 136.058 156.53 136.328 157.121 136.482C157.712 136.635 158.328 136.668 158.933 136.58C159.537 136.492 160.118 136.284 160.64 135.968C161.163 135.651 161.617 135.234 161.976 134.74C162.567 133.949 162.887 132.987 162.887 132C162.887 131.012 162.567 130.051 161.976 129.259C161.614 128.765 161.156 128.349 160.63 128.035C160.104 127.721 159.521 127.516 158.914 127.431C158.307 127.347 157.69 127.385 157.098 127.543C156.506 127.702 155.952 127.977 155.469 128.354C154.651 128.984 154.08 129.883 153.858 130.891C153.793 131.16 153.761 131.436 153.763 131.713C153.757 131.81 153.764 131.907 153.784 132.002Z" fill="#263238"/>
<path d="M142.859 130.096C142.901 130.096 142.859 129.701 143.07 129.043C143.338 128.095 143.912 127.262 144.702 126.674C145.279 126.246 145.954 125.968 146.666 125.866C147.377 125.764 148.103 125.841 148.777 126.089C149.573 126.379 150.264 126.9 150.762 127.585C151.299 128.318 151.589 129.203 151.589 130.112C151.589 131.021 151.299 131.906 150.762 132.639C150.266 133.326 149.574 133.847 148.777 134.134C148.103 134.383 147.377 134.46 146.666 134.358C145.954 134.256 145.279 133.978 144.702 133.55C143.912 132.962 143.338 132.129 143.07 131.181C142.886 130.512 142.901 130.128 142.859 130.128C142.847 130.222 142.847 130.318 142.859 130.412C142.858 130.689 142.889 130.964 142.954 131.233C143.176 132.244 143.747 133.144 144.565 133.776C145.049 134.152 145.604 134.427 146.196 134.585C146.788 134.743 147.405 134.781 148.012 134.697C148.619 134.612 149.203 134.407 149.73 134.094C150.256 133.78 150.715 133.364 151.078 132.871C151.668 132.078 151.986 131.116 151.986 130.128C151.986 129.139 151.668 128.178 151.078 127.385C150.716 126.891 150.258 126.474 149.732 126.16C149.206 125.846 148.622 125.641 148.016 125.557C147.409 125.472 146.791 125.51 146.199 125.669C145.608 125.827 145.054 126.103 144.57 126.479C143.753 127.113 143.183 128.012 142.959 129.022C142.895 129.291 142.863 129.567 142.865 129.843C142.853 129.927 142.851 130.012 142.859 130.096Z" fill="#263238"/>
<path d="M151.863 130.254C151.91 130.344 152.494 130.07 153.174 130.281C153.853 130.491 154.195 131.033 154.284 130.981C154.374 130.928 154.284 130.786 154.153 130.554C153.943 130.251 153.637 130.028 153.284 129.922C152.931 129.816 152.552 129.833 152.21 129.97C151.952 130.075 151.836 130.212 151.863 130.254Z" fill="#263238"/>
<path d="M136.673 128.917C136.673 129.022 138.142 129.08 139.953 129.059C141.765 129.038 143.228 128.927 143.228 128.822C143.228 128.717 141.759 128.659 139.948 128.685C138.137 128.712 136.673 128.812 136.673 128.917Z" fill="#263238"/>
<path d="M165.309 116.476C165.309 116.624 165.284 116.772 165.236 116.913C165.105 117.302 164.866 117.645 164.546 117.903C164.074 118.29 163.496 118.527 162.888 118.582C162.154 118.641 161.415 118.602 160.692 118.466C159.377 118.272 158.073 118.01 156.785 117.681C156.291 117.55 155.89 117.439 155.622 117.355L155.306 117.255L155.201 117.213C155.201 117.213 155.243 117.213 155.311 117.213L155.632 117.292L156.801 117.581C157.791 117.818 159.17 118.108 160.708 118.34C161.423 118.474 162.152 118.515 162.877 118.461C163.468 118.412 164.032 118.19 164.499 117.824C164.812 117.579 165.053 117.253 165.194 116.881C165.288 116.634 165.294 116.47 165.309 116.476Z" fill="white"/>
<path d="M166.33 117.518C166.266 117.958 166.132 118.384 165.936 118.782C165.479 119.759 164.74 120.577 163.813 121.13C162.887 121.683 161.816 121.945 160.739 121.883C160.297 121.868 159.86 121.785 159.444 121.636C159.561 121.649 159.677 121.672 159.791 121.704C160.106 121.763 160.424 121.798 160.744 121.809C161.802 121.848 162.849 121.579 163.757 121.035C164.665 120.491 165.396 119.696 165.862 118.745C166.009 118.46 166.129 118.162 166.22 117.855C166.249 117.741 166.286 117.628 166.33 117.518Z" fill="white"/>
</svg>
