<svg width="14" height="14" viewBox="0 0 14 14" fill="none" xmlns="http://www.w3.org/2000/svg">
<path opacity="0.5" fill-rule="evenodd" clip-rule="evenodd" d="M10.1412 6.07058C10.1412 8.3187 8.3187 10.1412 6.07058 10.1412C3.82246 10.1412 2 8.3187 2 6.07058C2 3.82246 3.82246 2 6.07058 2C8.3187 2 10.1412 3.82246 10.1412 6.07058ZM9.87071 10.8049C8.83051 11.6409 7.50896 12.1412 6.07058 12.1412C2.71789 12.1412 0 9.42327 0 6.07058C0 2.71789 2.71789 0 6.07058 0C9.42327 0 12.1412 2.71789 12.1412 6.07058C12.1412 7.38413 11.724 8.60024 11.0149 9.59363L13.7635 12.4113C14.0845 12.7404 14.0779 13.2674 13.7488 13.5884C13.4198 13.9094 12.8928 13.9029 12.5718 13.5738L9.87071 10.8049Z" fill="#B3B3B3"/>
</svg>
