<svg width="23" height="23" viewBox="0 0 23 23" fill="none" xmlns="http://www.w3.org/2000/svg">
<circle opacity="0.2" cx="11.5" cy="11.5" r="11" fill="white" stroke="white"/>
<path d="M16.9181 8.37794L13.8163 16.326C13.7421 16.5233 13.6021 16.6945 13.416 16.8154C13.2299 16.9363 13.007 17.0008 12.7787 16.9999C12.553 17.0023 12.3321 16.9407 12.1463 16.8235C11.9605 16.7064 11.819 16.5396 11.7411 16.3459L10.5834 13.5901L11.4244 12.8212L12.7842 11.5781C12.887 11.4841 12.9448 11.3566 12.9448 11.2237C12.9448 11.0907 12.887 10.9632 12.7842 10.8692C12.6813 10.7752 12.5419 10.7224 12.3964 10.7224C12.251 10.7224 12.1115 10.7752 12.0087 10.8692L10.6489 12.1123L9.78612 12.8861L6.77716 11.8227C6.55246 11.7609 6.35554 11.6345 6.21556 11.4623C6.07559 11.2901 6 11.0812 6 10.8667C6 10.6521 6.07559 10.4433 6.21556 10.2711C6.35554 10.0989 6.55246 9.97251 6.77716 9.91063L15.4928 7.07491C15.6921 7.00005 15.9112 6.98076 16.1224 7.01947C16.3337 7.05818 16.5277 7.15316 16.6801 7.29245C16.8325 7.43175 16.9364 7.60914 16.9787 7.80229C17.021 7.99544 16.9999 8.19573 16.9181 8.37794Z" fill="#008B8B"/>
</svg>
