<svg width="23" height="23" viewBox="0 0 23 23" fill="none" xmlns="http://www.w3.org/2000/svg">
<circle opacity="0.2" cx="11.5" cy="11.5" r="11" fill="white" stroke="white"/>
<path d="M15.6364 7.57143H14.2727V7.14286C14.2727 5.94286 13.2727 5 12 5C10.7273 5 9.72727 5.94286 9.72727 7.14286V7.57143H8.36364C7.59091 7.57143 7 8.12857 7 8.85714V10.1429C7 10.4 7.18182 10.5714 7.45455 10.5714H7.90909V15.7143C7.90909 16.4429 8.5 17 9.27273 17H14.7273C15.5 17 16.0909 16.4429 16.0909 15.7143V10.5714H16.5455C16.8182 10.5714 17 10.4 17 10.1429V8.85714C17 8.12857 16.4091 7.57143 15.6364 7.57143ZM10.6364 7.14286C10.6364 6.41429 11.2273 5.85714 12 5.85714C12.7727 5.85714 13.3636 6.41429 13.3636 7.14286V7.57143H10.6364V7.14286ZM11.0909 14.4286C11.0909 14.6857 10.9091 14.8571 10.6364 14.8571C10.3636 14.8571 10.1818 14.6857 10.1818 14.4286V12.2857C10.1818 12.0286 10.3636 11.8571 10.6364 11.8571C10.9091 11.8571 11.0909 12.0286 11.0909 12.2857V14.4286ZM13.8182 14.4286C13.8182 14.6857 13.6364 14.8571 13.3636 14.8571C13.0909 14.8571 12.9091 14.6857 12.9091 14.4286V12.2857C12.9091 12.0286 13.0909 11.8571 13.3636 11.8571C13.6364 11.8571 13.8182 12.0286 13.8182 12.2857V14.4286Z" fill="#008B8B"/>
</svg>
